<svg xmlns="http://www.w3.org/2000/svg" width="356" height="286" viewBox="0 0 356 286" role="img" aria-label="lirm-armature-13 silhouette-svg control" data-control-map="silhouette-svg">
  <style>[data-layer="semantic-map"]{display:none}</style>
  <rect width="100%" height="100%" fill="#07130f"/>
  <text x="18" y="22" fill="#eef6d6" font-size="13" font-family="Menlo, Monaco, monospace">lirm-armature-13 silhouette-svg control</text>
  
    <g class="candidate" data-candidate-id="lirm-armature-13" transform="translate(0 0)">
      <title class="candidate-title">lirm-armature-13: shell kite / flop / silhouette wide-diamond-shell / segments 7 / limb pairs 4 / shell plates 5 / terminal mouth</title>
      <rect x="24" y="40" width="308" height="220" rx="9" fill="rgba(16,22,18,0.92)" stroke="rgba(167,210,144,0.22)" stroke-width="1"/>
      <text x="31" y="55" fill="rgba(235,244,216,0.9)" font-size="10" font-family="ui-monospace, SFMono-Regular, Menlo, monospace">lirm-armature-13</text>
      <text x="31" y="252" fill="rgba(235,244,216,0.75)" font-size="10" font-family="ui-monospace, SFMono-Regular, Menlo, monospace">shell kite flop</text>
      <g data-layer="silhouette" opacity="1">
        <path d="M 64.4 187.28 C 115.52 215.76, 223.44 215.76, 291.6 187.28" fill="none" stroke="hsla(80, 18%, 13%, 0.72)" stroke-width="13" stroke-linecap="round" opacity="0.5"/>
        <ellipse cx="71.78" cy="137.8" rx="49.45" ry="11.34" fill="hsla(96, 49%, 42%, 0.93)" opacity="0.74"/><ellipse cx="98.48" cy="129.96" rx="53.3" ry="13.07" fill="hsla(96, 49%, 42%, 0.93)" opacity="0.81"/><ellipse cx="124.89" cy="126.05" rx="58.65" ry="14.82" fill="hsla(96, 49%, 42%, 0.93)" opacity="0.87"/><ellipse cx="151.3" cy="126.58" rx="65.42" ry="16.41" fill="hsla(96, 49%, 42%, 0.93)" opacity="0.91"/><ellipse cx="178" cy="130.14" rx="67.9" ry="16.98" fill="hsla(96, 49%, 42%, 0.93)" opacity="0.92"/><ellipse cx="204.7" cy="134.41" rx="63.65" ry="16.18" fill="hsla(96, 49%, 42%, 0.93)" opacity="0.91"/><ellipse cx="231.11" cy="137.44" rx="57.34" ry="14.65" fill="hsla(96, 49%, 42%, 0.93)" opacity="0.87"/><ellipse cx="257.52" cy="138.86" rx="54.16" ry="13.19" fill="hsla(96, 49%, 42%, 0.93)" opacity="0.81"/><ellipse cx="284.22" cy="139.75" rx="52.06" ry="11.68" fill="hsla(96, 49%, 42%, 0.93)" opacity="0.74"/>
        <ellipse cx="284.22" cy="139.75" rx="21.96" ry="9.02" fill="hsla(17, 50%, 44%, 0.95)" opacity="0.96"/>
      </g>
      <g data-layer="semantic-map">
        <polyline points="71.78,137.8 98.48,129.96 124.89,126.05 151.3,126.58 178,130.14 204.7,134.41 231.11,137.44 257.52,138.86 284.22,139.75" fill="none" stroke="hsla(203, 70%, 62%, 0.75)" stroke-width="2" stroke-linecap="round" stroke-dasharray="4 4" opacity="0.82"/>
        <line x1="124.89" y1="126.05" x2="100.39" y2="110.05" stroke="hsla(31, 42%, 44%, 0.86)" stroke-width="5" stroke-linecap="round" opacity="0.78"/><line x1="124.89" y1="126.05" x2="141.87" y2="139.17" stroke="hsla(31, 42%, 44%, 0.86)" stroke-width="4" stroke-linecap="round" opacity="0.66"/><line x1="151.3" y1="126.58" x2="126.81" y2="142.58" stroke="hsla(31, 42%, 44%, 0.86)" stroke-width="5" stroke-linecap="round" opacity="0.78"/><line x1="151.3" y1="126.58" x2="168.28" y2="113.46" stroke="hsla(31, 42%, 44%, 0.86)" stroke-width="4" stroke-linecap="round" opacity="0.66"/><line x1="204.7" y1="134.41" x2="180.2" y2="118.41" stroke="hsla(31, 42%, 44%, 0.86)" stroke-width="5" stroke-linecap="round" opacity="0.78"/><line x1="204.7" y1="134.41" x2="221.68" y2="147.53" stroke="hsla(31, 42%, 44%, 0.86)" stroke-width="4" stroke-linecap="round" opacity="0.66"/><line x1="231.11" y1="137.44" x2="206.62" y2="153.44" stroke="hsla(31, 42%, 44%, 0.86)" stroke-width="5" stroke-linecap="round" opacity="0.78"/><line x1="231.11" y1="137.44" x2="248.09" y2="124.32" stroke="hsla(31, 42%, 44%, 0.86)" stroke-width="4" stroke-linecap="round" opacity="0.66"/>
        <rect x="77.32" y="107.83" width="42.32" height="13" rx="4" fill="hsla(217, 18%, 41%, 0.92)" stroke="rgba(232,221,181,0.5)" stroke-width="1" transform="rotate(-2.75 98.48 114.83)"/><rect x="130.14" y="104.45" width="42.32" height="13" rx="4" fill="hsla(217, 18%, 41%, 0.92)" stroke="rgba(232,221,181,0.5)" stroke-width="1" transform="rotate(2.75 151.3 111.45)"/><rect x="156.84" y="108.01" width="42.32" height="13" rx="4" fill="hsla(217, 18%, 41%, 0.92)" stroke="rgba(232,221,181,0.5)" stroke-width="1" transform="rotate(-2.75 178 115.01)"/><rect x="183.54" y="112.28" width="42.32" height="13" rx="4" fill="hsla(217, 18%, 41%, 0.92)" stroke="rgba(232,221,181,0.5)" stroke-width="1" transform="rotate(2.75 204.7 119.28)"/><rect x="236.36" y="116.73" width="42.32" height="13" rx="4" fill="hsla(217, 18%, 41%, 0.92)" stroke="rgba(232,221,181,0.5)" stroke-width="1" transform="rotate(-2.75 257.52 123.73)"/>
        <ellipse cx="178" cy="151.5" rx="50.67" ry="18.51" fill="hsla(96, 45%, 56%, 0.72)" opacity="0.52"/>
        <circle cx="275.7" cy="125.51" r="5.11" fill="rgba(255,230,165,0.88)" stroke="rgba(40,24,18,0.5)" stroke-width="1"/>
        <circle cx="299.27" cy="141.18" r="12.21" fill="hsla(352, 62%, 22%, 0.95)" stroke="rgba(255,172,97,0.75)" stroke-width="1"><title>terminal mouth</title></circle>
        <circle cx="98.48" cy="153.99" r="9.37" fill="hsla(285, 70%, 58%, 0.8)" opacity="0.75"><title>fore-brace</title></circle><circle cx="124.89" cy="151.86" r="9.37" fill="hsla(285, 70%, 58%, 0.8)" opacity="0.75"><title>fore-brace</title></circle><circle cx="151.3" cy="150.61" r="9.37" fill="hsla(285, 70%, 58%, 0.8)" opacity="0.75"><title>belly-crawl</title></circle><circle cx="204.7" cy="160.22" r="9.37" fill="hsla(285, 70%, 58%, 0.8)" opacity="0.75"><title>belly-crawl</title></circle><circle cx="231.11" cy="161.47" r="9.37" fill="hsla(285, 70%, 58%, 0.8)" opacity="0.75"><title>belly-crawl</title></circle><circle cx="257.52" cy="164.67" r="9.37" fill="hsla(285, 70%, 58%, 0.8)" opacity="0.75"><title>tail-drag</title></circle>
      </g>
    </g>
  
</svg>