<svg xmlns="http://www.w3.org/2000/svg" width="356" height="286" viewBox="0 0 356 286" role="img" aria-label="lirm-armature-11 semantic-svg control" data-control-map="semantic-svg">
  <style></style>
  <rect width="100%" height="100%" fill="#07130f"/>
  <text x="18" y="22" fill="#eef6d6" font-size="13" font-family="Menlo, Monaco, monospace">lirm-armature-11 semantic-svg control</text>
  
    <g class="candidate" data-candidate-id="lirm-armature-11" transform="translate(0 0)">
      <title class="candidate-title">lirm-armature-11: scuttle / segments 6 / limb pairs 5 / shell plates 0 / terminal mouth</title>
      <rect x="24" y="40" width="308" height="220" rx="9" fill="rgba(16,22,18,0.92)" stroke="rgba(167,210,144,0.22)" stroke-width="1"/>
      <text x="31" y="55" fill="rgba(235,244,216,0.9)" font-size="10" font-family="ui-monospace, SFMono-Regular, Menlo, monospace">lirm-armature-11</text>
      <text x="31" y="252" fill="rgba(235,244,216,0.75)" font-size="10" font-family="ui-monospace, SFMono-Regular, Menlo, monospace">lineage 12 scuttle</text>
      <g data-layer="silhouette" opacity="1">
        <path d="M 64.4 187.28 C 115.52 215.76, 223.44 215.76, 291.6 187.28" fill="none" stroke="hsla(80, 18%, 13%, 0.72)" stroke-width="13" stroke-linecap="round" opacity="0.5"/>
        <ellipse cx="87.4" cy="128.36" rx="40.33" ry="19.41" fill="hsla(92, 45%, 41%, 0.93)" opacity="0.74"/><ellipse cx="114.38" cy="128.54" rx="45.57" ry="21.34" fill="hsla(92, 45%, 41%, 0.93)" opacity="0.82"/><ellipse cx="141.36" cy="140.29" rx="50.81" ry="22.89" fill="hsla(92, 45%, 41%, 0.93)" opacity="0.88"/><ellipse cx="168.34" cy="157.91" rx="56.06" ry="23.75" fill="hsla(92, 45%, 41%, 0.93)" opacity="0.92"/><ellipse cx="195.04" cy="170.01" rx="52.39" ry="23.75" fill="hsla(92, 45%, 41%, 0.93)" opacity="0.92"/><ellipse cx="222.02" cy="167.88" rx="47.14" ry="22.89" fill="hsla(92, 45%, 41%, 0.93)" opacity="0.88"/><ellipse cx="249" cy="152.21" rx="41.9" ry="21.34" fill="hsla(92, 45%, 41%, 0.93)" opacity="0.82"/><ellipse cx="275.98" cy="132.63" rx="36.66" ry="19.41" fill="hsla(92, 45%, 41%, 0.93)" opacity="0.74"/>
        <ellipse cx="275.98" cy="132.63" rx="36.91" ry="19.11" fill="hsla(17, 50%, 45%, 0.95)" opacity="0.96"/>
      </g>
      <g data-layer="semantic-map">
        <polyline points="87.4,128.36 114.38,128.54 141.36,140.29 168.34,157.91 195.04,170.01 222.02,167.88 249,152.21 275.98,132.63" fill="none" stroke="hsla(203, 70%, 62%, 0.75)" stroke-width="2" stroke-linecap="round" stroke-dasharray="4 4" opacity="0.82"/>
        <line x1="114.38" y1="128.54" x2="93.08" y2="111.34" stroke="hsla(31, 42%, 44%, 0.86)" stroke-width="5" stroke-linecap="round" opacity="0.78"/><line x1="114.38" y1="128.54" x2="129.15" y2="142.65" stroke="hsla(31, 42%, 44%, 0.86)" stroke-width="4" stroke-linecap="round" opacity="0.66"/><line x1="141.36" y1="140.29" x2="120.06" y2="157.49" stroke="hsla(31, 42%, 44%, 0.86)" stroke-width="5" stroke-linecap="round" opacity="0.78"/><line x1="141.36" y1="140.29" x2="156.13" y2="126.18" stroke="hsla(31, 42%, 44%, 0.86)" stroke-width="4" stroke-linecap="round" opacity="0.66"/><line x1="195.04" y1="170.01" x2="173.74" y2="152.81" stroke="hsla(31, 42%, 44%, 0.86)" stroke-width="5" stroke-linecap="round" opacity="0.78"/><line x1="195.04" y1="170.01" x2="209.81" y2="184.12" stroke="hsla(31, 42%, 44%, 0.86)" stroke-width="4" stroke-linecap="round" opacity="0.66"/><line x1="222.02" y1="167.88" x2="200.72" y2="185.08" stroke="hsla(31, 42%, 44%, 0.86)" stroke-width="5" stroke-linecap="round" opacity="0.78"/><line x1="222.02" y1="167.88" x2="236.79" y2="153.77" stroke="hsla(31, 42%, 44%, 0.86)" stroke-width="4" stroke-linecap="round" opacity="0.66"/><line x1="249" y1="152.21" x2="227.7" y2="135.01" stroke="hsla(31, 42%, 44%, 0.86)" stroke-width="5" stroke-linecap="round" opacity="0.78"/><line x1="249" y1="152.21" x2="263.77" y2="166.32" stroke="hsla(31, 42%, 44%, 0.86)" stroke-width="4" stroke-linecap="round" opacity="0.66"/>
        
        <ellipse cx="168.34" cy="179.27" rx="31.61" ry="15.49" fill="hsla(96, 45%, 56%, 0.72)" opacity="0.52"/>
        <circle cx="267.46" cy="118.39" r="5.11" fill="rgba(255,230,165,0.88)" stroke="rgba(40,24,18,0.5)" stroke-width="1"/><circle cx="280.24" cy="115.19" r="5.11" fill="rgba(255,230,165,0.88)" stroke="rgba(40,24,18,0.5)" stroke-width="1"/><circle cx="293.02" cy="118.39" r="5.11" fill="rgba(255,230,165,0.88)" stroke="rgba(40,24,18,0.5)" stroke-width="1"/>
        <circle cx="290.46" cy="134.06" r="12.5" fill="hsla(352, 62%, 22%, 0.95)" stroke="rgba(255,172,97,0.75)" stroke-width="1"><title>terminal mouth</title></circle>
        <circle cx="114.38" cy="152.21" r="7.67" fill="hsla(285, 70%, 58%, 0.8)" opacity="0.75"><title>fore-brace</title></circle><circle cx="141.36" cy="166.45" r="7.67" fill="hsla(285, 70%, 58%, 0.8)" opacity="0.75"><title>fore-brace</title></circle><circle cx="168.34" cy="181.58" r="7.67" fill="hsla(285, 70%, 58%, 0.8)" opacity="0.75"><title>belly-crawl</title></circle><circle cx="195.04" cy="196.18" r="7.67" fill="hsla(285, 70%, 58%, 0.8)" opacity="0.75"><title>belly-crawl</title></circle><circle cx="222.02" cy="191.55" r="7.67" fill="hsla(285, 70%, 58%, 0.8)" opacity="0.75"><title>belly-crawl</title></circle><circle cx="249" cy="178.38" r="7.67" fill="hsla(285, 70%, 58%, 0.8)" opacity="0.75"><title>belly-crawl</title></circle><circle cx="275.98" cy="156.31" r="7.67" fill="hsla(285, 70%, 58%, 0.8)" opacity="0.75"><title>tail-drag</title></circle>
      </g>
    </g>
  
</svg>