<svg xmlns="http://www.w3.org/2000/svg" width="356" height="286" viewBox="0 0 356 286" role="img" aria-label="lirm-armature-21 semantic-svg control" data-control-map="semantic-svg">
  <style></style>
  <rect width="100%" height="100%" fill="#07130f"/>
  <text x="18" y="22" fill="#eef6d6" font-size="13" font-family="Menlo, Monaco, monospace">lirm-armature-21 semantic-svg control</text>
  
    <g class="candidate" data-candidate-id="lirm-armature-21" transform="translate(0 0)">
      <title class="candidate-title">lirm-armature-21: shell kite / brace-drag / silhouette wide-diamond-shell / segments 5 / limb pairs 1 / shell plates 5 / terminal mouth</title>
      <rect x="24" y="40" width="308" height="220" rx="9" fill="rgba(16,22,18,0.92)" stroke="rgba(167,210,144,0.22)" stroke-width="1"/>
      <text x="31" y="55" fill="rgba(235,244,216,0.9)" font-size="10" font-family="ui-monospace, SFMono-Regular, Menlo, monospace">lirm-armature-21</text>
      <text x="31" y="252" fill="rgba(235,244,216,0.75)" font-size="10" font-family="ui-monospace, SFMono-Regular, Menlo, monospace">shell kite brace-drag</text>
      <g data-layer="silhouette" opacity="1">
        <path d="M 64.4 187.28 C 115.52 215.76, 223.44 215.76, 291.6 187.28" fill="none" stroke="hsla(80, 18%, 13%, 0.72)" stroke-width="13" stroke-linecap="round" opacity="0.5"/>
        <ellipse cx="111.54" cy="128.18" rx="63" ry="13.4" fill="hsla(78, 49%, 38%, 0.93)" opacity="0.74"/><ellipse cx="138.81" cy="128.54" rx="69.19" ry="15.86" fill="hsla(78, 49%, 38%, 0.93)" opacity="0.83"/><ellipse cx="166.36" cy="141" rx="79.55" ry="18.45" fill="hsla(78, 49%, 38%, 0.93)" opacity="0.9"/><ellipse cx="193.62" cy="154.53" rx="85.27" ry="19.67" fill="hsla(78, 49%, 38%, 0.93)" opacity="0.92"/><ellipse cx="220.88" cy="156.31" rx="76.94" ry="18.09" fill="hsla(78, 49%, 38%, 0.93)" opacity="0.9"/><ellipse cx="248.43" cy="145.27" rx="68.38" ry="15.75" fill="hsla(78, 49%, 38%, 0.93)" opacity="0.83"/><ellipse cx="275.98" cy="132.1" rx="64.74" ry="13.64" fill="hsla(78, 49%, 38%, 0.93)" opacity="0.74"/>
        <ellipse cx="275.98" cy="132.1" rx="23.28" ry="10.41" fill="hsla(17, 50%, 45%, 0.95)" opacity="0.96"/>
      </g>
      <g data-layer="semantic-map">
        <polyline points="111.54,128.18 138.81,128.54 166.36,141 193.62,154.53 220.88,156.31 248.43,145.27 275.98,132.1" fill="none" stroke="hsla(203, 70%, 62%, 0.75)" stroke-width="2" stroke-linecap="round" stroke-dasharray="4 4" opacity="0.82"/>
        <line x1="193.62" y1="154.53" x2="168.49" y2="137.47" stroke="hsla(31, 42%, 44%, 0.86)" stroke-width="5" stroke-linecap="round" opacity="0.78"/><line x1="193.62" y1="154.53" x2="211.05" y2="168.52" stroke="hsla(31, 42%, 44%, 0.86)" stroke-width="4" stroke-linecap="round" opacity="0.66"/>
        <rect x="117.79" y="106.41" width="42.03" height="13" rx="4" fill="hsla(217, 18%, 41%, 0.92)" stroke="rgba(232,221,181,0.5)" stroke-width="1" transform="rotate(-3.58 138.81 113.41)"/><rect x="145.34" y="118.87" width="42.03" height="13" rx="4" fill="hsla(217, 18%, 41%, 0.92)" stroke="rgba(232,221,181,0.5)" stroke-width="1" transform="rotate(3.58 166.36 125.87)"/><rect x="172.6" y="132.4" width="42.03" height="13" rx="4" fill="hsla(217, 18%, 41%, 0.92)" stroke="rgba(232,221,181,0.5)" stroke-width="1" transform="rotate(-3.58 193.62 139.4)"/><rect x="199.86" y="134.18" width="42.03" height="13" rx="4" fill="hsla(217, 18%, 41%, 0.92)" stroke="rgba(232,221,181,0.5)" stroke-width="1" transform="rotate(3.58 220.88 141.18)"/><rect x="227.41" y="123.14" width="42.03" height="13" rx="4" fill="hsla(217, 18%, 41%, 0.92)" stroke="rgba(232,221,181,0.5)" stroke-width="1" transform="rotate(-3.58 248.43 130.14)"/>
        <ellipse cx="193.62" cy="175.89" rx="51.36" ry="14.6" fill="hsla(96, 45%, 56%, 0.72)" opacity="0.52"/>
        <circle cx="267.46" cy="117.86" r="5.11" fill="rgba(255,230,165,0.88)" stroke="rgba(40,24,18,0.5)" stroke-width="1"/><circle cx="280.24" cy="114.66" r="5.11" fill="rgba(255,230,165,0.88)" stroke="rgba(40,24,18,0.5)" stroke-width="1"/>
        <circle cx="292.17" cy="133.52" r="12.78" fill="hsla(352, 62%, 22%, 0.95)" stroke="rgba(255,172,97,0.75)" stroke-width="1"><title>terminal mouth</title></circle>
        <circle cx="138.81" cy="152.21" r="9.37" fill="hsla(285, 70%, 58%, 0.8)" opacity="0.75"><title>fore-brace</title></circle><circle cx="193.62" cy="180.69" r="9.37" fill="hsla(285, 70%, 58%, 0.8)" opacity="0.75"><title>fore-brace</title></circle><circle cx="248.43" cy="168.95" r="9.37" fill="hsla(285, 70%, 58%, 0.8)" opacity="0.75"><title>tail-drag</title></circle>
      </g>
    </g>
  
</svg>