o fat-distribution_0.1
v 0.22 0.0050000000000000044 -0.7125
v 0.2181178695022383 0.029147345560709546 -0.7125
v 0.21250368178359502 0.05288152334396634 -0.7125
v 0.2032534971524831 0.07579643498754161 -0.7125
v 0.1905255888325765 0.09749999999999999 -0.7125
v 0.17453773486407173 0.11762086436661333 -0.7125
v 0.15556349186104046 0.13581475451951128 -0.7125
v 0.13392751438191855 0.15177036795387852 -0.7125
v 0.11000000000000003 0.16521469970012115 -0.7125
v 0.08419035512031976 0.17591771351458804 -0.7125
v 0.05694018992255456 0.18369627786347764 -0.7125
v 0.028715762288411377 0.1884172993541549 -0.7125
v 1.3471114790620885e-17 0.19 -0.7125
v -0.028715762288411304 0.18841729935415494 -0.7125
v -0.05694018992255459 0.18369627786347764 -0.7125
v -0.08419035512031973 0.17591771351458804 -0.7125
v -0.10999999999999995 0.16521469970012118 -0.7125
v -0.13392751438191855 0.15177036795387852 -0.7125
v -0.15556349186104043 0.1358147545195113 -0.7125
v -0.1745377348640717 0.11762086436661337 -0.7125
v -0.1905255888325765 0.09749999999999999 -0.7125
v -0.2032534971524831 0.07579643498754163 -0.7125
v -0.212503681783595 0.05288152334396639 -0.7125
v -0.2181178695022383 0.029147345560709546 -0.7125
v -0.22 0.005000000000000027 -0.7125
v -0.2181178695022383 -0.019147345560709572 -0.7125
v -0.21250368178359505 -0.04288152334396626 -0.7125
v -0.20325349715248311 -0.06579643498754158 -0.7125
v -0.1905255888325765 -0.08750000000000001 -0.7125
v -0.1745377348640718 -0.10762086436661325 -0.7125
v -0.1555634918610405 -0.12581475451951127 -0.7125
v -0.1339275143819186 -0.14177036795387846 -0.7125
v -0.1100000000000001 -0.1552146997001211 -0.7125
v -0.08419035512031987 -0.165917713514588 -0.7125
v -0.05694018992255454 -0.17369627786347763 -0.7125
v -0.02871576228841136 -0.1784172993541549 -0.7125
v -4.041334437186265e-17 -0.18 -0.7125
v 0.02871576228841128 -0.17841729935415493 -0.7125
v 0.056940189922554466 -0.17369627786347766 -0.7125
v 0.0841903551203198 -0.16591771351458803 -0.7125
v 0.11000000000000003 -0.15521469970012114 -0.7125
v 0.13392751438191852 -0.1417703679538785 -0.7125
v 0.15556349186104043 -0.12581475451951132 -0.7125
v 0.17453773486407168 -0.10762086436661336 -0.7125
v 0.19052558883257645 -0.08750000000000008 -0.7125
v 0.20325349715248303 -0.06579643498754172 -0.7125
v 0.21250368178359502 -0.04288152334396632 -0.7125
v 0.2181178695022383 -0.01914734556070956 -0.7125
v 0.22 0.0050000000000000044 -0.65
v 0.2181178695022383 0.029147345560709546 -0.65
v 0.21250368178359502 0.05288152334396634 -0.65
v 0.2032534971524831 0.07579643498754161 -0.65
v 0.1905255888325765 0.09749999999999999 -0.65
v 0.17453773486407173 0.11762086436661333 -0.65
v 0.15556349186104046 0.13581475451951128 -0.65
v 0.13392751438191855 0.15177036795387852 -0.65
v 0.11000000000000003 0.16521469970012115 -0.65
v 0.08419035512031976 0.17591771351458804 -0.65
v 0.05694018992255456 0.18369627786347764 -0.65
v 0.028715762288411377 0.1884172993541549 -0.65
v 1.3471114790620885e-17 0.19 -0.65
v -0.028715762288411304 0.18841729935415494 -0.65
v -0.05694018992255459 0.18369627786347764 -0.65
v -0.08419035512031973 0.17591771351458804 -0.65
v -0.10999999999999995 0.16521469970012118 -0.65
v -0.13392751438191855 0.15177036795387852 -0.65
v -0.15556349186104043 0.1358147545195113 -0.65
v -0.1745377348640717 0.11762086436661337 -0.65
v -0.1905255888325765 0.09749999999999999 -0.65
v -0.2032534971524831 0.07579643498754163 -0.65
v -0.212503681783595 0.05288152334396639 -0.65
v -0.2181178695022383 0.029147345560709546 -0.65
v -0.22 0.005000000000000027 -0.65
v -0.2181178695022383 -0.019147345560709572 -0.65
v -0.21250368178359505 -0.04288152334396626 -0.65
v -0.20325349715248311 -0.06579643498754158 -0.65
v -0.1905255888325765 -0.08750000000000001 -0.65
v -0.1745377348640718 -0.10762086436661325 -0.65
v -0.1555634918610405 -0.12581475451951127 -0.65
v -0.1339275143819186 -0.14177036795387846 -0.65
v -0.1100000000000001 -0.1552146997001211 -0.65
v -0.08419035512031987 -0.165917713514588 -0.65
v -0.05694018992255454 -0.17369627786347763 -0.65
v -0.02871576228841136 -0.1784172993541549 -0.65
v -4.041334437186265e-17 -0.18 -0.65
v 0.02871576228841128 -0.17841729935415493 -0.65
v 0.056940189922554466 -0.17369627786347766 -0.65
v 0.0841903551203198 -0.16591771351458803 -0.65
v 0.11000000000000003 -0.15521469970012114 -0.65
v 0.13392751438191852 -0.1417703679538785 -0.65
v 0.15556349186104043 -0.12581475451951132 -0.65
v 0.17453773486407168 -0.10762086436661336 -0.65
v 0.19052558883257645 -0.08750000000000008 -0.65
v 0.20325349715248303 -0.06579643498754172 -0.65
v 0.21250368178359502 -0.04288152334396632 -0.65
v 0.2181178695022383 -0.01914734556070956 -0.65
v 0.4 0.03 -0.525
v 0.39657794454952416 0.07568416727701804 -0.525
v 0.38637033051562736 0.12058666578588226 -0.525
v 0.36955181300451473 0.16393920132778142 -0.525
v 0.3464101615137755 0.20499999999999996 -0.525
v 0.31734133611649407 0.24306650015305223 -0.525
v 0.28284271247461906 0.2774873734152916 -0.525
v 0.24350457160348826 0.3076736691019323 -0.525
v 0.20000000000000007 0.33310889132455346 -0.525
v 0.15307337294603596 0.35335783637895035 -0.525
v 0.1035276180410083 0.3680740392011739 -0.525
v 0.05221047688802069 0.37700570148083357 -0.525
v 2.4492935982947065e-17 0.38 -0.525
v -0.05221047688802055 0.3770057014808337 -0.525
v -0.10352761804100835 0.3680740392011739 -0.525
v -0.1530733729460359 0.35335783637895035 -0.525
v -0.19999999999999993 0.33310889132455357 -0.525
v -0.24350457160348826 0.3076736691019323 -0.525
v -0.282842712474619 0.2774873734152916 -0.525
v -0.31734133611649407 0.24306650015305228 -0.525
v -0.3464101615137755 0.20499999999999996 -0.525
v -0.36955181300451473 0.16393920132778145 -0.525
v -0.3863703305156273 0.12058666578588235 -0.525
v -0.39657794454952416 0.07568416727701804 -0.525
v -0.4 0.03000000000000004 -0.525
v -0.39657794454952416 -0.015684167277018116 -0.525
v -0.3863703305156274 -0.06058666578588212 -0.525
v -0.3695518130045148 -0.10393920132778137 -0.525
v -0.34641016151377546 -0.14500000000000002 -0.525
v -0.3173413361164942 -0.1830665001530521 -0.525
v -0.28284271247461906 -0.2174873734152916 -0.525
v -0.24350457160348837 -0.2476736691019322 -0.525
v -0.20000000000000018 -0.2731088913245534 -0.525
v -0.15307337294603615 -0.2933578363789503 -0.525
v -0.10352761804100825 -0.30807403920117393 -0.525
v -0.052210476888020656 -0.3170057014808336 -0.525
v -7.347880794884119e-17 -0.31999999999999995 -0.525
v 0.05221047688802051 -0.3170057014808336 -0.525
v 0.10352761804100813 -0.30807403920117393 -0.525
v 0.153073372946036 -0.2933578363789503 -0.525
v 0.20000000000000007 -0.2731088913245535 -0.525
v 0.24350457160348823 -0.2476736691019323 -0.525
v 0.28284271247461895 -0.21748737341529167 -0.525
v 0.317341336116494 -0.1830665001530523 -0.525
v 0.34641016151377535 -0.14500000000000016 -0.525
v 0.3695518130045146 -0.10393920132778162 -0.525
v 0.38637033051562736 -0.06058666578588223 -0.525
v 0.39657794454952416 -0.015684167277018088 -0.525
v 0.54 0.04500000000000001 -0.4
v 0.5353802251418577 0.1069999413045245 -0.4
v 0.521599946196097 0.16793904642369736 -0.4
v 0.49889494755609487 0.22677463037341766 -0.4
v 0.46765371804359696 0.2825 -0.4
v 0.42841080375726703 0.33416167877914227 -0.4
v 0.3818376618407357 0.38087572106361 -0.4
v 0.32873117166470917 0.42184283663833666 -0.4
v 0.2700000000000001 0.4563620667976084 -0.4
v 0.20664905347714851 0.48384277794286124 -0.4
v 0.1397622843553612 0.5038147674873075 -0.4
v 0.07048414379882793 0.51593630915256 -0.4
v 3.306546357697854e-17 0.52 -0.4
v -0.07048414379882775 0.51593630915256 -0.4
v -0.13976228435536125 0.5038147674873075 -0.4
v -0.20664905347714846 0.48384277794286124 -0.4
v -0.2699999999999999 0.4563620667976084 -0.4
v -0.32873117166470917 0.42184283663833666 -0.4
v -0.38183766184073564 0.3808757210636101 -0.4
v -0.428410803757267 0.3341616787791424 -0.4
v -0.46765371804359696 0.2825 -0.4
v -0.49889494755609487 0.2267746303734177 -0.4
v -0.5215999461960968 0.1679390464236975 -0.4
v -0.5353802251418577 0.1069999413045245 -0.4
v -0.54 0.04500000000000007 -0.4
v -0.5353802251418577 -0.016999941304524577 -0.4
v -0.521599946196097 -0.07793904642369714 -0.4
v -0.4988949475560949 -0.13677463037341756 -0.4
v -0.4676537180435969 -0.19250000000000003 -0.4
v -0.42841080375726714 -0.2441616787791421 -0.4
v -0.38183766184073575 -0.29087572106361004 -0.4
v -0.3287311716647093 -0.3318428366383366 -0.4
v -0.27000000000000024 -0.3663620667976083 -0.4
v -0.2066490534771488 -0.39384277794286104 -0.4
v -0.13976228435536114 -0.4138147674873074 -0.4
v -0.07048414379882788 -0.42593630915255987 -0.4
v -9.919639073093561e-17 -0.42999999999999994 -0.4
v 0.07048414379882768 -0.42593630915256 -0.4
v 0.13976228435536098 -0.4138147674873075 -0.4
v 0.20664905347714863 -0.39384277794286116 -0.4
v 0.2700000000000001 -0.3663620667976083 -0.4
v 0.3287311716647091 -0.3318428366383367 -0.4
v 0.3818376618407356 -0.29087572106361015 -0.4
v 0.4284108037572669 -0.24416167877914238 -0.4
v 0.46765371804359673 -0.1925000000000002 -0.4
v 0.49889494755609476 -0.13677463037341792 -0.4
v 0.521599946196097 -0.07793904642369731 -0.4
v 0.5353802251418577 -0.016999941304524535 -0.4
v 0.63 0.04999999999999999 -0.275
v 0.6246102626655006 0.12309466764322888 -0.275
v 0.608533270562113 0.1949386652574116 -0.275
v 0.5820441054821106 0.2643027221244503 -0.275
v 0.5455960043841964 0.32999999999999996 -0.275
v 0.49981260438347813 0.3909064002448836 -0.275
v 0.44547727214752497 0.4459797974644666 -0.275
v 0.38351970027549404 0.49427787056309175 -0.275
v 0.31500000000000006 0.5349742261192856 -0.275
v 0.2410905623900066 0.5673725382063206 -0.275
v 0.16305599841458807 0.5909184627218782 -0.275
v 0.08223150109863257 0.6052091223693339 -0.275
v 3.8576374173141627e-17 0.6100000000000001 -0.275
v -0.08223150109863236 0.6052091223693339 -0.275
v -0.16305599841458815 0.5909184627218782 -0.275
v -0.24109056239000654 0.5673725382063206 -0.275
v -0.31499999999999984 0.5349742261192857 -0.275
v -0.38351970027549404 0.49427787056309175 -0.275
v -0.4454772721475249 0.44597979746446664 -0.275
v -0.4998126043834781 0.3909064002448837 -0.275
v -0.5455960043841964 0.32999999999999996 -0.275
v -0.5820441054821106 0.2643027221244504 -0.275
v -0.6085332705621129 0.19493866525741177 -0.275
v -0.6246102626655006 0.12309466764322888 -0.275
v -0.63 0.05000000000000006 -0.275
v -0.6246102626655006 -0.02309466764322901 -0.275
v -0.6085332705621131 -0.09493866525741143 -0.275
v -0.5820441054821107 -0.1643027221244502 -0.275
v -0.5455960043841963 -0.2300000000000001 -0.275
v -0.4998126043834783 -0.2909064002448834 -0.275
v -0.445477272147525 -0.3459797974644666 -0.275
v -0.38351970027549415 -0.3942778705630916 -0.275
v -0.3150000000000003 -0.4349742261192856 -0.275
v -0.24109056239000692 -0.46737253820632046 -0.275
v -0.163055998414588 -0.4909184627218783 -0.275
v -0.08223150109863253 -0.5052091223693338 -0.275
v -1.1572912251942488e-16 -0.51 -0.275
v 0.0822315010986323 -0.505209122369334 -0.275
v 0.1630559984145878 -0.4909184627218784 -0.275
v 0.2410905623900067 -0.4673725382063206 -0.275
v 0.31500000000000006 -0.43497422611928566 -0.275
v 0.3835197002754939 -0.39427787056309177 -0.275
v 0.44547727214752486 -0.3459797974644668 -0.275
v 0.499812604383478 -0.29090640024488373 -0.275
v 0.5455960043841962 -0.23000000000000026 -0.275
v 0.5820441054821105 -0.16430272212445066 -0.275
v 0.608533270562113 -0.0949386652574116 -0.275
v 0.6246102626655006 -0.023094667643228955 -0.275
v 0.66 0.044999999999999984 -0.15
v 0.6543536085067149 0.12135782244873015 -0.15
v 0.6375110453507851 0.19640914138497462 -0.15
v 0.6097604914574493 0.2688698079335775 -0.15
v 0.5715767664977296 0.3374999999999999 -0.15
v 0.5236132045922153 0.40112543597010153 -0.15
v 0.46669047558312143 0.45865746699413024 -0.15
v 0.4017825431457557 0.5091117040703725 -0.15
v 0.33000000000000007 0.5516248612138965 -0.15
v 0.2525710653609593 0.5854695265191028 -0.15
v 0.1708205697676637 0.6100666083791049 -0.15
v 0.08614728686523414 0.624995243903679 -0.15
v 4.041334437186266e-17 0.6299999999999999 -0.15
v -0.08614728686523392 0.624995243903679 -0.15
v -0.17082056976766377 0.6100666083791049 -0.15
v -0.25257106536095925 0.5854695265191028 -0.15
v -0.32999999999999985 0.5516248612138965 -0.15
v -0.4017825431457557 0.5091117040703725 -0.15
v -0.4666904755831213 0.4586574669941303 -0.15
v -0.5236132045922152 0.4011254359701017 -0.15
v -0.5715767664977296 0.3374999999999999 -0.15
v -0.6097604914574493 0.26886980793357756 -0.15
v -0.6375110453507851 0.19640914138497478 -0.15
v -0.6543536085067149 0.12135782244873015 -0.15
v -0.66 0.045000000000000054 -0.15
v -0.6543536085067149 -0.031357822448730296 -0.15
v -0.6375110453507852 -0.1064091413849744 -0.15
v -0.6097604914574494 -0.17886980793357743 -0.15
v -0.5715767664977295 -0.24750000000000005 -0.15
v -0.5236132045922154 -0.3111254359701014 -0.15
v -0.4666904755831215 -0.36865746699413027 -0.15
v -0.4017825431457558 -0.4191117040703724 -0.15
v -0.3300000000000003 -0.4616248612138965 -0.15
v -0.25257106536095963 -0.49546952651910264 -0.15
v -0.17082056976766363 -0.520066608379105 -0.15
v -0.08614728686523408 -0.5349952439036791 -0.15
v -1.2124003311558797e-16 -0.54 -0.15
v 0.08614728686523385 -0.5349952439036791 -0.15
v 0.1708205697676634 -0.520066608379105 -0.15
v 0.2525710653609594 -0.49546952651910264 -0.15
v 0.33000000000000007 -0.4616248612138965 -0.15
v 0.40178254314575557 -0.41911170407037257 -0.15
v 0.46669047558312127 -0.3686574669941304 -0.15
v 0.523613204592215 -0.3111254359701017 -0.15
v 0.5715767664977294 -0.24750000000000028 -0.15
v 0.6097604914574491 -0.17886980793357787 -0.15
v 0.6375110453507851 -0.10640914138497459 -0.15
v 0.6543536085067149 -0.03135782244873024 -0.15
v 0.62 0.044999999999999984 -0.025
v 0.6146958140517624 0.11613677475992808 -0.025
v 0.5988740122992223 0.18605637958087376 -0.025
v 0.5728053101569978 0.25356247063897386 -0.025
v 0.536935750346352 0.3174999999999999 -0.025
v 0.4918790709805658 0.3767749788097527 -0.025
v 0.43840620433565947 0.4303731957466683 -0.025
v 0.3774320859854068 0.4773775704587231 -0.025
v 0.31000000000000005 0.5169838450625189 -0.025
v 0.2372637280663557 0.5485143452186512 -0.025
v 0.16046780796356286 0.5714295753275422 -0.025
v 0.08092623917643206 0.5853374494487267 -0.025
v 3.796405077356795e-17 0.5899999999999999 -0.025
v -0.08092623917643185 0.5853374494487267 -0.025
v -0.16046780796356291 0.5714295753275422 -0.025
v -0.23726372806635562 0.5485143452186512 -0.025
v -0.3099999999999999 0.516983845062519 -0.025
v -0.3774320859854068 0.4773775704587231 -0.025
v -0.4384062043356594 0.4303731957466684 -0.025
v -0.4918790709805657 0.3767749788097528 -0.025
v -0.536935750346352 0.3174999999999999 -0.025
v -0.5728053101569978 0.25356247063897397 -0.025
v -0.5988740122992223 0.18605637958087393 -0.025
v -0.6146958140517624 0.11613677475992808 -0.025
v -0.62 0.045000000000000054 -0.025
v -0.6146958140517624 -0.02613677475992822 -0.025
v -0.5988740122992224 -0.0960563795808736 -0.025
v -0.5728053101569979 -0.16356247063897383 -0.025
v -0.5369357503463519 -0.22750000000000004 -0.025
v -0.49187907098056594 -0.28677497880975256 -0.025
v -0.4384062043356596 -0.34037319574666836 -0.025
v -0.37743208598540695 -0.387377570458723 -0.025
v -0.3100000000000003 -0.4269838450625189 -0.025
v -0.237263728066356 -0.45851434521865114 -0.025
v -0.16046780796356278 -0.4814295753275422 -0.025
v -0.080926239176432 -0.49533744944872665 -0.025
v -1.1389215232070384e-16 -0.49999999999999994 -0.025
v 0.08092623917643178 -0.49533744944872665 -0.025
v 0.16046780796356258 -0.4814295753275422 -0.025
v 0.2372637280663558 -0.45851434521865114 -0.025
v 0.31000000000000005 -0.42698384506251896 -0.025
v 0.37743208598540673 -0.3873775704587231 -0.025
v 0.43840620433565936 -0.34037319574666847 -0.025
v 0.49187907098056566 -0.28677497880975283 -0.025
v 0.5369357503463518 -0.2275000000000002 -0.025
v 0.5728053101569976 -0.16356247063897425 -0.025
v 0.5988740122992223 -0.09605637958087376 -0.025
v 0.6146958140517624 -0.026136774759928177 -0.025
v 0.51 0.04500000000000001 0.1
v 0.5056368793006433 0.10438941746012348 0.1
v 0.49262217140742487 0.16276266552164692 0.1
v 0.47117856158075627 0.21912096172611584 0.1
v 0.4416729559300637 0.27249999999999996 0.1
v 0.40461020354852995 0.3219864501989679 0.1
v 0.3606244584051393 0.3667335854398791 0.1
v 0.3104683287944475 0.40597576983251193 0.1
v 0.25500000000000006 0.4390415587219195 0.1
v 0.19516855050619583 0.46536518729263543 0.1
v 0.13199771300228558 0.48449625096152604 0.1
v 0.06656835803222637 0.4961074119250837 0.1
v 3.1228493378257505e-17 0.5 0.1
v -0.0665683580322262 0.4961074119250838 0.1
v -0.13199771300228563 0.48449625096152604 0.1
v -0.19516855050619578 0.46536518729263543 0.1
v -0.2549999999999999 0.43904155872191963 0.1
v -0.3104683287944475 0.40597576983251193 0.1
v -0.36062445840513924 0.3667335854398791 0.1
v -0.4046102035485299 0.321986450198968 0.1
v -0.4416729559300637 0.27249999999999996 0.1
v -0.47117856158075627 0.2191209617261159 0.1
v -0.4926221714074248 0.16276266552164706 0.1
v -0.5056368793006433 0.10438941746012348 0.1
v -0.51 0.04500000000000007 0.1
v -0.5056368793006433 -0.014389417460123538 0.1
v -0.4926221714074249 -0.07276266552164674 0.1
v -0.4711785615807563 -0.12912096172611576 0.1
v -0.44167295593006367 -0.18250000000000002 0.1
v -0.40461020354853006 -0.23198645019896771 0.1
v -0.36062445840513935 -0.276733585439879 0.1
v -0.31046832879444763 -0.31597576983251185 0.1
v -0.2550000000000002 -0.34904155872191944 0.1
v -0.19516855050619608 -0.37536518729263535 0.1
v -0.13199771300228552 -0.3944962509615261 0.1
v -0.06656835803222633 -0.4061074119250837 0.1
v -9.368548013477251e-17 -0.4099999999999999 0.1
v 0.06656835803222615 -0.4061074119250837 0.1
v 0.13199771300228536 -0.3944962509615261 0.1
v 0.19516855050619591 -0.37536518729263535 0.1
v 0.25500000000000006 -0.34904155872191955 0.1
v 0.31046832879444747 -0.31597576983251197 0.1
v 0.3606244584051392 -0.27673358543987914 0.1
v 0.40461020354852983 -0.23198645019896794 0.1
v 0.44167295593006356 -0.18250000000000016 0.1
v 0.4711785615807561 -0.1291209617261161 0.1
v 0.49262217140742487 -0.07276266552164688 0.1
v 0.5056368793006433 -0.014389417460123496 0.1
v 0.34 0.034999999999999976 0.225
v 0.33709125286709557 0.07611575054931621 0.225
v 0.32841478093828325 0.11652799920729401 0.225
v 0.31411904105383753 0.15554528119500327 0.225
v 0.29444863728670917 0.19249999999999995 0.225
v 0.26974013569902 0.226759850137747 0.225
v 0.2404163056034262 0.25773863607376246 0.225
v 0.20697888586296503 0.28490630219173907 0.225
v 0.17000000000000004 0.30779800219209813 0.225
v 0.13011236700413056 0.3260220527410553 0.225
v 0.08799847533485705 0.3392666352810565 0.225
v 0.04437890535481759 0.34730513133275026 0.225
v 2.0818995585505005e-17 0.35 0.225
v -0.04437890535481747 0.34730513133275026 0.225
v -0.08799847533485709 0.3392666352810565 0.225
v -0.1301123670041305 0.3260220527410553 0.225
v -0.16999999999999993 0.3077980021920982 0.225
v -0.20697888586296503 0.28490630219173907 0.225
v -0.24041630560342617 0.25773863607376246 0.225
v -0.26974013569901995 0.22675985013774705 0.225
v -0.29444863728670917 0.19249999999999995 0.225
v -0.31411904105383753 0.1555452811950033 0.225
v -0.3284147809382832 0.11652799920729409 0.225
v -0.33709125286709557 0.07611575054931621 0.225
v -0.34 0.03500000000000002 0.225
v -0.33709125286709557 -0.006115750549316332 0.225
v -0.3284147809382833 -0.04652799920729393 0.225
v -0.31411904105383753 -0.08554528119500325 0.225
v -0.29444863728670917 -0.12250000000000005 0.225
v -0.26974013569902006 -0.15675985013774693 0.225
v -0.24041630560342622 -0.18773863607376248 0.225
v -0.20697888586296512 -0.21490630219173903 0.225
v -0.17000000000000015 -0.23779800219209812 0.225
v -0.13011236700413073 -0.2560220527410553 0.225
v -0.08799847533485702 -0.26926663528105654 0.225
v -0.044378905354817554 -0.2773051313327503 0.225
v -6.245698675651501e-17 -0.28 0.225
v 0.044378905354817436 -0.2773051313327503 0.225
v 0.08799847533485691 -0.2692666352810566 0.225
v 0.13011236700413062 -0.25602205274105533 0.225
v 0.17000000000000004 -0.23779800219209818 0.225
v 0.206978885862965 -0.2149063021917391 0.225
v 0.2404163056034261 -0.18773863607376254 0.225
v 0.2697401356990199 -0.1567598501377471 0.225
v 0.29444863728670906 -0.12250000000000016 0.225
v 0.3141190410538374 -0.0855452811950035 0.225
v 0.32841478093828325 -0.046527999207294043 0.225
v 0.33709125286709557 -0.006115750549316304 0.225
v 0.19 0.0050000000000000044 0.35
v 0.18837452366102397 0.025231559794108 0.35
v 0.183525906994923 0.04511695199089072 0.35
v 0.1755371111771445 0.06431593201658892 0.35
v 0.16454482671904336 0.08249999999999999 0.35
v 0.15073713465533467 0.0993580214963517 0.35
v 0.13435028842544405 0.11460155108391486 0.35
v 0.11566467151165692 0.12796976774514146 0.35
v 0.09500000000000003 0.13923393758658797 0.35
v 0.07270985214936707 0.14820132753924944 0.35
v 0.04917561856947894 0.15471850307480559 0.35
v 0.024799976521809826 0.1586739535129406 0.35
v 1.1634144591899856e-17 0.16 0.35
v -0.024799976521809763 0.15867395351294064 0.35
v -0.04917561856947896 0.15471850307480559 0.35
v -0.07270985214936705 0.14820132753924944 0.35
v -0.09499999999999996 0.139233937586588 0.35
v -0.11566467151165692 0.12796976774514146 0.35
v -0.13435028842544403 0.11460155108391487 0.35
v -0.15073713465533467 0.09935802149635174 0.35
v -0.16454482671904336 0.08249999999999999 0.35
v -0.1755371111771445 0.06431593201658894 0.35
v -0.18352590699492297 0.04511695199089076 0.35
v -0.18837452366102397 0.025231559794108 0.35
v -0.19 0.0050000000000000235 0.35
v -0.18837452366102397 -0.015231559794108021 0.35
v -0.183525906994923 -0.03511695199089065 0.35
v -0.17553711117714452 -0.05431593201658889 0.35
v -0.16454482671904333 -0.07250000000000001 0.35
v -0.15073713465533473 -0.08935802149635165 0.35
v -0.13435028842544405 -0.10460155108391485 0.35
v -0.11566467151165696 -0.11796976774514141 0.35
v -0.09500000000000008 -0.12923393758658797 0.35
v -0.07270985214936716 -0.1382013275392494 0.35
v -0.04917561856947892 -0.14471850307480558 0.35
v -0.02479997652180981 -0.1486739535129406 0.35
v -3.490243377569956e-17 -0.15 0.35
v 0.024799976521809743 -0.14867395351294063 0.35
v 0.04917561856947886 -0.1447185030748056 0.35
v 0.07270985214936711 -0.13820132753924944 0.35
v 0.09500000000000003 -0.12923393758658797 0.35
v 0.11566467151165691 -0.11796976774514145 0.35
v 0.134350288425444 -0.10460155108391489 0.35
v 0.15073713465533464 -0.08935802149635173 0.35
v 0.1645448267190433 -0.07250000000000006 0.35
v 0.17553711117714443 -0.054315932016589005 0.35
v 0.183525906994923 -0.0351169519908907 0.35
v 0.18837452366102397 -0.015231559794108007 0.35
v 0.19 0.0050000000000000044 0.4125
v 0.18837452366102397 0.025231559794108 0.4125
v 0.183525906994923 0.04511695199089072 0.4125
v 0.1755371111771445 0.06431593201658892 0.4125
v 0.16454482671904336 0.08249999999999999 0.4125
v 0.15073713465533467 0.0993580214963517 0.4125
v 0.13435028842544405 0.11460155108391486 0.4125
v 0.11566467151165692 0.12796976774514146 0.4125
v 0.09500000000000003 0.13923393758658797 0.4125
v 0.07270985214936707 0.14820132753924944 0.4125
v 0.04917561856947894 0.15471850307480559 0.4125
v 0.024799976521809826 0.1586739535129406 0.4125
v 1.1634144591899856e-17 0.16 0.4125
v -0.024799976521809763 0.15867395351294064 0.4125
v -0.04917561856947896 0.15471850307480559 0.4125
v -0.07270985214936705 0.14820132753924944 0.4125
v -0.09499999999999996 0.139233937586588 0.4125
v -0.11566467151165692 0.12796976774514146 0.4125
v -0.13435028842544403 0.11460155108391487 0.4125
v -0.15073713465533467 0.09935802149635174 0.4125
v -0.16454482671904336 0.08249999999999999 0.4125
v -0.1755371111771445 0.06431593201658894 0.4125
v -0.18352590699492297 0.04511695199089076 0.4125
v -0.18837452366102397 0.025231559794108 0.4125
v -0.19 0.0050000000000000235 0.4125
v -0.18837452366102397 -0.015231559794108021 0.4125
v -0.183525906994923 -0.03511695199089065 0.4125
v -0.17553711117714452 -0.05431593201658889 0.4125
v -0.16454482671904333 -0.07250000000000001 0.4125
v -0.15073713465533473 -0.08935802149635165 0.4125
v -0.13435028842544405 -0.10460155108391485 0.4125
v -0.11566467151165696 -0.11796976774514141 0.4125
v -0.09500000000000008 -0.12923393758658797 0.4125
v -0.07270985214936716 -0.1382013275392494 0.4125
v -0.04917561856947892 -0.14471850307480558 0.4125
v -0.02479997652180981 -0.1486739535129406 0.4125
v -3.490243377569956e-17 -0.15 0.4125
v 0.024799976521809743 -0.14867395351294063 0.4125
v 0.04917561856947886 -0.1447185030748056 0.4125
v 0.07270985214936711 -0.13820132753924944 0.4125
v 0.09500000000000003 -0.12923393758658797 0.4125
v 0.11566467151165691 -0.11796976774514145 0.4125
v 0.134350288425444 -0.10460155108391489 0.4125
v 0.15073713465533464 -0.08935802149635173 0.4125
v 0.1645448267190433 -0.07250000000000006 0.4125
v 0.17553711117714443 -0.054315932016589005 0.4125
v 0.183525906994923 -0.0351169519908907 0.4125
v 0.18837452366102397 -0.015231559794108007 0.4125
v 0 0.0050000000000000044 -0.7125
v 0 0.0050000000000000044 0.4125
f 1 49 50
f 1 50 2
f 2 50 51
f 2 51 3
f 3 51 52
f 3 52 4
f 4 52 53
f 4 53 5
f 5 53 54
f 5 54 6
f 6 54 55
f 6 55 7
f 7 55 56
f 7 56 8
f 8 56 57
f 8 57 9
f 9 57 58
f 9 58 10
f 10 58 59
f 10 59 11
f 11 59 60
f 11 60 12
f 12 60 61
f 12 61 13
f 13 61 62
f 13 62 14
f 14 62 63
f 14 63 15
f 15 63 64
f 15 64 16
f 16 64 65
f 16 65 17
f 17 65 66
f 17 66 18
f 18 66 67
f 18 67 19
f 19 67 68
f 19 68 20
f 20 68 69
f 20 69 21
f 21 69 70
f 21 70 22
f 22 70 71
f 22 71 23
f 23 71 72
f 23 72 24
f 24 72 73
f 24 73 25
f 25 73 74
f 25 74 26
f 26 74 75
f 26 75 27
f 27 75 76
f 27 76 28
f 28 76 77
f 28 77 29
f 29 77 78
f 29 78 30
f 30 78 79
f 30 79 31
f 31 79 80
f 31 80 32
f 32 80 81
f 32 81 33
f 33 81 82
f 33 82 34
f 34 82 83
f 34 83 35
f 35 83 84
f 35 84 36
f 36 84 85
f 36 85 37
f 37 85 86
f 37 86 38
f 38 86 87
f 38 87 39
f 39 87 88
f 39 88 40
f 40 88 89
f 40 89 41
f 41 89 90
f 41 90 42
f 42 90 91
f 42 91 43
f 43 91 92
f 43 92 44
f 44 92 93
f 44 93 45
f 45 93 94
f 45 94 46
f 46 94 95
f 46 95 47
f 47 95 96
f 47 96 48
f 48 96 49
f 48 49 1
f 49 97 98
f 49 98 50
f 50 98 99
f 50 99 51
f 51 99 100
f 51 100 52
f 52 100 101
f 52 101 53
f 53 101 102
f 53 102 54
f 54 102 103
f 54 103 55
f 55 103 104
f 55 104 56
f 56 104 105
f 56 105 57
f 57 105 106
f 57 106 58
f 58 106 107
f 58 107 59
f 59 107 108
f 59 108 60
f 60 108 109
f 60 109 61
f 61 109 110
f 61 110 62
f 62 110 111
f 62 111 63
f 63 111 112
f 63 112 64
f 64 112 113
f 64 113 65
f 65 113 114
f 65 114 66
f 66 114 115
f 66 115 67
f 67 115 116
f 67 116 68
f 68 116 117
f 68 117 69
f 69 117 118
f 69 118 70
f 70 118 119
f 70 119 71
f 71 119 120
f 71 120 72
f 72 120 121
f 72 121 73
f 73 121 122
f 73 122 74
f 74 122 123
f 74 123 75
f 75 123 124
f 75 124 76
f 76 124 125
f 76 125 77
f 77 125 126
f 77 126 78
f 78 126 127
f 78 127 79
f 79 127 128
f 79 128 80
f 80 128 129
f 80 129 81
f 81 129 130
f 81 130 82
f 82 130 131
f 82 131 83
f 83 131 132
f 83 132 84
f 84 132 133
f 84 133 85
f 85 133 134
f 85 134 86
f 86 134 135
f 86 135 87
f 87 135 136
f 87 136 88
f 88 136 137
f 88 137 89
f 89 137 138
f 89 138 90
f 90 138 139
f 90 139 91
f 91 139 140
f 91 140 92
f 92 140 141
f 92 141 93
f 93 141 142
f 93 142 94
f 94 142 143
f 94 143 95
f 95 143 144
f 95 144 96
f 96 144 97
f 96 97 49
f 97 145 146
f 97 146 98
f 98 146 147
f 98 147 99
f 99 147 148
f 99 148 100
f 100 148 149
f 100 149 101
f 101 149 150
f 101 150 102
f 102 150 151
f 102 151 103
f 103 151 152
f 103 152 104
f 104 152 153
f 104 153 105
f 105 153 154
f 105 154 106
f 106 154 155
f 106 155 107
f 107 155 156
f 107 156 108
f 108 156 157
f 108 157 109
f 109 157 158
f 109 158 110
f 110 158 159
f 110 159 111
f 111 159 160
f 111 160 112
f 112 160 161
f 112 161 113
f 113 161 162
f 113 162 114
f 114 162 163
f 114 163 115
f 115 163 164
f 115 164 116
f 116 164 165
f 116 165 117
f 117 165 166
f 117 166 118
f 118 166 167
f 118 167 119
f 119 167 168
f 119 168 120
f 120 168 169
f 120 169 121
f 121 169 170
f 121 170 122
f 122 170 171
f 122 171 123
f 123 171 172
f 123 172 124
f 124 172 173
f 124 173 125
f 125 173 174
f 125 174 126
f 126 174 175
f 126 175 127
f 127 175 176
f 127 176 128
f 128 176 177
f 128 177 129
f 129 177 178
f 129 178 130
f 130 178 179
f 130 179 131
f 131 179 180
f 131 180 132
f 132 180 181
f 132 181 133
f 133 181 182
f 133 182 134
f 134 182 183
f 134 183 135
f 135 183 184
f 135 184 136
f 136 184 185
f 136 185 137
f 137 185 186
f 137 186 138
f 138 186 187
f 138 187 139
f 139 187 188
f 139 188 140
f 140 188 189
f 140 189 141
f 141 189 190
f 141 190 142
f 142 190 191
f 142 191 143
f 143 191 192
f 143 192 144
f 144 192 145
f 144 145 97
f 145 193 194
f 145 194 146
f 146 194 195
f 146 195 147
f 147 195 196
f 147 196 148
f 148 196 197
f 148 197 149
f 149 197 198
f 149 198 150
f 150 198 199
f 150 199 151
f 151 199 200
f 151 200 152
f 152 200 201
f 152 201 153
f 153 201 202
f 153 202 154
f 154 202 203
f 154 203 155
f 155 203 204
f 155 204 156
f 156 204 205
f 156 205 157
f 157 205 206
f 157 206 158
f 158 206 207
f 158 207 159
f 159 207 208
f 159 208 160
f 160 208 209
f 160 209 161
f 161 209 210
f 161 210 162
f 162 210 211
f 162 211 163
f 163 211 212
f 163 212 164
f 164 212 213
f 164 213 165
f 165 213 214
f 165 214 166
f 166 214 215
f 166 215 167
f 167 215 216
f 167 216 168
f 168 216 217
f 168 217 169
f 169 217 218
f 169 218 170
f 170 218 219
f 170 219 171
f 171 219 220
f 171 220 172
f 172 220 221
f 172 221 173
f 173 221 222
f 173 222 174
f 174 222 223
f 174 223 175
f 175 223 224
f 175 224 176
f 176 224 225
f 176 225 177
f 177 225 226
f 177 226 178
f 178 226 227
f 178 227 179
f 179 227 228
f 179 228 180
f 180 228 229
f 180 229 181
f 181 229 230
f 181 230 182
f 182 230 231
f 182 231 183
f 183 231 232
f 183 232 184
f 184 232 233
f 184 233 185
f 185 233 234
f 185 234 186
f 186 234 235
f 186 235 187
f 187 235 236
f 187 236 188
f 188 236 237
f 188 237 189
f 189 237 238
f 189 238 190
f 190 238 239
f 190 239 191
f 191 239 240
f 191 240 192
f 192 240 193
f 192 193 145
f 193 241 242
f 193 242 194
f 194 242 243
f 194 243 195
f 195 243 244
f 195 244 196
f 196 244 245
f 196 245 197
f 197 245 246
f 197 246 198
f 198 246 247
f 198 247 199
f 199 247 248
f 199 248 200
f 200 248 249
f 200 249 201
f 201 249 250
f 201 250 202
f 202 250 251
f 202 251 203
f 203 251 252
f 203 252 204
f 204 252 253
f 204 253 205
f 205 253 254
f 205 254 206
f 206 254 255
f 206 255 207
f 207 255 256
f 207 256 208
f 208 256 257
f 208 257 209
f 209 257 258
f 209 258 210
f 210 258 259
f 210 259 211
f 211 259 260
f 211 260 212
f 212 260 261
f 212 261 213
f 213 261 262
f 213 262 214
f 214 262 263
f 214 263 215
f 215 263 264
f 215 264 216
f 216 264 265
f 216 265 217
f 217 265 266
f 217 266 218
f 218 266 267
f 218 267 219
f 219 267 268
f 219 268 220
f 220 268 269
f 220 269 221
f 221 269 270
f 221 270 222
f 222 270 271
f 222 271 223
f 223 271 272
f 223 272 224
f 224 272 273
f 224 273 225
f 225 273 274
f 225 274 226
f 226 274 275
f 226 275 227
f 227 275 276
f 227 276 228
f 228 276 277
f 228 277 229
f 229 277 278
f 229 278 230
f 230 278 279
f 230 279 231
f 231 279 280
f 231 280 232
f 232 280 281
f 232 281 233
f 233 281 282
f 233 282 234
f 234 282 283
f 234 283 235
f 235 283 284
f 235 284 236
f 236 284 285
f 236 285 237
f 237 285 286
f 237 286 238
f 238 286 287
f 238 287 239
f 239 287 288
f 239 288 240
f 240 288 241
f 240 241 193
f 241 289 290
f 241 290 242
f 242 290 291
f 242 291 243
f 243 291 292
f 243 292 244
f 244 292 293
f 244 293 245
f 245 293 294
f 245 294 246
f 246 294 295
f 246 295 247
f 247 295 296
f 247 296 248
f 248 296 297
f 248 297 249
f 249 297 298
f 249 298 250
f 250 298 299
f 250 299 251
f 251 299 300
f 251 300 252
f 252 300 301
f 252 301 253
f 253 301 302
f 253 302 254
f 254 302 303
f 254 303 255
f 255 303 304
f 255 304 256
f 256 304 305
f 256 305 257
f 257 305 306
f 257 306 258
f 258 306 307
f 258 307 259
f 259 307 308
f 259 308 260
f 260 308 309
f 260 309 261
f 261 309 310
f 261 310 262
f 262 310 311
f 262 311 263
f 263 311 312
f 263 312 264
f 264 312 313
f 264 313 265
f 265 313 314
f 265 314 266
f 266 314 315
f 266 315 267
f 267 315 316
f 267 316 268
f 268 316 317
f 268 317 269
f 269 317 318
f 269 318 270
f 270 318 319
f 270 319 271
f 271 319 320
f 271 320 272
f 272 320 321
f 272 321 273
f 273 321 322
f 273 322 274
f 274 322 323
f 274 323 275
f 275 323 324
f 275 324 276
f 276 324 325
f 276 325 277
f 277 325 326
f 277 326 278
f 278 326 327
f 278 327 279
f 279 327 328
f 279 328 280
f 280 328 329
f 280 329 281
f 281 329 330
f 281 330 282
f 282 330 331
f 282 331 283
f 283 331 332
f 283 332 284
f 284 332 333
f 284 333 285
f 285 333 334
f 285 334 286
f 286 334 335
f 286 335 287
f 287 335 336
f 287 336 288
f 288 336 289
f 288 289 241
f 289 337 338
f 289 338 290
f 290 338 339
f 290 339 291
f 291 339 340
f 291 340 292
f 292 340 341
f 292 341 293
f 293 341 342
f 293 342 294
f 294 342 343
f 294 343 295
f 295 343 344
f 295 344 296
f 296 344 345
f 296 345 297
f 297 345 346
f 297 346 298
f 298 346 347
f 298 347 299
f 299 347 348
f 299 348 300
f 300 348 349
f 300 349 301
f 301 349 350
f 301 350 302
f 302 350 351
f 302 351 303
f 303 351 352
f 303 352 304
f 304 352 353
f 304 353 305
f 305 353 354
f 305 354 306
f 306 354 355
f 306 355 307
f 307 355 356
f 307 356 308
f 308 356 357
f 308 357 309
f 309 357 358
f 309 358 310
f 310 358 359
f 310 359 311
f 311 359 360
f 311 360 312
f 312 360 361
f 312 361 313
f 313 361 362
f 313 362 314
f 314 362 363
f 314 363 315
f 315 363 364
f 315 364 316
f 316 364 365
f 316 365 317
f 317 365 366
f 317 366 318
f 318 366 367
f 318 367 319
f 319 367 368
f 319 368 320
f 320 368 369
f 320 369 321
f 321 369 370
f 321 370 322
f 322 370 371
f 322 371 323
f 323 371 372
f 323 372 324
f 324 372 373
f 324 373 325
f 325 373 374
f 325 374 326
f 326 374 375
f 326 375 327
f 327 375 376
f 327 376 328
f 328 376 377
f 328 377 329
f 329 377 378
f 329 378 330
f 330 378 379
f 330 379 331
f 331 379 380
f 331 380 332
f 332 380 381
f 332 381 333
f 333 381 382
f 333 382 334
f 334 382 383
f 334 383 335
f 335 383 384
f 335 384 336
f 336 384 337
f 336 337 289
f 337 385 386
f 337 386 338
f 338 386 387
f 338 387 339
f 339 387 388
f 339 388 340
f 340 388 389
f 340 389 341
f 341 389 390
f 341 390 342
f 342 390 391
f 342 391 343
f 343 391 392
f 343 392 344
f 344 392 393
f 344 393 345
f 345 393 394
f 345 394 346
f 346 394 395
f 346 395 347
f 347 395 396
f 347 396 348
f 348 396 397
f 348 397 349
f 349 397 398
f 349 398 350
f 350 398 399
f 350 399 351
f 351 399 400
f 351 400 352
f 352 400 401
f 352 401 353
f 353 401 402
f 353 402 354
f 354 402 403
f 354 403 355
f 355 403 404
f 355 404 356
f 356 404 405
f 356 405 357
f 357 405 406
f 357 406 358
f 358 406 407
f 358 407 359
f 359 407 408
f 359 408 360
f 360 408 409
f 360 409 361
f 361 409 410
f 361 410 362
f 362 410 411
f 362 411 363
f 363 411 412
f 363 412 364
f 364 412 413
f 364 413 365
f 365 413 414
f 365 414 366
f 366 414 415
f 366 415 367
f 367 415 416
f 367 416 368
f 368 416 417
f 368 417 369
f 369 417 418
f 369 418 370
f 370 418 419
f 370 419 371
f 371 419 420
f 371 420 372
f 372 420 421
f 372 421 373
f 373 421 422
f 373 422 374
f 374 422 423
f 374 423 375
f 375 423 424
f 375 424 376
f 376 424 425
f 376 425 377
f 377 425 426
f 377 426 378
f 378 426 427
f 378 427 379
f 379 427 428
f 379 428 380
f 380 428 429
f 380 429 381
f 381 429 430
f 381 430 382
f 382 430 431
f 382 431 383
f 383 431 432
f 383 432 384
f 384 432 385
f 384 385 337
f 385 433 434
f 385 434 386
f 386 434 435
f 386 435 387
f 387 435 436
f 387 436 388
f 388 436 437
f 388 437 389
f 389 437 438
f 389 438 390
f 390 438 439
f 390 439 391
f 391 439 440
f 391 440 392
f 392 440 441
f 392 441 393
f 393 441 442
f 393 442 394
f 394 442 443
f 394 443 395
f 395 443 444
f 395 444 396
f 396 444 445
f 396 445 397
f 397 445 446
f 397 446 398
f 398 446 447
f 398 447 399
f 399 447 448
f 399 448 400
f 400 448 449
f 400 449 401
f 401 449 450
f 401 450 402
f 402 450 451
f 402 451 403
f 403 451 452
f 403 452 404
f 404 452 453
f 404 453 405
f 405 453 454
f 405 454 406
f 406 454 455
f 406 455 407
f 407 455 456
f 407 456 408
f 408 456 457
f 408 457 409
f 409 457 458
f 409 458 410
f 410 458 459
f 410 459 411
f 411 459 460
f 411 460 412
f 412 460 461
f 412 461 413
f 413 461 462
f 413 462 414
f 414 462 463
f 414 463 415
f 415 463 464
f 415 464 416
f 416 464 465
f 416 465 417
f 417 465 466
f 417 466 418
f 418 466 467
f 418 467 419
f 419 467 468
f 419 468 420
f 420 468 469
f 420 469 421
f 421 469 470
f 421 470 422
f 422 470 471
f 422 471 423
f 423 471 472
f 423 472 424
f 424 472 473
f 424 473 425
f 425 473 474
f 425 474 426
f 426 474 475
f 426 475 427
f 427 475 476
f 427 476 428
f 428 476 477
f 428 477 429
f 429 477 478
f 429 478 430
f 430 478 479
f 430 479 431
f 431 479 480
f 431 480 432
f 432 480 433
f 432 433 385
f 433 481 482
f 433 482 434
f 434 482 483
f 434 483 435
f 435 483 484
f 435 484 436
f 436 484 485
f 436 485 437
f 437 485 486
f 437 486 438
f 438 486 487
f 438 487 439
f 439 487 488
f 439 488 440
f 440 488 489
f 440 489 441
f 441 489 490
f 441 490 442
f 442 490 491
f 442 491 443
f 443 491 492
f 443 492 444
f 444 492 493
f 444 493 445
f 445 493 494
f 445 494 446
f 446 494 495
f 446 495 447
f 447 495 496
f 447 496 448
f 448 496 497
f 448 497 449
f 449 497 498
f 449 498 450
f 450 498 499
f 450 499 451
f 451 499 500
f 451 500 452
f 452 500 501
f 452 501 453
f 453 501 502
f 453 502 454
f 454 502 503
f 454 503 455
f 455 503 504
f 455 504 456
f 456 504 505
f 456 505 457
f 457 505 506
f 457 506 458
f 458 506 507
f 458 507 459
f 459 507 508
f 459 508 460
f 460 508 509
f 460 509 461
f 461 509 510
f 461 510 462
f 462 510 511
f 462 511 463
f 463 511 512
f 463 512 464
f 464 512 513
f 464 513 465
f 465 513 514
f 465 514 466
f 466 514 515
f 466 515 467
f 467 515 516
f 467 516 468
f 468 516 517
f 468 517 469
f 469 517 518
f 469 518 470
f 470 518 519
f 470 519 471
f 471 519 520
f 471 520 472
f 472 520 521
f 472 521 473
f 473 521 522
f 473 522 474
f 474 522 523
f 474 523 475
f 475 523 524
f 475 524 476
f 476 524 525
f 476 525 477
f 477 525 526
f 477 526 478
f 478 526 527
f 478 527 479
f 479 527 528
f 479 528 480
f 480 528 481
f 480 481 433
f 529 2 1
f 530 481 482
f 529 3 2
f 530 482 483
f 529 4 3
f 530 483 484
f 529 5 4
f 530 484 485
f 529 6 5
f 530 485 486
f 529 7 6
f 530 486 487
f 529 8 7
f 530 487 488
f 529 9 8
f 530 488 489
f 529 10 9
f 530 489 490
f 529 11 10
f 530 490 491
f 529 12 11
f 530 491 492
f 529 13 12
f 530 492 493
f 529 14 13
f 530 493 494
f 529 15 14
f 530 494 495
f 529 16 15
f 530 495 496
f 529 17 16
f 530 496 497
f 529 18 17
f 530 497 498
f 529 19 18
f 530 498 499
f 529 20 19
f 530 499 500
f 529 21 20
f 530 500 501
f 529 22 21
f 530 501 502
f 529 23 22
f 530 502 503
f 529 24 23
f 530 503 504
f 529 25 24
f 530 504 505
f 529 26 25
f 530 505 506
f 529 27 26
f 530 506 507
f 529 28 27
f 530 507 508
f 529 29 28
f 530 508 509
f 529 30 29
f 530 509 510
f 529 31 30
f 530 510 511
f 529 32 31
f 530 511 512
f 529 33 32
f 530 512 513
f 529 34 33
f 530 513 514
f 529 35 34
f 530 514 515
f 529 36 35
f 530 515 516
f 529 37 36
f 530 516 517
f 529 38 37
f 530 517 518
f 529 39 38
f 530 518 519
f 529 40 39
f 530 519 520
f 529 41 40
f 530 520 521
f 529 42 41
f 530 521 522
f 529 43 42
f 530 522 523
f 529 44 43
f 530 523 524
f 529 45 44
f 530 524 525
f 529 46 45
f 530 525 526
f 529 47 46
f 530 526 527
f 529 48 47
f 530 527 528
f 529 1 48
f 530 528 481
