o fat-distribution_0.25
v 0.25 -0.0024999999999999814 -0.7125
v 0.24786121534345262 0.024584184885660724 -0.7125
v 0.24148145657226705 0.05120495185877308 -0.7125
v 0.23096988312782168 0.07690681221575615 -0.7125
v 0.21650635094610962 0.10125 -0.7125
v 0.1983383350728088 0.12381799651930958 -0.7125
v 0.17677669529663687 0.14422465709620863 -0.7125
v 0.15219035725218016 0.1621208181104314 -0.7125
v 0.12500000000000003 0.17720027128527102 -0.7125
v 0.09567085809127243 0.189205002996092 -0.7125
v 0.06470476127563018 0.19792960895498174 -0.7125
v 0.03263154805501292 0.20322480873506563 -0.7125
v 1.5308084989341912e-17 0.20500000000000002 -0.7125
v -0.032631548055012845 0.2032248087350657 -0.7125
v -0.06470476127563021 0.19792960895498174 -0.7125
v -0.0956708580912724 0.189205002996092 -0.7125
v -0.12499999999999992 0.1772002712852711 -0.7125
v -0.15219035725218016 0.1621208181104314 -0.7125
v -0.1767766952966368 0.14422465709620869 -0.7125
v -0.1983383350728087 0.12381799651930961 -0.7125
v -0.21650635094610962 0.10125 -0.7125
v -0.23096988312782168 0.07690681221575615 -0.7125
v -0.241481456572267 0.051204951858773134 -0.7125
v -0.24786121534345262 0.024584184885660724 -0.7125
v -0.25 -0.002499999999999957 -0.7125
v -0.24786121534345262 -0.029584184885660728 -0.7125
v -0.24148145657226705 -0.056204951858772965 -0.7125
v -0.23096988312782168 -0.0819068122157561 -0.7125
v -0.21650635094610965 -0.10625000000000001 -0.7125
v -0.19833833507280885 -0.12881799651930945 -0.7125
v -0.17677669529663692 -0.14922465709620858 -0.7125
v -0.15219035725218022 -0.16712081811043125 -0.7125
v -0.1250000000000001 -0.18220027128527094 -0.7125
v -0.09567085809127257 -0.194205002996092 -0.7125
v -0.06470476127563016 -0.20292960895498166 -0.7125
v -0.03263154805501291 -0.20822480873506563 -0.7125
v -4.592425496802574e-17 -0.21000000000000002 -0.7125
v 0.03263154805501282 -0.20822480873506571 -0.7125
v 0.06470476127563007 -0.20292960895498174 -0.7125
v 0.0956708580912725 -0.194205002996092 -0.7125
v 0.12500000000000003 -0.18220027128527103 -0.7125
v 0.15219035725218014 -0.1671208181104313 -0.7125
v 0.17677669529663687 -0.14922465709620866 -0.7125
v 0.19833833507280868 -0.12881799651930959 -0.7125
v 0.2165063509461096 -0.1062500000000001 -0.7125
v 0.23096988312782163 -0.08190681221575624 -0.7125
v 0.24148145657226705 -0.05620495185877302 -0.7125
v 0.24786121534345262 -0.029584184885660714 -0.7125
v 0.25 -0.0024999999999999814 -0.65
v 0.24786121534345262 0.024584184885660724 -0.65
v 0.24148145657226705 0.05120495185877308 -0.65
v 0.23096988312782168 0.07690681221575615 -0.65
v 0.21650635094610962 0.10125 -0.65
v 0.1983383350728088 0.12381799651930958 -0.65
v 0.17677669529663687 0.14422465709620863 -0.65
v 0.15219035725218016 0.1621208181104314 -0.65
v 0.12500000000000003 0.17720027128527102 -0.65
v 0.09567085809127243 0.189205002996092 -0.65
v 0.06470476127563018 0.19792960895498174 -0.65
v 0.03263154805501292 0.20322480873506563 -0.65
v 1.5308084989341912e-17 0.20500000000000002 -0.65
v -0.032631548055012845 0.2032248087350657 -0.65
v -0.06470476127563021 0.19792960895498174 -0.65
v -0.0956708580912724 0.189205002996092 -0.65
v -0.12499999999999992 0.1772002712852711 -0.65
v -0.15219035725218016 0.1621208181104314 -0.65
v -0.1767766952966368 0.14422465709620869 -0.65
v -0.1983383350728087 0.12381799651930961 -0.65
v -0.21650635094610962 0.10125 -0.65
v -0.23096988312782168 0.07690681221575615 -0.65
v -0.241481456572267 0.051204951858773134 -0.65
v -0.24786121534345262 0.024584184885660724 -0.65
v -0.25 -0.002499999999999957 -0.65
v -0.24786121534345262 -0.029584184885660728 -0.65
v -0.24148145657226705 -0.056204951858772965 -0.65
v -0.23096988312782168 -0.0819068122157561 -0.65
v -0.21650635094610965 -0.10625000000000001 -0.65
v -0.19833833507280885 -0.12881799651930945 -0.65
v -0.17677669529663692 -0.14922465709620858 -0.65
v -0.15219035725218022 -0.16712081811043125 -0.65
v -0.1250000000000001 -0.18220027128527094 -0.65
v -0.09567085809127257 -0.194205002996092 -0.65
v -0.06470476127563016 -0.20292960895498166 -0.65
v -0.03263154805501291 -0.20822480873506563 -0.65
v -4.592425496802574e-17 -0.21000000000000002 -0.65
v 0.03263154805501282 -0.20822480873506571 -0.65
v 0.06470476127563007 -0.20292960895498174 -0.65
v 0.0956708580912725 -0.194205002996092 -0.65
v 0.12500000000000003 -0.18220027128527103 -0.65
v 0.15219035725218014 -0.1671208181104313 -0.65
v 0.17677669529663687 -0.14922465709620866 -0.65
v 0.19833833507280868 -0.12881799651930959 -0.65
v 0.2165063509461096 -0.1062500000000001 -0.65
v 0.23096988312782163 -0.08190681221575624 -0.65
v 0.24148145657226705 -0.05620495185877302 -0.65
v 0.24786121534345262 -0.029584184885660714 -0.65
v 0.4600000000000001 0.022499999999999992 -0.525
v 0.4560646362319528 0.07307889948526998 -0.525
v 0.4443258800929716 0.1227923799772268 -0.525
v 0.424984584955192 0.1707898300414723 -0.525
v 0.3983716857408419 0.21624999999999997 -0.525
v 0.36494253653396813 0.2583950537408793 -0.525
v 0.32526911934581204 0.29650387770978726 -0.525
v 0.28003025734401155 0.32992441936285355 -0.525
v 0.23000000000000015 0.3580848439664699 -0.525
v 0.17603437888794138 0.3805033188481236 -0.525
v 0.11905676074715954 0.3967962576870139 -0.525
v 0.060042048421223806 0.4066848837823514 -0.525
v 2.816687638038912e-17 0.41000000000000003 -0.525
v -0.06004204842122364 0.4066848837823517 -0.525
v -0.11905676074715962 0.3967962576870139 -0.525
v -0.1760343788879413 0.3805033188481236 -0.525
v -0.22999999999999995 0.35808484396647017 -0.525
v -0.28003025734401155 0.32992441936285355 -0.525
v -0.3252691193458119 0.2965038777097871 -0.525
v -0.36494253653396824 0.2583950537408793 -0.525
v -0.3983716857408419 0.21624999999999997 -0.525
v -0.424984584955192 0.1707898300414723 -0.525
v -0.4443258800929714 0.12279237997722689 -0.525
v -0.4560646362319528 0.07307889948526998 -0.525
v -0.4600000000000001 0.022500000000000034 -0.525
v -0.4560646362319528 -0.028078899485270065 -0.525
v -0.4443258800929716 -0.07779237997722666 -0.525
v -0.4249845849551921 -0.12578983004147226 -0.525
v -0.39837168574084186 -0.17125000000000004 -0.525
v -0.36494253653396835 -0.21339505374087914 -0.525
v -0.32526911934581193 -0.25150387770978716 -0.525
v -0.28003025734401166 -0.2849244193628535 -0.525
v -0.2300000000000002 -0.3130848439664698 -0.525
v -0.1760343788879416 -0.33550331884812357 -0.525
v -0.1190567607471595 -0.3517962576870141 -0.525
v -0.060042048421223765 -0.36168488378235164 -0.525
v -8.450062914116738e-17 -0.365 -0.525
v 0.0600420484212236 -0.3616848837823515 -0.525
v 0.11905676074715937 -0.3517962576870141 -0.525
v 0.17603437888794143 -0.33550331884812357 -0.525
v 0.23000000000000015 -0.31308484396647 -0.525
v 0.2800302573440115 -0.2849244193628537 -0.525
v 0.3252691193458118 -0.2515038777097872 -0.525
v 0.3649425365339682 -0.2133950537408793 -0.525
v 0.3983716857408417 -0.17125000000000024 -0.525
v 0.42498458495519187 -0.1257898300414725 -0.525
v 0.4443258800929716 -0.07779237997722677 -0.525
v 0.4560646362319528 -0.028078899485270037 -0.525
v 0.6300000000000001 0.03000000000000004 -0.4
v 0.6246102626655008 0.09787361995442684 -0.4
v 0.6085332705621131 0.1645859034533108 -0.4
v 0.5820441054821107 0.22899538482984672 -0.4
v 0.5455960043841965 0.29 -0.4
v 0.4998126043834783 0.34655594308453463 -0.4
v 0.44547727214752497 0.3976955262170046 -0.4
v 0.3835197002754941 0.4425437369514422 -0.4
v 0.3150000000000001 0.4803332099679082 -0.4
v 0.2410905623900066 0.5104173569058692 -0.4
v 0.16305599841458807 0.5322814296703156 -0.4
v 0.08223150109863261 0.5455513279143814 -0.4
v 3.857637417314163e-17 0.55 -0.4
v -0.08223150109863239 0.5455513279143813 -0.4
v -0.16305599841458812 0.5322814296703156 -0.4
v -0.24109056239000654 0.5104173569058692 -0.4
v -0.31499999999999995 0.4803332099679081 -0.4
v -0.3835197002754941 0.4425437369514422 -0.4
v -0.44547727214752497 0.39769552621700477 -0.4
v -0.49981260438347824 0.34655594308453475 -0.4
v -0.5455960043841965 0.29 -0.4
v -0.5820441054821107 0.22899538482984674 -0.4
v -0.608533270562113 0.164585903453311 -0.4
v -0.6246102626655008 0.09787361995442684 -0.4
v -0.6300000000000001 0.030000000000000096 -0.4
v -0.6246102626655008 -0.037873619954426875 -0.4
v -0.6085332705621131 -0.10458590345331051 -0.4
v -0.5820441054821108 -0.16899538482984655 -0.4
v -0.5455960043841965 -0.22999999999999998 -0.4
v -0.4998126043834784 -0.28655594308453447 -0.4
v -0.4454772721475251 -0.33769552621700466 -0.4
v -0.3835197002754942 -0.38254373695144217 -0.4
v -0.3150000000000003 -0.4203332099679081 -0.4
v -0.24109056239000698 -0.45041735690586887 -0.4
v -0.163055998414588 -0.4722814296703154 -0.4
v -0.08223150109863253 -0.48555132791438127 -0.4
v -1.157291225194249e-16 -0.4899999999999998 -0.4
v 0.0822315010986323 -0.48555132791438144 -0.4
v 0.16305599841458784 -0.47228142967031556 -0.4
v 0.24109056239000676 -0.45041735690586904 -0.4
v 0.3150000000000001 -0.420333209967908 -0.4
v 0.38351970027549404 -0.3825437369514423 -0.4
v 0.44547727214752486 -0.33769552621700477 -0.4
v 0.4998126043834782 -0.28655594308453475 -0.4
v 0.5455960043841963 -0.2300000000000002 -0.4
v 0.5820441054821106 -0.16899538482984694 -0.4
v 0.6085332705621131 -0.10458590345331072 -0.4
v 0.6246102626655008 -0.03787361995442682 -0.4
v 0.75 0.02750000000000001 -0.275
v 0.7435836460303579 0.10940518561808242 -0.275
v 0.724444369716801 0.1899089508018318 -0.275
v 0.692909649383465 0.2676338538090939 -0.275
v 0.649519052838329 0.34125000000000005 -0.275
v 0.5950150052184262 0.40949779670297237 -0.275
v 0.5303300858899106 0.47120950519455856 -0.275
v 0.45657107175654055 0.5253292210327501 -0.275
v 0.375 0.5709309408747352 -0.275
v 0.2870125742738173 0.6072344066508326 -0.275
v 0.19411428382689055 0.6336184559963903 -0.275
v 0.09789464416503876 0.6496316505120663 -0.275
v 4.592425496802574e-17 0.6550000000000002 -0.275
v -0.09789464416503851 0.6496316505120661 -0.275
v -0.19411428382689064 0.6336184559963903 -0.275
v -0.28701257427381727 0.6072344066508326 -0.275
v -0.3749999999999997 0.5709309408747354 -0.275
v -0.45657107175654055 0.5253292210327501 -0.275
v -0.5303300858899106 0.47120950519455873 -0.275
v -0.5950150052184262 0.40949779670297237 -0.275
v -0.649519052838329 0.34125000000000005 -0.275
v -0.692909649383465 0.26763385380909405 -0.275
v -0.724444369716801 0.18990895080183198 -0.275
v -0.7435836460303579 0.10940518561808242 -0.275
v -0.75 0.02750000000000008 -0.275
v -0.7435836460303579 -0.05440518561808249 -0.275
v -0.7244443697168014 -0.13490895080183157 -0.275
v -0.692909649383465 -0.21263385380909375 -0.275
v -0.6495190528383289 -0.2862500000000001 -0.275
v -0.5950150052184264 -0.35449779670297205 -0.275
v -0.5303300858899107 -0.4162095051945586 -0.275
v -0.45657107175654055 -0.47032922103275 -0.275
v -0.37500000000000033 -0.5159309408747352 -0.275
v -0.28701257427381777 -0.5522344066508322 -0.275
v -0.1941142838268905 -0.5786184559963904 -0.275
v -0.09789464416503872 -0.5946316505120659 -0.275
v -1.3777276490407724e-16 -0.5999999999999999 -0.275
v 0.09789464416503843 -0.5946316505120663 -0.275
v 0.1941142838268902 -0.5786184559963906 -0.275
v 0.2870125742738175 -0.5522344066508325 -0.275
v 0.375 -0.5159309408747353 -0.275
v 0.4565710717565403 -0.4703292210327502 -0.275
v 0.5303300858899105 -0.4162095051945589 -0.275
v 0.5950150052184262 -0.3544977967029724 -0.275
v 0.6495190528383288 -0.2862500000000003 -0.275
v 0.6929096493834648 -0.21263385380909428 -0.275
v 0.724444369716801 -0.13490895080183174 -0.275
v 0.7435836460303579 -0.05440518561808241 -0.275
v 0.7950000000000002 0.014999999999999958 -0.15
v 0.7881986647921794 0.101147286865234 -0.15
v 0.7679110318998094 0.1858205697676637 -0.15
v 0.734484228346473 0.2675710653609592 -0.15
v 0.6884901960086289 0.3449999999999999 -0.15
v 0.6307159055315321 0.4167825431457556 -0.15
v 0.5621498910433054 0.48169047558312134 -0.15
v 0.48396533606193304 0.5386132045922152 -0.15
v 0.39750000000000013 0.5865767664977294 -0.15
v 0.30423332873024644 0.6247604914574494 -0.15
v 0.205761140856504 0.6525110453507849 -0.15
v 0.10376832281494114 0.6693536085067147 -0.15
v 4.86797102661073e-17 0.6749999999999999 -0.15
v -0.10376832281494087 0.6693536085067147 -0.15
v -0.2057611408565041 0.6525110453507849 -0.15
v -0.30423332873024644 0.6247604914574494 -0.15
v -0.39749999999999985 0.5865767664977294 -0.15
v -0.48396533606193304 0.5386132045922152 -0.15
v -0.5621498910433054 0.4816904755831214 -0.15
v -0.630715905531532 0.4167825431457558 -0.15
v -0.6884901960086289 0.3449999999999999 -0.15
v -0.734484228346473 0.2675710653609593 -0.15
v -0.7679110318998094 0.18582056976766387 -0.15
v -0.7881986647921794 0.101147286865234 -0.15
v -0.7950000000000002 0.015000000000000027 -0.15
v -0.7881986647921794 -0.07114728686523421 -0.15
v -0.7679110318998095 -0.15582056976766345 -0.15
v -0.7344842283464733 -0.23757106536095923 -0.15
v -0.6884901960086287 -0.3150000000000001 -0.15
v -0.6307159055315323 -0.38678254314575544 -0.15
v -0.5621498910433055 -0.4516904755831214 -0.15
v -0.48396533606193315 -0.508613204592215 -0.15
v -0.39750000000000035 -0.5565767664977295 -0.15
v -0.3042333287302469 -0.5947604914574492 -0.15
v -0.205761140856504 -0.6225110453507853 -0.15
v -0.10376832281494106 -0.6393536085067151 -0.15
v -1.460391307983219e-16 -0.6450000000000002 -0.15
v 0.10376832281494078 -0.6393536085067151 -0.15
v 0.2057611408565037 -0.6225110453507853 -0.15
v 0.3042333287302466 -0.5947604914574491 -0.15
v 0.39750000000000013 -0.5565767664977295 -0.15
v 0.48396533606193287 -0.5086132045922154 -0.15
v 0.5621498910433053 -0.45169047558312153 -0.15
v 0.6307159055315318 -0.3867825431457559 -0.15
v 0.6884901960086287 -0.3150000000000004 -0.15
v 0.734484228346473 -0.2375710653609597 -0.15
v 0.7679110318998094 -0.15582056976766367 -0.15
v 0.7881986647921794 -0.07114728686523415 -0.15
v 0.74 0.015 -0.025
v 0.7336691974166196 0.09396834629313114 -0.025
v 0.7147851114539103 0.17158552228702498 -0.025
v 0.683670854058352 0.24652347658087914 -0.025
v 0.6408587988004846 0.3174999999999999 -0.025
v 0.587081471815514 0.3833006645502759 -0.025
v 0.5232590180780451 0.44279960261786117 -0.025
v 0.45048345746645324 0.49497877087619707 -0.025
v 0.37 0.5389453692895851 -0.025
v 0.2831857399501665 0.5739471171693282 -0.025
v 0.19152609337586535 0.5993851249048863 -0.025
v 0.09658938224283825 0.6148241411311555 -0.025
v 4.5311931568452073e-17 0.6199999999999997 -0.025
v -0.096589382242838 0.6148241411311552 -0.025
v -0.1915260933758654 0.5993851249048863 -0.025
v -0.2831857399501664 0.5739471171693282 -0.025
v -0.3699999999999999 0.5389453692895853 -0.025
v -0.45048345746645324 0.49497877087619707 -0.025
v -0.5232590180780451 0.4427996026178611 -0.025
v -0.5870814718155138 0.383300664550276 -0.025
v -0.6408587988004846 0.3174999999999999 -0.025
v -0.683670854058352 0.24652347658087942 -0.025
v -0.7147851114539105 0.17158552228702517 -0.025
v -0.7336691974166196 0.09396834629313114 -0.025
v -0.74 0.01500000000000009 -0.025
v -0.7336691974166196 -0.0639683462931313 -0.025
v -0.7147851114539107 -0.14158552228702478 -0.025
v -0.6836708540583523 -0.21652347658087917 -0.025
v -0.6408587988004844 -0.2875 -0.025
v -0.5870814718155142 -0.3533006645502757 -0.025
v -0.5232590180780453 -0.4127996026178611 -0.025
v -0.45048345746645346 -0.46497877087619705 -0.025
v -0.37000000000000033 -0.5089453692895851 -0.025
v -0.2831857399501668 -0.5439471171693283 -0.025
v -0.19152609337586524 -0.5693851249048862 -0.025
v -0.0965893822428382 -0.5848241411311552 -0.025
v -1.3593579470535618e-16 -0.5899999999999997 -0.025
v 0.09658938224283793 -0.5848241411311551 -0.025
v 0.191526093375865 -0.5693851249048861 -0.025
v 0.28318573995016655 -0.5439471171693282 -0.025
v 0.37 -0.5089453692895851 -0.025
v 0.45048345746645313 -0.46497877087619716 -0.025
v 0.523259018078045 -0.4127996026178612 -0.025
v 0.5870814718155137 -0.353300664550276 -0.025
v 0.6408587988004844 -0.28750000000000014 -0.025
v 0.683670854058352 -0.21652347658087961 -0.025
v 0.7147851114539103 -0.14158552228702495 -0.025
v 0.7336691974166196 -0.06396834629313126 -0.025
v 0.585 0.022500000000000034 0.1
v 0.579995243903679 0.08678414966837544 0.1
v 0.5650666083791049 0.14996837971299143 0.1
v 0.5404695265191028 0.21097159043980668 0.1
v 0.5066248612138966 0.26874999999999993 0.1
v 0.4641117040703726 0.32231500378679484 0.1
v 0.4136574669941304 0.3707500897343746 0.1
v 0.3561254359701016 0.4132265200934332 0.1
v 0.29250000000000004 0.44901751136383594 0.1
v 0.22386980793357758 0.47751066976180867 0.1
v 0.15140914138497463 0.49821846944736603 0.1
v 0.07635782244873024 0.5107865942266014 0.1
v 3.582091887506008e-17 0.515 0.1
v -0.07635782244873004 0.5107865942266017 0.1
v -0.1514091413849747 0.49821846944736603 0.1
v -0.2238698079335775 0.47751066976180867 0.1
v -0.29249999999999987 0.44901751136383616 0.1
v -0.3561254359701016 0.4132265200934332 0.1
v -0.41365746699413036 0.37075008973437457 0.1
v -0.4641117040703725 0.322315003786795 0.1
v -0.5066248612138966 0.26874999999999993 0.1
v -0.5404695265191028 0.2109715904398068 0.1
v -0.5650666083791049 0.1499683797129916 0.1
v -0.579995243903679 0.08678414966837544 0.1
v -0.585 0.02250000000000009 0.1
v -0.579995243903679 -0.04178414966837545 0.1
v -0.5650666083791052 -0.10496837971299122 0.1
v -0.5404695265191028 -0.16597159043980658 0.1
v -0.5066248612138966 -0.22374999999999998 0.1
v -0.4641117040703727 -0.2773150037867947 0.1
v -0.4136574669941305 -0.32575008973437447 0.1
v -0.3561254359701017 -0.36822652009343304 0.1
v -0.29250000000000026 -0.4040175113638358 0.1
v -0.22386980793357786 -0.4325106697618085 0.1
v -0.15140914138497455 -0.4532184694473661 0.1
v -0.07635782244873018 -0.46578659422660157 0.1
v -1.0746275662518022e-16 -0.4699999999999998 0.1
v 0.07635782244872999 -0.4657865942266015 0.1
v 0.15140914138497436 -0.453218469447366 0.1
v 0.2238698079335777 -0.43251066976180846 0.1
v 0.29250000000000004 -0.404017511363836 0.1
v 0.3561254359701015 -0.36822652009343326 0.1
v 0.4136574669941302 -0.3257500897343746 0.1
v 0.4641117040703725 -0.2773150037867949 0.1
v 0.5066248612138964 -0.22375000000000012 0.1
v 0.5404695265191025 -0.16597159043980692 0.1
v 0.5650666083791049 -0.10496837971299136 0.1
v 0.579995243903679 -0.04178414966837541 0.1
v 0.37000000000000005 0.019999999999999962 0.225
v 0.3668345987083099 0.06307364343261697 0.225
v 0.3573925557269553 0.1054102848838318 0.225
v 0.34183542702917613 0.1462855326804796 0.225
v 0.3204293994002424 0.18499999999999994 0.225
v 0.2935407359077571 0.2208912715728778 0.225
v 0.2616295090390226 0.2533452377915607 0.225
v 0.22524172873322668 0.2818066022961076 0.225
v 0.18500000000000005 0.3057883832488647 0.225
v 0.14159286997508327 0.32488024572872454 0.225
v 0.09576304668793267 0.33875552267539255 0.225
v 0.048294691121419146 0.34717680425335745 0.225
v 2.2655965784226033e-17 0.35 0.225
v -0.04829469112141901 0.3471768042533574 0.225
v -0.09576304668793272 0.33875552267539255 0.225
v -0.1415928699750832 0.32488024572872454 0.225
v -0.18499999999999994 0.3057883832488648 0.225
v -0.22524172873322668 0.2818066022961076 0.225
v -0.26162950903902266 0.2533452377915607 0.225
v -0.29354073590775703 0.22089127157287786 0.225
v -0.3204293994002424 0.18499999999999994 0.225
v -0.34183542702917613 0.14628553268047967 0.225
v -0.3573925557269553 0.10541028488383189 0.225
v -0.3668345987083099 0.06307364343261697 0.225
v -0.37000000000000005 0.020000000000000014 0.225
v -0.3668345987083099 -0.023073643432617124 0.225
v -0.35739255572695544 -0.06541028488383176 0.225
v -0.34183542702917613 -0.1062855326804796 0.225
v -0.3204293994002424 -0.14500000000000007 0.225
v -0.29354073590775714 -0.18089127157287777 0.225
v -0.26162950903902266 -0.21334523779156073 0.225
v -0.22524172873322673 -0.2418066022961076 0.225
v -0.18500000000000016 -0.26578838324886467 0.225
v -0.14159286997508347 -0.28488024572872456 0.225
v -0.09576304668793265 -0.2987555226753926 0.225
v -0.0482946911214191 -0.3071768042533575 0.225
v -6.796789735267811e-17 -0.31000000000000005 0.225
v 0.04829469112141899 -0.30717680425335747 0.225
v 0.09576304668793253 -0.2987555226753927 0.225
v 0.14159286997508333 -0.2848802457287247 0.225
v 0.18500000000000005 -0.2657883832488648 0.225
v 0.22524172873322662 -0.24180660229610762 0.225
v 0.26162950903902255 -0.21334523779156078 0.225
v 0.293540735907757 -0.18089127157287793 0.225
v 0.3204293994002422 -0.14500000000000018 0.225
v 0.341835427029176 -0.10628553268047988 0.225
v 0.3573925557269553 -0.06541028488383187 0.225
v 0.3668345987083099 -0.023073643432617096 0.225
v 0.20500000000000002 -0.0024999999999999814 0.35
v 0.20324619658163112 0.018710506235758397 0.35
v 0.19801479438925906 0.03955809482915963 0.35
v 0.18939530416481382 0.059686057759327074 0.35
v 0.17753520777580994 0.07874999999999999 0.35
v 0.16263743475970316 0.09642373221391709 0.35
v 0.1449568901432423 0.11240485194281394 0.35
v 0.12479609294678773 0.12641991779732573 0.35
v 0.10250000000000006 0.1382291281149712 0.35
v 0.07845010363484342 0.14763042403308402 0.35
v 0.05305790424601675 0.15446294677197359 0.35
v 0.026757869405110605 0.1586097899732442 0.35
v 1.255262969126037e-17 0.15999999999999998 0.35
v -0.02675786940511054 0.1586097899732442 0.35
v -0.05305790424601677 0.15446294677197359 0.35
v -0.0784501036348434 0.14763042403308402 0.35
v -0.10249999999999997 0.1382291281149713 0.35
v -0.12479609294678773 0.12641991779732573 0.35
v -0.14495689014324226 0.11240485194281395 0.35
v -0.16263743475970321 0.09642373221391715 0.35
v -0.17753520777580994 0.07874999999999999 0.35
v -0.18939530416481382 0.059686057759327144 0.35
v -0.198014794389259 0.03955809482915967 0.35
v -0.20324619658163112 0.018710506235758397 0.35
v -0.20500000000000002 -0.0024999999999999623 0.35
v -0.20324619658163112 -0.02371050623575839 0.35
v -0.198014794389259 -0.044558094829159525 0.35
v -0.18939530416481387 -0.06468605775932704 0.35
v -0.17753520777580994 -0.08374999999999998 0.35
v -0.16263743475970327 -0.10142373221391704 0.35
v -0.14495689014324226 -0.1174048519428139 0.35
v -0.12479609294678778 -0.13141991779732562 0.35
v -0.10250000000000009 -0.14322912811497124 0.35
v -0.0784501036348435 -0.15263042403308405 0.35
v -0.05305790424601673 -0.15946294677197348 0.35
v -0.02675786940511058 -0.16360978997324413 0.35
v -3.765788907378111e-17 -0.16499999999999998 0.35
v 0.026757869405110518 -0.1636097899732442 0.35
v 0.05305790424601667 -0.15946294677197356 0.35
v 0.07845010363484348 -0.15263042403308402 0.35
v 0.10250000000000006 -0.14322912811497118 0.35
v 0.12479609294678773 -0.1314199177973257 0.35
v 0.1449568901432422 -0.11740485194281397 0.35
v 0.1626374347597032 -0.10142373221391712 0.35
v 0.1775352077758099 -0.08375000000000003 0.35
v 0.18939530416481376 -0.06468605775932715 0.35
v 0.19801479438925906 -0.04455809482915958 0.35
v 0.20324619658163112 -0.023710506235758377 0.35
v 0.20500000000000002 -0.0024999999999999814 0.4125
v 0.20324619658163112 0.018710506235758397 0.4125
v 0.19801479438925906 0.03955809482915963 0.4125
v 0.18939530416481382 0.059686057759327074 0.4125
v 0.17753520777580994 0.07874999999999999 0.4125
v 0.16263743475970316 0.09642373221391709 0.4125
v 0.1449568901432423 0.11240485194281394 0.4125
v 0.12479609294678773 0.12641991779732573 0.4125
v 0.10250000000000006 0.1382291281149712 0.4125
v 0.07845010363484342 0.14763042403308402 0.4125
v 0.05305790424601675 0.15446294677197359 0.4125
v 0.026757869405110605 0.1586097899732442 0.4125
v 1.255262969126037e-17 0.15999999999999998 0.4125
v -0.02675786940511054 0.1586097899732442 0.4125
v -0.05305790424601677 0.15446294677197359 0.4125
v -0.0784501036348434 0.14763042403308402 0.4125
v -0.10249999999999997 0.1382291281149713 0.4125
v -0.12479609294678773 0.12641991779732573 0.4125
v -0.14495689014324226 0.11240485194281395 0.4125
v -0.16263743475970321 0.09642373221391715 0.4125
v -0.17753520777580994 0.07874999999999999 0.4125
v -0.18939530416481382 0.059686057759327144 0.4125
v -0.198014794389259 0.03955809482915967 0.4125
v -0.20324619658163112 0.018710506235758397 0.4125
v -0.20500000000000002 -0.0024999999999999623 0.4125
v -0.20324619658163112 -0.02371050623575839 0.4125
v -0.198014794389259 -0.044558094829159525 0.4125
v -0.18939530416481387 -0.06468605775932704 0.4125
v -0.17753520777580994 -0.08374999999999998 0.4125
v -0.16263743475970327 -0.10142373221391704 0.4125
v -0.14495689014324226 -0.1174048519428139 0.4125
v -0.12479609294678778 -0.13141991779732562 0.4125
v -0.10250000000000009 -0.14322912811497124 0.4125
v -0.0784501036348435 -0.15263042403308405 0.4125
v -0.05305790424601673 -0.15946294677197348 0.4125
v -0.02675786940511058 -0.16360978997324413 0.4125
v -3.765788907378111e-17 -0.16499999999999998 0.4125
v 0.026757869405110518 -0.1636097899732442 0.4125
v 0.05305790424601667 -0.15946294677197356 0.4125
v 0.07845010363484348 -0.15263042403308402 0.4125
v 0.10250000000000006 -0.14322912811497118 0.4125
v 0.12479609294678773 -0.1314199177973257 0.4125
v 0.1449568901432422 -0.11740485194281397 0.4125
v 0.1626374347597032 -0.10142373221391712 0.4125
v 0.1775352077758099 -0.08375000000000003 0.4125
v 0.18939530416481376 -0.06468605775932715 0.4125
v 0.19801479438925906 -0.04455809482915958 0.4125
v 0.20324619658163112 -0.023710506235758377 0.4125
v 0 -0.0024999999999999814 -0.7125
v 0 -0.0024999999999999814 0.4125
f 1 49 50
f 1 50 2
f 2 50 51
f 2 51 3
f 3 51 52
f 3 52 4
f 4 52 53
f 4 53 5
f 5 53 54
f 5 54 6
f 6 54 55
f 6 55 7
f 7 55 56
f 7 56 8
f 8 56 57
f 8 57 9
f 9 57 58
f 9 58 10
f 10 58 59
f 10 59 11
f 11 59 60
f 11 60 12
f 12 60 61
f 12 61 13
f 13 61 62
f 13 62 14
f 14 62 63
f 14 63 15
f 15 63 64
f 15 64 16
f 16 64 65
f 16 65 17
f 17 65 66
f 17 66 18
f 18 66 67
f 18 67 19
f 19 67 68
f 19 68 20
f 20 68 69
f 20 69 21
f 21 69 70
f 21 70 22
f 22 70 71
f 22 71 23
f 23 71 72
f 23 72 24
f 24 72 73
f 24 73 25
f 25 73 74
f 25 74 26
f 26 74 75
f 26 75 27
f 27 75 76
f 27 76 28
f 28 76 77
f 28 77 29
f 29 77 78
f 29 78 30
f 30 78 79
f 30 79 31
f 31 79 80
f 31 80 32
f 32 80 81
f 32 81 33
f 33 81 82
f 33 82 34
f 34 82 83
f 34 83 35
f 35 83 84
f 35 84 36
f 36 84 85
f 36 85 37
f 37 85 86
f 37 86 38
f 38 86 87
f 38 87 39
f 39 87 88
f 39 88 40
f 40 88 89
f 40 89 41
f 41 89 90
f 41 90 42
f 42 90 91
f 42 91 43
f 43 91 92
f 43 92 44
f 44 92 93
f 44 93 45
f 45 93 94
f 45 94 46
f 46 94 95
f 46 95 47
f 47 95 96
f 47 96 48
f 48 96 49
f 48 49 1
f 49 97 98
f 49 98 50
f 50 98 99
f 50 99 51
f 51 99 100
f 51 100 52
f 52 100 101
f 52 101 53
f 53 101 102
f 53 102 54
f 54 102 103
f 54 103 55
f 55 103 104
f 55 104 56
f 56 104 105
f 56 105 57
f 57 105 106
f 57 106 58
f 58 106 107
f 58 107 59
f 59 107 108
f 59 108 60
f 60 108 109
f 60 109 61
f 61 109 110
f 61 110 62
f 62 110 111
f 62 111 63
f 63 111 112
f 63 112 64
f 64 112 113
f 64 113 65
f 65 113 114
f 65 114 66
f 66 114 115
f 66 115 67
f 67 115 116
f 67 116 68
f 68 116 117
f 68 117 69
f 69 117 118
f 69 118 70
f 70 118 119
f 70 119 71
f 71 119 120
f 71 120 72
f 72 120 121
f 72 121 73
f 73 121 122
f 73 122 74
f 74 122 123
f 74 123 75
f 75 123 124
f 75 124 76
f 76 124 125
f 76 125 77
f 77 125 126
f 77 126 78
f 78 126 127
f 78 127 79
f 79 127 128
f 79 128 80
f 80 128 129
f 80 129 81
f 81 129 130
f 81 130 82
f 82 130 131
f 82 131 83
f 83 131 132
f 83 132 84
f 84 132 133
f 84 133 85
f 85 133 134
f 85 134 86
f 86 134 135
f 86 135 87
f 87 135 136
f 87 136 88
f 88 136 137
f 88 137 89
f 89 137 138
f 89 138 90
f 90 138 139
f 90 139 91
f 91 139 140
f 91 140 92
f 92 140 141
f 92 141 93
f 93 141 142
f 93 142 94
f 94 142 143
f 94 143 95
f 95 143 144
f 95 144 96
f 96 144 97
f 96 97 49
f 97 145 146
f 97 146 98
f 98 146 147
f 98 147 99
f 99 147 148
f 99 148 100
f 100 148 149
f 100 149 101
f 101 149 150
f 101 150 102
f 102 150 151
f 102 151 103
f 103 151 152
f 103 152 104
f 104 152 153
f 104 153 105
f 105 153 154
f 105 154 106
f 106 154 155
f 106 155 107
f 107 155 156
f 107 156 108
f 108 156 157
f 108 157 109
f 109 157 158
f 109 158 110
f 110 158 159
f 110 159 111
f 111 159 160
f 111 160 112
f 112 160 161
f 112 161 113
f 113 161 162
f 113 162 114
f 114 162 163
f 114 163 115
f 115 163 164
f 115 164 116
f 116 164 165
f 116 165 117
f 117 165 166
f 117 166 118
f 118 166 167
f 118 167 119
f 119 167 168
f 119 168 120
f 120 168 169
f 120 169 121
f 121 169 170
f 121 170 122
f 122 170 171
f 122 171 123
f 123 171 172
f 123 172 124
f 124 172 173
f 124 173 125
f 125 173 174
f 125 174 126
f 126 174 175
f 126 175 127
f 127 175 176
f 127 176 128
f 128 176 177
f 128 177 129
f 129 177 178
f 129 178 130
f 130 178 179
f 130 179 131
f 131 179 180
f 131 180 132
f 132 180 181
f 132 181 133
f 133 181 182
f 133 182 134
f 134 182 183
f 134 183 135
f 135 183 184
f 135 184 136
f 136 184 185
f 136 185 137
f 137 185 186
f 137 186 138
f 138 186 187
f 138 187 139
f 139 187 188
f 139 188 140
f 140 188 189
f 140 189 141
f 141 189 190
f 141 190 142
f 142 190 191
f 142 191 143
f 143 191 192
f 143 192 144
f 144 192 145
f 144 145 97
f 145 193 194
f 145 194 146
f 146 194 195
f 146 195 147
f 147 195 196
f 147 196 148
f 148 196 197
f 148 197 149
f 149 197 198
f 149 198 150
f 150 198 199
f 150 199 151
f 151 199 200
f 151 200 152
f 152 200 201
f 152 201 153
f 153 201 202
f 153 202 154
f 154 202 203
f 154 203 155
f 155 203 204
f 155 204 156
f 156 204 205
f 156 205 157
f 157 205 206
f 157 206 158
f 158 206 207
f 158 207 159
f 159 207 208
f 159 208 160
f 160 208 209
f 160 209 161
f 161 209 210
f 161 210 162
f 162 210 211
f 162 211 163
f 163 211 212
f 163 212 164
f 164 212 213
f 164 213 165
f 165 213 214
f 165 214 166
f 166 214 215
f 166 215 167
f 167 215 216
f 167 216 168
f 168 216 217
f 168 217 169
f 169 217 218
f 169 218 170
f 170 218 219
f 170 219 171
f 171 219 220
f 171 220 172
f 172 220 221
f 172 221 173
f 173 221 222
f 173 222 174
f 174 222 223
f 174 223 175
f 175 223 224
f 175 224 176
f 176 224 225
f 176 225 177
f 177 225 226
f 177 226 178
f 178 226 227
f 178 227 179
f 179 227 228
f 179 228 180
f 180 228 229
f 180 229 181
f 181 229 230
f 181 230 182
f 182 230 231
f 182 231 183
f 183 231 232
f 183 232 184
f 184 232 233
f 184 233 185
f 185 233 234
f 185 234 186
f 186 234 235
f 186 235 187
f 187 235 236
f 187 236 188
f 188 236 237
f 188 237 189
f 189 237 238
f 189 238 190
f 190 238 239
f 190 239 191
f 191 239 240
f 191 240 192
f 192 240 193
f 192 193 145
f 193 241 242
f 193 242 194
f 194 242 243
f 194 243 195
f 195 243 244
f 195 244 196
f 196 244 245
f 196 245 197
f 197 245 246
f 197 246 198
f 198 246 247
f 198 247 199
f 199 247 248
f 199 248 200
f 200 248 249
f 200 249 201
f 201 249 250
f 201 250 202
f 202 250 251
f 202 251 203
f 203 251 252
f 203 252 204
f 204 252 253
f 204 253 205
f 205 253 254
f 205 254 206
f 206 254 255
f 206 255 207
f 207 255 256
f 207 256 208
f 208 256 257
f 208 257 209
f 209 257 258
f 209 258 210
f 210 258 259
f 210 259 211
f 211 259 260
f 211 260 212
f 212 260 261
f 212 261 213
f 213 261 262
f 213 262 214
f 214 262 263
f 214 263 215
f 215 263 264
f 215 264 216
f 216 264 265
f 216 265 217
f 217 265 266
f 217 266 218
f 218 266 267
f 218 267 219
f 219 267 268
f 219 268 220
f 220 268 269
f 220 269 221
f 221 269 270
f 221 270 222
f 222 270 271
f 222 271 223
f 223 271 272
f 223 272 224
f 224 272 273
f 224 273 225
f 225 273 274
f 225 274 226
f 226 274 275
f 226 275 227
f 227 275 276
f 227 276 228
f 228 276 277
f 228 277 229
f 229 277 278
f 229 278 230
f 230 278 279
f 230 279 231
f 231 279 280
f 231 280 232
f 232 280 281
f 232 281 233
f 233 281 282
f 233 282 234
f 234 282 283
f 234 283 235
f 235 283 284
f 235 284 236
f 236 284 285
f 236 285 237
f 237 285 286
f 237 286 238
f 238 286 287
f 238 287 239
f 239 287 288
f 239 288 240
f 240 288 241
f 240 241 193
f 241 289 290
f 241 290 242
f 242 290 291
f 242 291 243
f 243 291 292
f 243 292 244
f 244 292 293
f 244 293 245
f 245 293 294
f 245 294 246
f 246 294 295
f 246 295 247
f 247 295 296
f 247 296 248
f 248 296 297
f 248 297 249
f 249 297 298
f 249 298 250
f 250 298 299
f 250 299 251
f 251 299 300
f 251 300 252
f 252 300 301
f 252 301 253
f 253 301 302
f 253 302 254
f 254 302 303
f 254 303 255
f 255 303 304
f 255 304 256
f 256 304 305
f 256 305 257
f 257 305 306
f 257 306 258
f 258 306 307
f 258 307 259
f 259 307 308
f 259 308 260
f 260 308 309
f 260 309 261
f 261 309 310
f 261 310 262
f 262 310 311
f 262 311 263
f 263 311 312
f 263 312 264
f 264 312 313
f 264 313 265
f 265 313 314
f 265 314 266
f 266 314 315
f 266 315 267
f 267 315 316
f 267 316 268
f 268 316 317
f 268 317 269
f 269 317 318
f 269 318 270
f 270 318 319
f 270 319 271
f 271 319 320
f 271 320 272
f 272 320 321
f 272 321 273
f 273 321 322
f 273 322 274
f 274 322 323
f 274 323 275
f 275 323 324
f 275 324 276
f 276 324 325
f 276 325 277
f 277 325 326
f 277 326 278
f 278 326 327
f 278 327 279
f 279 327 328
f 279 328 280
f 280 328 329
f 280 329 281
f 281 329 330
f 281 330 282
f 282 330 331
f 282 331 283
f 283 331 332
f 283 332 284
f 284 332 333
f 284 333 285
f 285 333 334
f 285 334 286
f 286 334 335
f 286 335 287
f 287 335 336
f 287 336 288
f 288 336 289
f 288 289 241
f 289 337 338
f 289 338 290
f 290 338 339
f 290 339 291
f 291 339 340
f 291 340 292
f 292 340 341
f 292 341 293
f 293 341 342
f 293 342 294
f 294 342 343
f 294 343 295
f 295 343 344
f 295 344 296
f 296 344 345
f 296 345 297
f 297 345 346
f 297 346 298
f 298 346 347
f 298 347 299
f 299 347 348
f 299 348 300
f 300 348 349
f 300 349 301
f 301 349 350
f 301 350 302
f 302 350 351
f 302 351 303
f 303 351 352
f 303 352 304
f 304 352 353
f 304 353 305
f 305 353 354
f 305 354 306
f 306 354 355
f 306 355 307
f 307 355 356
f 307 356 308
f 308 356 357
f 308 357 309
f 309 357 358
f 309 358 310
f 310 358 359
f 310 359 311
f 311 359 360
f 311 360 312
f 312 360 361
f 312 361 313
f 313 361 362
f 313 362 314
f 314 362 363
f 314 363 315
f 315 363 364
f 315 364 316
f 316 364 365
f 316 365 317
f 317 365 366
f 317 366 318
f 318 366 367
f 318 367 319
f 319 367 368
f 319 368 320
f 320 368 369
f 320 369 321
f 321 369 370
f 321 370 322
f 322 370 371
f 322 371 323
f 323 371 372
f 323 372 324
f 324 372 373
f 324 373 325
f 325 373 374
f 325 374 326
f 326 374 375
f 326 375 327
f 327 375 376
f 327 376 328
f 328 376 377
f 328 377 329
f 329 377 378
f 329 378 330
f 330 378 379
f 330 379 331
f 331 379 380
f 331 380 332
f 332 380 381
f 332 381 333
f 333 381 382
f 333 382 334
f 334 382 383
f 334 383 335
f 335 383 384
f 335 384 336
f 336 384 337
f 336 337 289
f 337 385 386
f 337 386 338
f 338 386 387
f 338 387 339
f 339 387 388
f 339 388 340
f 340 388 389
f 340 389 341
f 341 389 390
f 341 390 342
f 342 390 391
f 342 391 343
f 343 391 392
f 343 392 344
f 344 392 393
f 344 393 345
f 345 393 394
f 345 394 346
f 346 394 395
f 346 395 347
f 347 395 396
f 347 396 348
f 348 396 397
f 348 397 349
f 349 397 398
f 349 398 350
f 350 398 399
f 350 399 351
f 351 399 400
f 351 400 352
f 352 400 401
f 352 401 353
f 353 401 402
f 353 402 354
f 354 402 403
f 354 403 355
f 355 403 404
f 355 404 356
f 356 404 405
f 356 405 357
f 357 405 406
f 357 406 358
f 358 406 407
f 358 407 359
f 359 407 408
f 359 408 360
f 360 408 409
f 360 409 361
f 361 409 410
f 361 410 362
f 362 410 411
f 362 411 363
f 363 411 412
f 363 412 364
f 364 412 413
f 364 413 365
f 365 413 414
f 365 414 366
f 366 414 415
f 366 415 367
f 367 415 416
f 367 416 368
f 368 416 417
f 368 417 369
f 369 417 418
f 369 418 370
f 370 418 419
f 370 419 371
f 371 419 420
f 371 420 372
f 372 420 421
f 372 421 373
f 373 421 422
f 373 422 374
f 374 422 423
f 374 423 375
f 375 423 424
f 375 424 376
f 376 424 425
f 376 425 377
f 377 425 426
f 377 426 378
f 378 426 427
f 378 427 379
f 379 427 428
f 379 428 380
f 380 428 429
f 380 429 381
f 381 429 430
f 381 430 382
f 382 430 431
f 382 431 383
f 383 431 432
f 383 432 384
f 384 432 385
f 384 385 337
f 385 433 434
f 385 434 386
f 386 434 435
f 386 435 387
f 387 435 436
f 387 436 388
f 388 436 437
f 388 437 389
f 389 437 438
f 389 438 390
f 390 438 439
f 390 439 391
f 391 439 440
f 391 440 392
f 392 440 441
f 392 441 393
f 393 441 442
f 393 442 394
f 394 442 443
f 394 443 395
f 395 443 444
f 395 444 396
f 396 444 445
f 396 445 397
f 397 445 446
f 397 446 398
f 398 446 447
f 398 447 399
f 399 447 448
f 399 448 400
f 400 448 449
f 400 449 401
f 401 449 450
f 401 450 402
f 402 450 451
f 402 451 403
f 403 451 452
f 403 452 404
f 404 452 453
f 404 453 405
f 405 453 454
f 405 454 406
f 406 454 455
f 406 455 407
f 407 455 456
f 407 456 408
f 408 456 457
f 408 457 409
f 409 457 458
f 409 458 410
f 410 458 459
f 410 459 411
f 411 459 460
f 411 460 412
f 412 460 461
f 412 461 413
f 413 461 462
f 413 462 414
f 414 462 463
f 414 463 415
f 415 463 464
f 415 464 416
f 416 464 465
f 416 465 417
f 417 465 466
f 417 466 418
f 418 466 467
f 418 467 419
f 419 467 468
f 419 468 420
f 420 468 469
f 420 469 421
f 421 469 470
f 421 470 422
f 422 470 471
f 422 471 423
f 423 471 472
f 423 472 424
f 424 472 473
f 424 473 425
f 425 473 474
f 425 474 426
f 426 474 475
f 426 475 427
f 427 475 476
f 427 476 428
f 428 476 477
f 428 477 429
f 429 477 478
f 429 478 430
f 430 478 479
f 430 479 431
f 431 479 480
f 431 480 432
f 432 480 433
f 432 433 385
f 433 481 482
f 433 482 434
f 434 482 483
f 434 483 435
f 435 483 484
f 435 484 436
f 436 484 485
f 436 485 437
f 437 485 486
f 437 486 438
f 438 486 487
f 438 487 439
f 439 487 488
f 439 488 440
f 440 488 489
f 440 489 441
f 441 489 490
f 441 490 442
f 442 490 491
f 442 491 443
f 443 491 492
f 443 492 444
f 444 492 493
f 444 493 445
f 445 493 494
f 445 494 446
f 446 494 495
f 446 495 447
f 447 495 496
f 447 496 448
f 448 496 497
f 448 497 449
f 449 497 498
f 449 498 450
f 450 498 499
f 450 499 451
f 451 499 500
f 451 500 452
f 452 500 501
f 452 501 453
f 453 501 502
f 453 502 454
f 454 502 503
f 454 503 455
f 455 503 504
f 455 504 456
f 456 504 505
f 456 505 457
f 457 505 506
f 457 506 458
f 458 506 507
f 458 507 459
f 459 507 508
f 459 508 460
f 460 508 509
f 460 509 461
f 461 509 510
f 461 510 462
f 462 510 511
f 462 511 463
f 463 511 512
f 463 512 464
f 464 512 513
f 464 513 465
f 465 513 514
f 465 514 466
f 466 514 515
f 466 515 467
f 467 515 516
f 467 516 468
f 468 516 517
f 468 517 469
f 469 517 518
f 469 518 470
f 470 518 519
f 470 519 471
f 471 519 520
f 471 520 472
f 472 520 521
f 472 521 473
f 473 521 522
f 473 522 474
f 474 522 523
f 474 523 475
f 475 523 524
f 475 524 476
f 476 524 525
f 476 525 477
f 477 525 526
f 477 526 478
f 478 526 527
f 478 527 479
f 479 527 528
f 479 528 480
f 480 528 481
f 480 481 433
f 529 2 1
f 530 481 482
f 529 3 2
f 530 482 483
f 529 4 3
f 530 483 484
f 529 5 4
f 530 484 485
f 529 6 5
f 530 485 486
f 529 7 6
f 530 486 487
f 529 8 7
f 530 487 488
f 529 9 8
f 530 488 489
f 529 10 9
f 530 489 490
f 529 11 10
f 530 490 491
f 529 12 11
f 530 491 492
f 529 13 12
f 530 492 493
f 529 14 13
f 530 493 494
f 529 15 14
f 530 494 495
f 529 16 15
f 530 495 496
f 529 17 16
f 530 496 497
f 529 18 17
f 530 497 498
f 529 19 18
f 530 498 499
f 529 20 19
f 530 499 500
f 529 21 20
f 530 500 501
f 529 22 21
f 530 501 502
f 529 23 22
f 530 502 503
f 529 24 23
f 530 503 504
f 529 25 24
f 530 504 505
f 529 26 25
f 530 505 506
f 529 27 26
f 530 506 507
f 529 28 27
f 530 507 508
f 529 29 28
f 530 508 509
f 529 30 29
f 530 509 510
f 529 31 30
f 530 510 511
f 529 32 31
f 530 511 512
f 529 33 32
f 530 512 513
f 529 34 33
f 530 513 514
f 529 35 34
f 530 514 515
f 529 36 35
f 530 515 516
f 529 37 36
f 530 516 517
f 529 38 37
f 530 517 518
f 529 39 38
f 530 518 519
f 529 40 39
f 530 519 520
f 529 41 40
f 530 520 521
f 529 42 41
f 530 521 522
f 529 43 42
f 530 522 523
f 529 44 43
f 530 523 524
f 529 45 44
f 530 524 525
f 529 46 45
f 530 525 526
f 529 47 46
f 530 526 527
f 529 48 47
f 530 527 528
f 529 1 48
f 530 528 481
