o combined_0.5
v 0.29999999999999993 -0.014999999999999958 -0.7125
v 0.2974334584121432 0.016978917093912686 -0.7125
v 0.2897777478867204 0.04841066605011765 -0.7125
v 0.277163859753386 0.07875744092944707 -0.7125
v 0.2598076211353315 0.10750000000000005 -0.7125
v 0.23800600208737052 0.13414655010713666 -0.7125
v 0.21213203435596417 0.15824116139070418 -0.7125
v 0.18262842870261622 0.1793715683713528 -0.7125
v 0.15000000000000002 0.19717622392718748 -0.7125
v 0.1148050297095269 0.21135048546526522 -0.7125
v 0.07764571353075622 0.2216518274408219 -0.7125
v 0.039157857666015504 0.2279039910365835 -0.7125
v 1.8369701987210294e-17 0.23000000000000004 -0.7125
v -0.039157857666015414 0.22790399103658363 -0.7125
v -0.07764571353075625 0.2216518274408219 -0.7125
v -0.11480502970952687 0.21135048546526522 -0.7125
v -0.14999999999999986 0.19717622392718762 -0.7125
v -0.18262842870261622 0.1793715683713528 -0.7125
v -0.21213203435596414 0.15824116139070432 -0.7125
v -0.23800600208737038 0.1341465501071367 -0.7125
v -0.2598076211353315 0.10750000000000005 -0.7125
v -0.277163859753386 0.07875744092944703 -0.7125
v -0.2897777478867204 0.0484106660501177 -0.7125
v -0.2974334584121432 0.016978917093912686 -0.7125
v -0.29999999999999993 -0.01499999999999993 -0.7125
v -0.2974334584121432 -0.04697891709391265 -0.7125
v -0.2897777478867204 -0.07841066605011747 -0.7125
v -0.277163859753386 -0.10875744092944696 -0.7125
v -0.2598076211353316 -0.1375 -0.7125
v -0.23800600208737058 -0.16414655010713644 -0.7125
v -0.2121320343559643 -0.1882411613907041 -0.7125
v -0.18262842870261628 -0.2093715683713526 -0.7125
v -0.15000000000000013 -0.22717622392718737 -0.7125
v -0.11480502970952706 -0.24135048546526533 -0.7125
v -0.0776457135307562 -0.2516518274408217 -0.7125
v -0.03915785766601548 -0.2579039910365835 -0.7125
v -5.5109105961630883e-17 -0.26000000000000006 -0.7125
v 0.03915785766601538 -0.2579039910365837 -0.7125
v 0.07764571353075607 -0.2516518274408218 -0.7125
v 0.114805029709527 -0.24135048546526525 -0.7125
v 0.15000000000000002 -0.2271762239271875 -0.7125
v 0.18262842870261614 -0.20937156837135265 -0.7125
v 0.21213203435596426 -0.1882411613907042 -0.7125
v 0.23800600208737036 -0.1641465501071366 -0.7125
v 0.2598076211353315 -0.13750000000000012 -0.7125
v 0.2771638597533859 -0.1087574409294471 -0.7125
v 0.2897777478867204 -0.07841066605011753 -0.7125
v 0.2974334584121432 -0.04697891709391264 -0.7125
v 0.29999999999999993 -0.014999999999999958 -0.65
v 0.2974334584121432 0.016978917093912686 -0.65
v 0.2897777478867204 0.04841066605011765 -0.65
v 0.277163859753386 0.07875744092944707 -0.65
v 0.2598076211353315 0.10750000000000005 -0.65
v 0.23800600208737052 0.13414655010713666 -0.65
v 0.21213203435596417 0.15824116139070418 -0.65
v 0.18262842870261622 0.1793715683713528 -0.65
v 0.15000000000000002 0.19717622392718748 -0.65
v 0.1148050297095269 0.21135048546526522 -0.65
v 0.07764571353075622 0.2216518274408219 -0.65
v 0.039157857666015504 0.2279039910365835 -0.65
v 1.8369701987210294e-17 0.23000000000000004 -0.65
v -0.039157857666015414 0.22790399103658363 -0.65
v -0.07764571353075625 0.2216518274408219 -0.65
v -0.11480502970952687 0.21135048546526522 -0.65
v -0.14999999999999986 0.19717622392718762 -0.65
v -0.18262842870261622 0.1793715683713528 -0.65
v -0.21213203435596414 0.15824116139070432 -0.65
v -0.23800600208737038 0.1341465501071367 -0.65
v -0.2598076211353315 0.10750000000000005 -0.65
v -0.277163859753386 0.07875744092944703 -0.65
v -0.2897777478867204 0.0484106660501177 -0.65
v -0.2974334584121432 0.016978917093912686 -0.65
v -0.29999999999999993 -0.01499999999999993 -0.65
v -0.2974334584121432 -0.04697891709391265 -0.65
v -0.2897777478867204 -0.07841066605011747 -0.65
v -0.277163859753386 -0.10875744092944696 -0.65
v -0.2598076211353316 -0.1375 -0.65
v -0.23800600208737058 -0.16414655010713644 -0.65
v -0.2121320343559643 -0.1882411613907041 -0.65
v -0.18262842870261628 -0.2093715683713526 -0.65
v -0.15000000000000013 -0.22717622392718737 -0.65
v -0.11480502970952706 -0.24135048546526533 -0.65
v -0.0776457135307562 -0.2516518274408217 -0.65
v -0.03915785766601548 -0.2579039910365835 -0.65
v -5.5109105961630883e-17 -0.26000000000000006 -0.65
v 0.03915785766601538 -0.2579039910365837 -0.65
v 0.07764571353075607 -0.2516518274408218 -0.65
v 0.114805029709527 -0.24135048546526525 -0.65
v 0.15000000000000002 -0.2271762239271875 -0.65
v 0.18262842870261614 -0.20937156837135265 -0.65
v 0.21213203435596426 -0.1882411613907042 -0.65
v 0.23800600208737036 -0.1641465501071366 -0.65
v 0.2598076211353315 -0.13750000000000012 -0.65
v 0.2771638597533859 -0.1087574409294471 -0.65
v 0.2897777478867204 -0.07841066605011753 -0.65
v 0.2974334584121432 -0.04697891709391264 -0.65
v 0.6100000000000002 0.035 -0.525
v 0.6047813654380243 0.09699994130452458 -0.525
v 0.5892147540363322 0.15793904642369733 -0.525
v 0.5635665148318849 0.21677463037341785 -0.525
v 0.5282754963085081 0.2725 -0.525
v 0.48394553757765346 0.3241616787791424 -0.525
v 0.43133513652379446 0.37087572106361044 -0.525
v 0.3713444716953197 0.4118428366383363 -0.525
v 0.30500000000000027 0.44636206679760837 -0.525
v 0.23343689374270502 0.4738427779428609 -0.525
v 0.15787961751253765 0.4938147674873068 -0.525
v 0.07962097725423159 0.5059363091525598 -0.525
v 3.735172737399427e-17 0.5100000000000001 -0.525
v -0.07962097725423134 0.5059363091525604 -0.525
v -0.15787961751253776 0.4938147674873068 -0.525
v -0.2334368937427047 0.4738427779428609 -0.525
v -0.30500000000000005 0.4463620667976089 -0.525
v -0.3713444716953197 0.4118428366383363 -0.525
v -0.4313351365237939 0.3708757210636097 -0.525
v -0.4839455375776537 0.32416167877914237 -0.525
v -0.5282754963085081 0.2725 -0.525
v -0.5635665148318849 0.21677463037341763 -0.525
v -0.5892147540363315 0.1579390464236975 -0.525
v -0.6047813654380243 0.09699994130452458 -0.525
v -0.6100000000000002 0.035000000000000045 -0.525
v -0.6047813654380243 -0.026999941304524572 -0.525
v -0.5892147540363322 -0.08793904642369721 -0.525
v -0.5635665148318856 -0.14677463037341765 -0.525
v -0.528275496308508 -0.20250000000000007 -0.525
v -0.4839455375776538 -0.25416167877914214 -0.525
v -0.43133513652379424 -0.30087572106361016 -0.525
v -0.3713444716953199 -0.3418428366383365 -0.525
v -0.30500000000000027 -0.3763620667976082 -0.525
v -0.23343689374270507 -0.40384277794286083 -0.525
v -0.1578796175125376 -0.42381476748730784 -0.525
v -0.07962097725423153 -0.4359363091525603 -0.525
v -1.120551821219829e-16 -0.44000000000000006 -0.525
v 0.0796209772542313 -0.4359363091525599 -0.525
v 0.15787961751253748 -0.42381476748730784 -0.525
v 0.23343689374270507 -0.4038427779428614 -0.525
v 0.30500000000000027 -0.37636206679760825 -0.525
v 0.3713444716953196 -0.3418428366383368 -0.525
v 0.43133513652379385 -0.30087572106361027 -0.525
v 0.48394553757765363 -0.2541616787791423 -0.525
v 0.5282754963085075 -0.20250000000000032 -0.525
v 0.5635665148318851 -0.14677463037341792 -0.525
v 0.5892147540363322 -0.08793904642369732 -0.525
v 0.6047813654380243 -0.026999941304524544 -0.525
v 0.9800000000000004 0.10500000000000018 -0.4
v 0.9716159641463347 0.2022420132039385 -0.4
v 0.9466073097632873 0.29782018860137816 -0.4
v 0.9054019418610615 0.39009915711199183 -0.4
v 0.8487048957087506 0.47750000000000015 -0.4
v 0.777486273485411 0.5585272646114969 -0.4
v 0.6929646455628167 0.6317945519839779 -0.4
v 0.5965862004285467 0.6960482385169702 -0.4
v 0.49000000000000027 0.7501889258194072 -0.4
v 0.37502976371778807 0.7932902517209092 -0.4
v 0.2536426642004703 0.8246147405853563 -0.4
v 0.12791566837565077 0.8436264217234892 -0.4
v 6.000769315822036e-17 0.8500000000000003 -0.4
v -0.12791566837565035 0.8436264217234887 -0.4
v -0.2536426642004704 0.8246147405853563 -0.4
v -0.37502976371778807 0.7932902517209092 -0.4
v -0.4900000000000001 0.750188925819407 -0.4
v -0.5965862004285467 0.6960482385169702 -0.4
v -0.6929646455628167 0.6317945519839783 -0.4
v -0.7774862734854109 0.5585272646114969 -0.4
v -0.8487048957087506 0.47750000000000015 -0.4
v -0.9054019418610615 0.3900991571119923 -0.4
v -0.9466073097632872 0.29782018860137854 -0.4
v -0.9716159641463347 0.2022420132039385 -0.4
v -0.9800000000000004 0.10500000000000023 -0.4
v -0.9716159641463347 0.007757986796061586 -0.4
v -0.9466073097632874 -0.0878201886013774 -0.4
v -0.9054019418610615 -0.18009915711199154 -0.4
v -0.8487048957087504 -0.26749999999999985 -0.4
v -0.7774862734854111 -0.3485272646114965 -0.4
v -0.6929646455628168 -0.4217945519839779 -0.4
v -0.5965862004285469 -0.4860482385169701 -0.4
v -0.49000000000000044 -0.5401889258194068 -0.4
v -0.37502976371778884 -0.5832902517209084 -0.4
v -0.25364266420047027 -0.6146147405853557 -0.4
v -0.12791566837565066 -0.6336264217234886 -0.4
v -1.80023079474661e-16 -0.6399999999999997 -0.4
v 0.12791566837565022 -0.6336264217234888 -0.4
v 0.2536426642004701 -0.6146147405853559 -0.4
v 0.3750297637177883 -0.5832902517209088 -0.4
v 0.49000000000000027 -0.5401889258194066 -0.4
v 0.5965862004285467 -0.4860482385169702 -0.4
v 0.6929646455628167 -0.421794551983978 -0.4
v 0.7774862734854109 -0.34852726461149675 -0.4
v 0.8487048957087502 -0.2675000000000003 -0.4
v 0.9054019418610613 -0.1800991571119923 -0.4
v 0.9466073097632873 -0.08782018860137782 -0.4
v 0.9716159641463347 0.007757986796061711 -0.4
v 1.2499999999999996 0.16500000000000034 -0.275
v 1.239306076717263 0.2974840851033529 -0.275
v 1.2074072828613343 0.42770133077905903 -0.275
v 1.154849415639108 0.5534236838505666 -0.275
v 1.082531754730548 0.6725000000000008 -0.275
v 0.9916916753640435 0.7828928504438526 -0.275
v 0.8838834764831842 0.8827133829043462 -0.275
v 0.7609517862609009 0.9702536403956041 -0.275
v 0.6249999999999998 1.0440157848412053 -0.275
v 0.47835429045636213 1.1027377254989572 -0.275
v 0.3235238063781509 1.1454147136834048 -0.275
v 0.16315774027506458 1.1713165342944192 -0.275
v 7.654042494670952e-17 1.1800000000000015 -0.275
v -0.16315774027506413 1.171316534294418 -0.275
v -0.32352380637815087 1.1454147136834048 -0.275
v -0.478354290456362 1.1027377254989572 -0.275
v -0.6249999999999993 1.0440157848412062 -0.275
v -0.7609517862609009 0.9702536403956041 -0.275
v -0.883883476483184 0.8827133829043465 -0.275
v -0.991691675364043 0.7828928504438517 -0.275
v -1.082531754730548 0.6725000000000008 -0.275
v -1.154849415639108 0.5534236838505667 -0.275
v -1.2074072828613347 0.4277013307790593 -0.275
v -1.239306076717263 0.2974840851033529 -0.275
v -1.2499999999999996 0.1650000000000004 -0.275
v -1.239306076717263 0.03251591489664778 -0.275
v -1.2074072828613354 -0.09770133077905802 -0.275
v -1.1548494156391076 -0.22342368385056577 -0.275
v -1.082531754730548 -0.3424999999999999 -0.275
v -0.9916916753640438 -0.4528928504438512 -0.275
v -0.8838834764831842 -0.552713382904346 -0.275
v -0.7609517862609005 -0.6402536403956035 -0.275
v -0.6250000000000006 -0.714015784841205 -0.275
v -0.4783542904563628 -0.7727377254989555 -0.275
v -0.3235238063781507 -0.8154147136834042 -0.275
v -0.16315774027506447 -0.8413165342944171 -0.275
v -2.296212748401287e-16 -0.8499999999999995 -0.275
v 0.16315774027506394 -0.8413165342944179 -0.275
v 0.32352380637815015 -0.8154147136834051 -0.275
v 0.47835429045636246 -0.772737725498956 -0.275
v 0.6249999999999998 -0.7140157848412055 -0.275
v 0.7609517862609005 -0.6402536403956038 -0.275
v 0.8838834764831838 -0.5527133829043465 -0.275
v 0.9916916753640436 -0.4528928504438513 -0.275
v 1.0825317547305473 -0.34250000000000036 -0.275
v 1.154849415639108 -0.2234236838505667 -0.275
v 1.2074072828613343 -0.09770133077905818 -0.275
v 1.239306076717263 0.032515914896647874 -0.275
v 1.2700000000000005 0.11500000000000005 -0.15
v 1.2591349739447397 0.2500946089477535 -0.15
v 1.226725799387117 0.3828777116811093 -0.15
v 1.1733270062893344 0.5110773524978679 -0.15
v 1.0998522628062377 0.6325000000000002 -0.15
v 1.0075587421698695 0.7450680790240258 -0.15
v 0.8980256121069156 0.8468555185280771 -0.15
v 0.7731270148410756 0.9361207072014289 -0.15
v 0.6350000000000003 1.0113362929168939 -0.15
v 0.48600795910366423 1.0712153161491829 -0.15
v 0.32870018728020134 1.114733230209185 -0.15
v 0.16576826411946577 1.1411454315218932 -0.15
v 7.776507174585699e-17 1.1500000000000004 -0.15
v -0.16576826411946535 1.1411454315218932 -0.15
v -0.32870018728020156 1.114733230209185 -0.15
v -0.48600795910366434 1.0712153161491829 -0.15
v -0.6349999999999999 1.0113362929168939 -0.15
v -0.7731270148410756 0.9361207072014289 -0.15
v -0.8980256121069157 0.8468555185280774 -0.15
v -1.0075587421698688 0.7450680790240266 -0.15
v -1.0998522628062377 0.6325000000000002 -0.15
v -1.1733270062893344 0.5110773524978685 -0.15
v -1.226725799387117 0.3828777116811094 -0.15
v -1.2591349739447397 0.2500946089477535 -0.15
v -1.2700000000000005 0.1150000000000001 -0.15
v -1.2591349739447397 -0.020094608947753542 -0.15
v -1.2267257993871172 -0.15287771168110842 -0.15
v -1.1733270062893355 -0.2810773524978679 -0.15
v -1.099852262806237 -0.4025000000000002 -0.15
v -1.0075587421698695 -0.5150680790240256 -0.15
v -0.8980256121069159 -0.616855518528077 -0.15
v -0.7731270148410759 -0.7061207072014282 -0.15
v -0.6350000000000006 -0.7813362929168942 -0.15
v -0.4860079591036649 -0.8412153161491822 -0.15
v -0.3287001872802014 -0.8847332302091864 -0.15
v -0.16576826411946557 -0.9111454315218945 -0.15
v -2.3329521523757087e-16 -0.9200000000000006 -0.15
v 0.16576826411946516 -0.9111454315218945 -0.15
v 0.32870018728020106 -0.8847332302091864 -0.15
v 0.48600795910366446 -0.8412153161491818 -0.15
v 0.6350000000000003 -0.7813362929168937 -0.15
v 0.7731270148410752 -0.7061207072014288 -0.15
v 0.8980256121069157 -0.6168555185280771 -0.15
v 1.0075587421698684 -0.5150680790240265 -0.15
v 1.099852262806237 -0.4025000000000009 -0.15
v 1.1733270062893344 -0.28107735249786864 -0.15
v 1.226725799387117 -0.15287771168110886 -0.15
v 1.2591349739447397 -0.020094608947753487 -0.15
v 1.1399999999999995 0.04000000000000009 -0.025
v 1.130247141966143 0.14833673954264265 -0.025
v 1.1011554419695369 0.25481980743509214 -0.025
v 1.0532226670628662 0.3576272488630242 -0.025
v 0.9872689603142593 0.4550000000000003 -0.025
v 0.9044228079320077 0.5452719860772386 -0.025
v 0.8061017305526639 0.6268986283848348 -0.025
v 0.6939880290699412 0.6984832724417247 -0.025
v 0.5699999999999998 0.7588010851410837 -0.025
v 0.43625911289620234 0.8068200119843676 -0.025
v 0.29505371141687364 0.8417184358199266 -0.025
v 0.1487998591308588 0.8628992349402635 -0.025
v 6.980486755139911e-17 0.8699999999999997 -0.025
v -0.14879985913085841 0.8628992349402625 -0.025
v -0.2950537114168737 0.8417184358199266 -0.025
v -0.4362591128962021 0.8068200119843676 -0.025
v -0.5699999999999996 0.7588010851410838 -0.025
v -0.6939880290699412 0.6984832724417247 -0.025
v -0.8061017305526639 0.6268986283848341 -0.025
v -0.9044228079320074 0.5452719860772386 -0.025
v -0.9872689603142593 0.4550000000000003 -0.025
v -1.0532226670628662 0.35762724886302505 -0.025
v -1.1011554419695373 0.2548198074350926 -0.025
v -1.130247141966143 0.14833673954264265 -0.025
v -1.1399999999999995 0.0400000000000003 -0.025
v -1.130247141966143 -0.06833673954264285 -0.025
v -1.1011554419695382 -0.1748198074350918 -0.025
v -1.0532226670628668 -0.27762724886302437 -0.025
v -0.9872689603142593 -0.37499999999999983 -0.025
v -0.9044228079320078 -0.4652719860772378 -0.025
v -0.8061017305526641 -0.5468986283848338 -0.025
v -0.6939880290699416 -0.6184832724417252 -0.025
v -0.5700000000000005 -0.6788010851410835 -0.025
v -0.4362591128962029 -0.7268200119843677 -0.025
v -0.2950537114168733 -0.7617184358199269 -0.025
v -0.14879985913085883 -0.7828992349402628 -0.025
v -2.0941460265419728e-16 -0.7899999999999996 -0.025
v 0.14879985913085841 -0.7828992349402619 -0.025
v 0.29505371141687287 -0.7617184358199258 -0.025
v 0.43625911289620234 -0.7268200119843673 -0.025
v 0.5699999999999998 -0.6788010851410833 -0.025
v 0.6939880290699412 -0.6184832724417253 -0.025
v 0.8061017305526637 -0.5468986283848339 -0.025
v 0.9044228079320074 -0.4652719860772381 -0.025
v 0.987268960314259 -0.375 -0.025
v 1.0532226670628662 -0.27762724886302487 -0.025
v 1.1011554419695369 -0.17481980743509196 -0.025
v 1.130247141966143 -0.06833673954264281 -0.025
v 0.7599999999999998 0.010000000000000092 0.1
v 0.7534980946440952 0.08570519148763009 0.1
v 0.7341036279796915 0.16011504615946198 0.1
v 0.7021484447085776 0.231956390771752 0.1
v 0.6581793068761732 0.3 0.1
v 0.6029485386213385 0.3630816288250578 0.1
v 0.5374011537017762 0.4201219330881977 0.1
v 0.46265868604662763 0.4701449373689162 0.1
v 0.3799999999999999 0.5122947341949744 0.1
v 0.29083940859746826 0.5458501288565465 0.1
v 0.19670247427791576 0.5702369792476591 0.1
v 0.0991999060872392 0.5850380195968099 0.1
v 4.653657836759941e-17 0.5900000000000001 0.1
v -0.09919990608723897 0.5850380195968103 0.1
v -0.19670247427791576 0.5702369792476591 0.1
v -0.290839408597468 0.5458501288565465 0.1
v -0.3799999999999998 0.5122947341949747 0.1
v -0.46265868604662763 0.4701449373689162 0.1
v -0.5374011537017762 0.4201219330881972 0.1
v -0.6029485386213385 0.3630816288250581 0.1
v -0.6581793068761732 0.3 0.1
v -0.7021484447085776 0.23195639077175226 0.1
v -0.7341036279796914 0.16011504615946223 0.1
v -0.7534980946440952 0.08570519148763009 0.1
v -0.7599999999999998 0.010000000000000148 0.1
v -0.7534980946440952 -0.0657051914876299 0.1
v -0.734103627979692 -0.1401150461594617 0.1
v -0.7021484447085777 -0.21195639077175185 0.1
v -0.6581793068761732 -0.2799999999999999 0.1
v -0.6029485386213387 -0.34308162882505755 0.1
v -0.5374011537017762 -0.4001219330881972 0.1
v -0.46265868604662774 -0.450144937368916 0.1
v -0.38000000000000034 -0.49229473419497416 0.1
v -0.29083940859746854 -0.525850128856546 0.1
v -0.1967024742779156 -0.5502369792476594 0.1
v -0.09919990608723919 -0.56503801959681 0.1
v -1.396097351027982e-16 -0.5699999999999996 0.1
v 0.09919990608723891 -0.5650380195968098 0.1
v 0.1967024742779153 -0.5502369792476591 0.1
v 0.2908394085974684 -0.5258501288565458 0.1
v 0.3799999999999999 -0.4922947341949745 0.1
v 0.4626586860466276 -0.4501449373689163 0.1
v 0.5374011537017755 -0.40012193308819705 0.1
v 0.6029485386213385 -0.34308162882505777 0.1
v 0.6581793068761725 -0.28 0.1
v 0.7021484447085775 -0.21195639077175232 0.1
v 0.7341036279796915 -0.14011504615946185 0.1
v 0.7534980946440952 -0.06570519148762989 0.1
v 0.4200000000000001 -0.00500000000000006 0.225
v 0.41640684177700044 0.04133679823811823 0.225
v 0.40568884704140873 0.0868807610113948 0.225
v 0.38802940365474053 0.1308526184896069 0.225
v 0.3637306695894644 0.17249999999999993 0.225
v 0.3332084029223189 0.21111030729809585 0.225
v 0.29698484809835 0.24602290732122445 0.225
v 0.2556798001836627 0.2766404358033885 0.225
v 0.21000000000000008 0.3024390183434756 0.225
v 0.1607270415933378 0.32297723404150663 0.225
v 0.10870399894305871 0.3379036683326193 0.225
v 0.05482100073242174 0.34696292578770277 0.225
v 2.571758278209442e-17 0.35 0.225
v -0.05482100073242157 0.34696292578770255 0.225
v -0.10870399894305875 0.3379036683326193 0.225
v -0.1607270415933377 0.32297723404150663 0.225
v -0.20999999999999996 0.30243901834347586 0.225
v -0.2556798001836627 0.2766404358033885 0.225
v -0.29698484809835013 0.24602290732122445 0.225
v -0.33320840292231885 0.2111103072980959 0.225
v -0.3637306695894644 0.17249999999999993 0.225
v -0.38802940365474053 0.13085261848960691 0.225
v -0.4056888470414087 0.08688076101139489 0.225
v -0.41640684177700044 0.04133679823811823 0.225
v -0.4200000000000001 -0.0049999999999999906 0.225
v -0.41640684177700044 -0.051336798238118445 0.225
v -0.405688847041409 -0.0968807610113948 0.225
v -0.38802940365474053 -0.1408526184896069 0.225
v -0.3637306695894644 -0.1825000000000001 0.225
v -0.33320840292231896 -0.22111030729809586 0.225
v -0.29698484809835 -0.25602290732122446 0.225
v -0.25567980018366276 -0.2866404358033885 0.225
v -0.2100000000000002 -0.31243901834347565 0.225
v -0.16072704159333803 -0.3329772340415067 0.225
v -0.10870399894305868 -0.34790366833261943 0.225
v -0.05482100073242168 -0.3569629257877029 0.225
v -7.715274834628327e-17 -0.3600000000000001 0.225
v 0.05482100073242156 -0.35696292578770267 0.225
v 0.10870399894305857 -0.3479036683326195 0.225
v 0.16072704159333787 -0.332977234041507 0.225
v 0.21000000000000008 -0.3124390183434757 0.225
v 0.25567980018366265 -0.2866404358033885 0.225
v 0.2969848480983499 -0.25602290732122446 0.225
v 0.3332084029223188 -0.22111030729809603 0.225
v 0.36373066958946404 -0.18250000000000022 0.225
v 0.3880294036547404 -0.14085261848960717 0.225
v 0.40568884704140873 -0.09688076101139491 0.225
v 0.41640684177700044 -0.05133679823811842 0.225
v 0.23000000000000004 -0.014999999999999958 0.35
v 0.2280323181159764 0.007842083638509061 0.35
v 0.22216294004648585 0.030293332892941144 0.35
v 0.212492292477596 0.05196960066389067 0.35
v 0.19918584287042096 0.07249999999999998 0.35
v 0.182471268266984 0.09153325007652607 0.35
v 0.16263455967290608 0.10874368670764574 0.35
v 0.14001512867200577 0.12383683455096617 0.35
v 0.1150000000000001 0.1365544456622766 0.35
v 0.08801718944397066 0.146678918189475 0.35
v 0.05952838037357977 0.15403701960058688 0.35
v 0.030021024210611903 0.15850285074041687 0.35
v 1.408343819019456e-17 0.1599999999999999 0.35
v -0.030021024210611827 0.15850285074041678 0.35
v -0.05952838037357979 0.15403701960058688 0.35
v -0.08801718944397065 0.146678918189475 0.35
v -0.11499999999999998 0.13655444566227673 0.35
v -0.14001512867200577 0.12383683455096617 0.35
v -0.16263455967290594 0.10874368670764575 0.35
v -0.18247126826698412 0.09153325007652617 0.35
v -0.19918584287042096 0.07249999999999998 0.35
v -0.212492292477596 0.05196960066389081 0.35
v -0.2221629400464857 0.030293332892941185 0.35
v -0.2280323181159764 0.007842083638509061 0.35
v -0.23000000000000004 -0.014999999999999939 0.35
v -0.2280323181159764 -0.03784208363850901 0.35
v -0.22216294004648574 -0.060293332892941 0.35
v -0.21249229247759613 -0.08196960066389061 0.35
v -0.19918584287042093 -0.10249999999999992 0.35
v -0.18247126826698418 -0.121533250076526 0.35
v -0.16263455967290597 -0.13874368670764564 0.35
v -0.1400151286720058 -0.15383683455096597 0.35
v -0.1150000000000001 -0.16655444566227667 0.35
v -0.08801718944397076 -0.17667891818947512 0.35
v -0.05952838037357975 -0.1840370196005867 0.35
v -0.030021024210611872 -0.18850285074041667 0.35
v -4.225031457058369e-17 -0.18999999999999992 0.35
v 0.030021024210611806 -0.1885028507404168 0.35
v 0.05952838037357969 -0.18403701960058683 0.35
v 0.08801718944397076 -0.17667891818947504 0.35
v 0.1150000000000001 -0.16655444566227656 0.35
v 0.14001512867200575 -0.15383683455096608 0.35
v 0.1626345596729059 -0.13874368670764575 0.35
v 0.1824712682669841 -0.12153325007652609 0.35
v 0.1991858428704209 -0.10249999999999998 0.35
v 0.21249229247759593 -0.08196960066389074 0.35
v 0.22216294004648585 -0.06029333289294105 0.35
v 0.2280323181159764 -0.037842083638508994 0.35
v 0.23000000000000004 -0.014999999999999958 0.4125
v 0.2280323181159764 0.007842083638509061 0.4125
v 0.22216294004648585 0.030293332892941144 0.4125
v 0.212492292477596 0.05196960066389067 0.4125
v 0.19918584287042096 0.07249999999999998 0.4125
v 0.182471268266984 0.09153325007652607 0.4125
v 0.16263455967290608 0.10874368670764574 0.4125
v 0.14001512867200577 0.12383683455096617 0.4125
v 0.1150000000000001 0.1365544456622766 0.4125
v 0.08801718944397066 0.146678918189475 0.4125
v 0.05952838037357977 0.15403701960058688 0.4125
v 0.030021024210611903 0.15850285074041687 0.4125
v 1.408343819019456e-17 0.1599999999999999 0.4125
v -0.030021024210611827 0.15850285074041678 0.4125
v -0.05952838037357979 0.15403701960058688 0.4125
v -0.08801718944397065 0.146678918189475 0.4125
v -0.11499999999999998 0.13655444566227673 0.4125
v -0.14001512867200577 0.12383683455096617 0.4125
v -0.16263455967290594 0.10874368670764575 0.4125
v -0.18247126826698412 0.09153325007652617 0.4125
v -0.19918584287042096 0.07249999999999998 0.4125
v -0.212492292477596 0.05196960066389081 0.4125
v -0.2221629400464857 0.030293332892941185 0.4125
v -0.2280323181159764 0.007842083638509061 0.4125
v -0.23000000000000004 -0.014999999999999939 0.4125
v -0.2280323181159764 -0.03784208363850901 0.4125
v -0.22216294004648574 -0.060293332892941 0.4125
v -0.21249229247759613 -0.08196960066389061 0.4125
v -0.19918584287042093 -0.10249999999999992 0.4125
v -0.18247126826698418 -0.121533250076526 0.4125
v -0.16263455967290597 -0.13874368670764564 0.4125
v -0.1400151286720058 -0.15383683455096597 0.4125
v -0.1150000000000001 -0.16655444566227667 0.4125
v -0.08801718944397076 -0.17667891818947512 0.4125
v -0.05952838037357975 -0.1840370196005867 0.4125
v -0.030021024210611872 -0.18850285074041667 0.4125
v -4.225031457058369e-17 -0.18999999999999992 0.4125
v 0.030021024210611806 -0.1885028507404168 0.4125
v 0.05952838037357969 -0.18403701960058683 0.4125
v 0.08801718944397076 -0.17667891818947504 0.4125
v 0.1150000000000001 -0.16655444566227656 0.4125
v 0.14001512867200575 -0.15383683455096608 0.4125
v 0.1626345596729059 -0.13874368670764575 0.4125
v 0.1824712682669841 -0.12153325007652609 0.4125
v 0.1991858428704209 -0.10249999999999998 0.4125
v 0.21249229247759593 -0.08196960066389074 0.4125
v 0.22216294004648585 -0.06029333289294105 0.4125
v 0.2280323181159764 -0.037842083638508994 0.4125
v 0 -0.014999999999999958 -0.7125
v 0 -0.014999999999999958 0.4125
f 1 49 50
f 1 50 2
f 2 50 51
f 2 51 3
f 3 51 52
f 3 52 4
f 4 52 53
f 4 53 5
f 5 53 54
f 5 54 6
f 6 54 55
f 6 55 7
f 7 55 56
f 7 56 8
f 8 56 57
f 8 57 9
f 9 57 58
f 9 58 10
f 10 58 59
f 10 59 11
f 11 59 60
f 11 60 12
f 12 60 61
f 12 61 13
f 13 61 62
f 13 62 14
f 14 62 63
f 14 63 15
f 15 63 64
f 15 64 16
f 16 64 65
f 16 65 17
f 17 65 66
f 17 66 18
f 18 66 67
f 18 67 19
f 19 67 68
f 19 68 20
f 20 68 69
f 20 69 21
f 21 69 70
f 21 70 22
f 22 70 71
f 22 71 23
f 23 71 72
f 23 72 24
f 24 72 73
f 24 73 25
f 25 73 74
f 25 74 26
f 26 74 75
f 26 75 27
f 27 75 76
f 27 76 28
f 28 76 77
f 28 77 29
f 29 77 78
f 29 78 30
f 30 78 79
f 30 79 31
f 31 79 80
f 31 80 32
f 32 80 81
f 32 81 33
f 33 81 82
f 33 82 34
f 34 82 83
f 34 83 35
f 35 83 84
f 35 84 36
f 36 84 85
f 36 85 37
f 37 85 86
f 37 86 38
f 38 86 87
f 38 87 39
f 39 87 88
f 39 88 40
f 40 88 89
f 40 89 41
f 41 89 90
f 41 90 42
f 42 90 91
f 42 91 43
f 43 91 92
f 43 92 44
f 44 92 93
f 44 93 45
f 45 93 94
f 45 94 46
f 46 94 95
f 46 95 47
f 47 95 96
f 47 96 48
f 48 96 49
f 48 49 1
f 49 97 98
f 49 98 50
f 50 98 99
f 50 99 51
f 51 99 100
f 51 100 52
f 52 100 101
f 52 101 53
f 53 101 102
f 53 102 54
f 54 102 103
f 54 103 55
f 55 103 104
f 55 104 56
f 56 104 105
f 56 105 57
f 57 105 106
f 57 106 58
f 58 106 107
f 58 107 59
f 59 107 108
f 59 108 60
f 60 108 109
f 60 109 61
f 61 109 110
f 61 110 62
f 62 110 111
f 62 111 63
f 63 111 112
f 63 112 64
f 64 112 113
f 64 113 65
f 65 113 114
f 65 114 66
f 66 114 115
f 66 115 67
f 67 115 116
f 67 116 68
f 68 116 117
f 68 117 69
f 69 117 118
f 69 118 70
f 70 118 119
f 70 119 71
f 71 119 120
f 71 120 72
f 72 120 121
f 72 121 73
f 73 121 122
f 73 122 74
f 74 122 123
f 74 123 75
f 75 123 124
f 75 124 76
f 76 124 125
f 76 125 77
f 77 125 126
f 77 126 78
f 78 126 127
f 78 127 79
f 79 127 128
f 79 128 80
f 80 128 129
f 80 129 81
f 81 129 130
f 81 130 82
f 82 130 131
f 82 131 83
f 83 131 132
f 83 132 84
f 84 132 133
f 84 133 85
f 85 133 134
f 85 134 86
f 86 134 135
f 86 135 87
f 87 135 136
f 87 136 88
f 88 136 137
f 88 137 89
f 89 137 138
f 89 138 90
f 90 138 139
f 90 139 91
f 91 139 140
f 91 140 92
f 92 140 141
f 92 141 93
f 93 141 142
f 93 142 94
f 94 142 143
f 94 143 95
f 95 143 144
f 95 144 96
f 96 144 97
f 96 97 49
f 97 145 146
f 97 146 98
f 98 146 147
f 98 147 99
f 99 147 148
f 99 148 100
f 100 148 149
f 100 149 101
f 101 149 150
f 101 150 102
f 102 150 151
f 102 151 103
f 103 151 152
f 103 152 104
f 104 152 153
f 104 153 105
f 105 153 154
f 105 154 106
f 106 154 155
f 106 155 107
f 107 155 156
f 107 156 108
f 108 156 157
f 108 157 109
f 109 157 158
f 109 158 110
f 110 158 159
f 110 159 111
f 111 159 160
f 111 160 112
f 112 160 161
f 112 161 113
f 113 161 162
f 113 162 114
f 114 162 163
f 114 163 115
f 115 163 164
f 115 164 116
f 116 164 165
f 116 165 117
f 117 165 166
f 117 166 118
f 118 166 167
f 118 167 119
f 119 167 168
f 119 168 120
f 120 168 169
f 120 169 121
f 121 169 170
f 121 170 122
f 122 170 171
f 122 171 123
f 123 171 172
f 123 172 124
f 124 172 173
f 124 173 125
f 125 173 174
f 125 174 126
f 126 174 175
f 126 175 127
f 127 175 176
f 127 176 128
f 128 176 177
f 128 177 129
f 129 177 178
f 129 178 130
f 130 178 179
f 130 179 131
f 131 179 180
f 131 180 132
f 132 180 181
f 132 181 133
f 133 181 182
f 133 182 134
f 134 182 183
f 134 183 135
f 135 183 184
f 135 184 136
f 136 184 185
f 136 185 137
f 137 185 186
f 137 186 138
f 138 186 187
f 138 187 139
f 139 187 188
f 139 188 140
f 140 188 189
f 140 189 141
f 141 189 190
f 141 190 142
f 142 190 191
f 142 191 143
f 143 191 192
f 143 192 144
f 144 192 145
f 144 145 97
f 145 193 194
f 145 194 146
f 146 194 195
f 146 195 147
f 147 195 196
f 147 196 148
f 148 196 197
f 148 197 149
f 149 197 198
f 149 198 150
f 150 198 199
f 150 199 151
f 151 199 200
f 151 200 152
f 152 200 201
f 152 201 153
f 153 201 202
f 153 202 154
f 154 202 203
f 154 203 155
f 155 203 204
f 155 204 156
f 156 204 205
f 156 205 157
f 157 205 206
f 157 206 158
f 158 206 207
f 158 207 159
f 159 207 208
f 159 208 160
f 160 208 209
f 160 209 161
f 161 209 210
f 161 210 162
f 162 210 211
f 162 211 163
f 163 211 212
f 163 212 164
f 164 212 213
f 164 213 165
f 165 213 214
f 165 214 166
f 166 214 215
f 166 215 167
f 167 215 216
f 167 216 168
f 168 216 217
f 168 217 169
f 169 217 218
f 169 218 170
f 170 218 219
f 170 219 171
f 171 219 220
f 171 220 172
f 172 220 221
f 172 221 173
f 173 221 222
f 173 222 174
f 174 222 223
f 174 223 175
f 175 223 224
f 175 224 176
f 176 224 225
f 176 225 177
f 177 225 226
f 177 226 178
f 178 226 227
f 178 227 179
f 179 227 228
f 179 228 180
f 180 228 229
f 180 229 181
f 181 229 230
f 181 230 182
f 182 230 231
f 182 231 183
f 183 231 232
f 183 232 184
f 184 232 233
f 184 233 185
f 185 233 234
f 185 234 186
f 186 234 235
f 186 235 187
f 187 235 236
f 187 236 188
f 188 236 237
f 188 237 189
f 189 237 238
f 189 238 190
f 190 238 239
f 190 239 191
f 191 239 240
f 191 240 192
f 192 240 193
f 192 193 145
f 193 241 242
f 193 242 194
f 194 242 243
f 194 243 195
f 195 243 244
f 195 244 196
f 196 244 245
f 196 245 197
f 197 245 246
f 197 246 198
f 198 246 247
f 198 247 199
f 199 247 248
f 199 248 200
f 200 248 249
f 200 249 201
f 201 249 250
f 201 250 202
f 202 250 251
f 202 251 203
f 203 251 252
f 203 252 204
f 204 252 253
f 204 253 205
f 205 253 254
f 205 254 206
f 206 254 255
f 206 255 207
f 207 255 256
f 207 256 208
f 208 256 257
f 208 257 209
f 209 257 258
f 209 258 210
f 210 258 259
f 210 259 211
f 211 259 260
f 211 260 212
f 212 260 261
f 212 261 213
f 213 261 262
f 213 262 214
f 214 262 263
f 214 263 215
f 215 263 264
f 215 264 216
f 216 264 265
f 216 265 217
f 217 265 266
f 217 266 218
f 218 266 267
f 218 267 219
f 219 267 268
f 219 268 220
f 220 268 269
f 220 269 221
f 221 269 270
f 221 270 222
f 222 270 271
f 222 271 223
f 223 271 272
f 223 272 224
f 224 272 273
f 224 273 225
f 225 273 274
f 225 274 226
f 226 274 275
f 226 275 227
f 227 275 276
f 227 276 228
f 228 276 277
f 228 277 229
f 229 277 278
f 229 278 230
f 230 278 279
f 230 279 231
f 231 279 280
f 231 280 232
f 232 280 281
f 232 281 233
f 233 281 282
f 233 282 234
f 234 282 283
f 234 283 235
f 235 283 284
f 235 284 236
f 236 284 285
f 236 285 237
f 237 285 286
f 237 286 238
f 238 286 287
f 238 287 239
f 239 287 288
f 239 288 240
f 240 288 241
f 240 241 193
f 241 289 290
f 241 290 242
f 242 290 291
f 242 291 243
f 243 291 292
f 243 292 244
f 244 292 293
f 244 293 245
f 245 293 294
f 245 294 246
f 246 294 295
f 246 295 247
f 247 295 296
f 247 296 248
f 248 296 297
f 248 297 249
f 249 297 298
f 249 298 250
f 250 298 299
f 250 299 251
f 251 299 300
f 251 300 252
f 252 300 301
f 252 301 253
f 253 301 302
f 253 302 254
f 254 302 303
f 254 303 255
f 255 303 304
f 255 304 256
f 256 304 305
f 256 305 257
f 257 305 306
f 257 306 258
f 258 306 307
f 258 307 259
f 259 307 308
f 259 308 260
f 260 308 309
f 260 309 261
f 261 309 310
f 261 310 262
f 262 310 311
f 262 311 263
f 263 311 312
f 263 312 264
f 264 312 313
f 264 313 265
f 265 313 314
f 265 314 266
f 266 314 315
f 266 315 267
f 267 315 316
f 267 316 268
f 268 316 317
f 268 317 269
f 269 317 318
f 269 318 270
f 270 318 319
f 270 319 271
f 271 319 320
f 271 320 272
f 272 320 321
f 272 321 273
f 273 321 322
f 273 322 274
f 274 322 323
f 274 323 275
f 275 323 324
f 275 324 276
f 276 324 325
f 276 325 277
f 277 325 326
f 277 326 278
f 278 326 327
f 278 327 279
f 279 327 328
f 279 328 280
f 280 328 329
f 280 329 281
f 281 329 330
f 281 330 282
f 282 330 331
f 282 331 283
f 283 331 332
f 283 332 284
f 284 332 333
f 284 333 285
f 285 333 334
f 285 334 286
f 286 334 335
f 286 335 287
f 287 335 336
f 287 336 288
f 288 336 289
f 288 289 241
f 289 337 338
f 289 338 290
f 290 338 339
f 290 339 291
f 291 339 340
f 291 340 292
f 292 340 341
f 292 341 293
f 293 341 342
f 293 342 294
f 294 342 343
f 294 343 295
f 295 343 344
f 295 344 296
f 296 344 345
f 296 345 297
f 297 345 346
f 297 346 298
f 298 346 347
f 298 347 299
f 299 347 348
f 299 348 300
f 300 348 349
f 300 349 301
f 301 349 350
f 301 350 302
f 302 350 351
f 302 351 303
f 303 351 352
f 303 352 304
f 304 352 353
f 304 353 305
f 305 353 354
f 305 354 306
f 306 354 355
f 306 355 307
f 307 355 356
f 307 356 308
f 308 356 357
f 308 357 309
f 309 357 358
f 309 358 310
f 310 358 359
f 310 359 311
f 311 359 360
f 311 360 312
f 312 360 361
f 312 361 313
f 313 361 362
f 313 362 314
f 314 362 363
f 314 363 315
f 315 363 364
f 315 364 316
f 316 364 365
f 316 365 317
f 317 365 366
f 317 366 318
f 318 366 367
f 318 367 319
f 319 367 368
f 319 368 320
f 320 368 369
f 320 369 321
f 321 369 370
f 321 370 322
f 322 370 371
f 322 371 323
f 323 371 372
f 323 372 324
f 324 372 373
f 324 373 325
f 325 373 374
f 325 374 326
f 326 374 375
f 326 375 327
f 327 375 376
f 327 376 328
f 328 376 377
f 328 377 329
f 329 377 378
f 329 378 330
f 330 378 379
f 330 379 331
f 331 379 380
f 331 380 332
f 332 380 381
f 332 381 333
f 333 381 382
f 333 382 334
f 334 382 383
f 334 383 335
f 335 383 384
f 335 384 336
f 336 384 337
f 336 337 289
f 337 385 386
f 337 386 338
f 338 386 387
f 338 387 339
f 339 387 388
f 339 388 340
f 340 388 389
f 340 389 341
f 341 389 390
f 341 390 342
f 342 390 391
f 342 391 343
f 343 391 392
f 343 392 344
f 344 392 393
f 344 393 345
f 345 393 394
f 345 394 346
f 346 394 395
f 346 395 347
f 347 395 396
f 347 396 348
f 348 396 397
f 348 397 349
f 349 397 398
f 349 398 350
f 350 398 399
f 350 399 351
f 351 399 400
f 351 400 352
f 352 400 401
f 352 401 353
f 353 401 402
f 353 402 354
f 354 402 403
f 354 403 355
f 355 403 404
f 355 404 356
f 356 404 405
f 356 405 357
f 357 405 406
f 357 406 358
f 358 406 407
f 358 407 359
f 359 407 408
f 359 408 360
f 360 408 409
f 360 409 361
f 361 409 410
f 361 410 362
f 362 410 411
f 362 411 363
f 363 411 412
f 363 412 364
f 364 412 413
f 364 413 365
f 365 413 414
f 365 414 366
f 366 414 415
f 366 415 367
f 367 415 416
f 367 416 368
f 368 416 417
f 368 417 369
f 369 417 418
f 369 418 370
f 370 418 419
f 370 419 371
f 371 419 420
f 371 420 372
f 372 420 421
f 372 421 373
f 373 421 422
f 373 422 374
f 374 422 423
f 374 423 375
f 375 423 424
f 375 424 376
f 376 424 425
f 376 425 377
f 377 425 426
f 377 426 378
f 378 426 427
f 378 427 379
f 379 427 428
f 379 428 380
f 380 428 429
f 380 429 381
f 381 429 430
f 381 430 382
f 382 430 431
f 382 431 383
f 383 431 432
f 383 432 384
f 384 432 385
f 384 385 337
f 385 433 434
f 385 434 386
f 386 434 435
f 386 435 387
f 387 435 436
f 387 436 388
f 388 436 437
f 388 437 389
f 389 437 438
f 389 438 390
f 390 438 439
f 390 439 391
f 391 439 440
f 391 440 392
f 392 440 441
f 392 441 393
f 393 441 442
f 393 442 394
f 394 442 443
f 394 443 395
f 395 443 444
f 395 444 396
f 396 444 445
f 396 445 397
f 397 445 446
f 397 446 398
f 398 446 447
f 398 447 399
f 399 447 448
f 399 448 400
f 400 448 449
f 400 449 401
f 401 449 450
f 401 450 402
f 402 450 451
f 402 451 403
f 403 451 452
f 403 452 404
f 404 452 453
f 404 453 405
f 405 453 454
f 405 454 406
f 406 454 455
f 406 455 407
f 407 455 456
f 407 456 408
f 408 456 457
f 408 457 409
f 409 457 458
f 409 458 410
f 410 458 459
f 410 459 411
f 411 459 460
f 411 460 412
f 412 460 461
f 412 461 413
f 413 461 462
f 413 462 414
f 414 462 463
f 414 463 415
f 415 463 464
f 415 464 416
f 416 464 465
f 416 465 417
f 417 465 466
f 417 466 418
f 418 466 467
f 418 467 419
f 419 467 468
f 419 468 420
f 420 468 469
f 420 469 421
f 421 469 470
f 421 470 422
f 422 470 471
f 422 471 423
f 423 471 472
f 423 472 424
f 424 472 473
f 424 473 425
f 425 473 474
f 425 474 426
f 426 474 475
f 426 475 427
f 427 475 476
f 427 476 428
f 428 476 477
f 428 477 429
f 429 477 478
f 429 478 430
f 430 478 479
f 430 479 431
f 431 479 480
f 431 480 432
f 432 480 433
f 432 433 385
f 433 481 482
f 433 482 434
f 434 482 483
f 434 483 435
f 435 483 484
f 435 484 436
f 436 484 485
f 436 485 437
f 437 485 486
f 437 486 438
f 438 486 487
f 438 487 439
f 439 487 488
f 439 488 440
f 440 488 489
f 440 489 441
f 441 489 490
f 441 490 442
f 442 490 491
f 442 491 443
f 443 491 492
f 443 492 444
f 444 492 493
f 444 493 445
f 445 493 494
f 445 494 446
f 446 494 495
f 446 495 447
f 447 495 496
f 447 496 448
f 448 496 497
f 448 497 449
f 449 497 498
f 449 498 450
f 450 498 499
f 450 499 451
f 451 499 500
f 451 500 452
f 452 500 501
f 452 501 453
f 453 501 502
f 453 502 454
f 454 502 503
f 454 503 455
f 455 503 504
f 455 504 456
f 456 504 505
f 456 505 457
f 457 505 506
f 457 506 458
f 458 506 507
f 458 507 459
f 459 507 508
f 459 508 460
f 460 508 509
f 460 509 461
f 461 509 510
f 461 510 462
f 462 510 511
f 462 511 463
f 463 511 512
f 463 512 464
f 464 512 513
f 464 513 465
f 465 513 514
f 465 514 466
f 466 514 515
f 466 515 467
f 467 515 516
f 467 516 468
f 468 516 517
f 468 517 469
f 469 517 518
f 469 518 470
f 470 518 519
f 470 519 471
f 471 519 520
f 471 520 472
f 472 520 521
f 472 521 473
f 473 521 522
f 473 522 474
f 474 522 523
f 474 523 475
f 475 523 524
f 475 524 476
f 476 524 525
f 476 525 477
f 477 525 526
f 477 526 478
f 478 526 527
f 478 527 479
f 479 527 528
f 479 528 480
f 480 528 481
f 480 481 433
f 529 2 1
f 530 481 482
f 529 3 2
f 530 482 483
f 529 4 3
f 530 483 484
f 529 5 4
f 530 484 485
f 529 6 5
f 530 485 486
f 529 7 6
f 530 486 487
f 529 8 7
f 530 487 488
f 529 9 8
f 530 488 489
f 529 10 9
f 530 489 490
f 529 11 10
f 530 490 491
f 529 12 11
f 530 491 492
f 529 13 12
f 530 492 493
f 529 14 13
f 530 493 494
f 529 15 14
f 530 494 495
f 529 16 15
f 530 495 496
f 529 17 16
f 530 496 497
f 529 18 17
f 530 497 498
f 529 19 18
f 530 498 499
f 529 20 19
f 530 499 500
f 529 21 20
f 530 500 501
f 529 22 21
f 530 501 502
f 529 23 22
f 530 502 503
f 529 24 23
f 530 503 504
f 529 25 24
f 530 504 505
f 529 26 25
f 530 505 506
f 529 27 26
f 530 506 507
f 529 28 27
f 530 507 508
f 529 29 28
f 530 508 509
f 529 30 29
f 530 509 510
f 529 31 30
f 530 510 511
f 529 32 31
f 530 511 512
f 529 33 32
f 530 512 513
f 529 34 33
f 530 513 514
f 529 35 34
f 530 514 515
f 529 36 35
f 530 515 516
f 529 37 36
f 530 516 517
f 529 38 37
f 530 517 518
f 529 39 38
f 530 518 519
f 529 40 39
f 530 519 520
f 529 41 40
f 530 520 521
f 529 42 41
f 530 521 522
f 529 43 42
f 530 522 523
f 529 44 43
f 530 523 524
f 529 45 44
f 530 524 525
f 529 46 45
f 530 525 526
f 529 47 46
f 530 526 527
f 529 48 47
f 530 527 528
f 529 1 48
f 530 528 481
