o combined_0.25
v 0.25 -0.0024999999999999814 -0.7125
v 0.24786121534345262 0.024584184885660724 -0.7125
v 0.24148145657226705 0.05120495185877308 -0.7125
v 0.23096988312782168 0.07690681221575615 -0.7125
v 0.21650635094610962 0.10125 -0.7125
v 0.1983383350728088 0.12381799651930958 -0.7125
v 0.17677669529663687 0.14422465709620863 -0.7125
v 0.15219035725218016 0.1621208181104314 -0.7125
v 0.12500000000000003 0.17720027128527102 -0.7125
v 0.09567085809127243 0.189205002996092 -0.7125
v 0.06470476127563018 0.19792960895498174 -0.7125
v 0.03263154805501292 0.20322480873506563 -0.7125
v 1.5308084989341912e-17 0.20500000000000002 -0.7125
v -0.032631548055012845 0.2032248087350657 -0.7125
v -0.06470476127563021 0.19792960895498174 -0.7125
v -0.0956708580912724 0.189205002996092 -0.7125
v -0.12499999999999992 0.1772002712852711 -0.7125
v -0.15219035725218016 0.1621208181104314 -0.7125
v -0.1767766952966368 0.14422465709620869 -0.7125
v -0.1983383350728087 0.12381799651930961 -0.7125
v -0.21650635094610962 0.10125 -0.7125
v -0.23096988312782168 0.07690681221575615 -0.7125
v -0.241481456572267 0.051204951858773134 -0.7125
v -0.24786121534345262 0.024584184885660724 -0.7125
v -0.25 -0.002499999999999957 -0.7125
v -0.24786121534345262 -0.029584184885660728 -0.7125
v -0.24148145657226705 -0.056204951858772965 -0.7125
v -0.23096988312782168 -0.0819068122157561 -0.7125
v -0.21650635094610965 -0.10625000000000001 -0.7125
v -0.19833833507280885 -0.12881799651930945 -0.7125
v -0.17677669529663692 -0.14922465709620858 -0.7125
v -0.15219035725218022 -0.16712081811043125 -0.7125
v -0.1250000000000001 -0.18220027128527094 -0.7125
v -0.09567085809127257 -0.194205002996092 -0.7125
v -0.06470476127563016 -0.20292960895498166 -0.7125
v -0.03263154805501291 -0.20822480873506563 -0.7125
v -4.592425496802574e-17 -0.21000000000000002 -0.7125
v 0.03263154805501282 -0.20822480873506571 -0.7125
v 0.06470476127563007 -0.20292960895498174 -0.7125
v 0.0956708580912725 -0.194205002996092 -0.7125
v 0.12500000000000003 -0.18220027128527103 -0.7125
v 0.15219035725218014 -0.1671208181104313 -0.7125
v 0.17677669529663687 -0.14922465709620866 -0.7125
v 0.19833833507280868 -0.12881799651930959 -0.7125
v 0.2165063509461096 -0.1062500000000001 -0.7125
v 0.23096988312782163 -0.08190681221575624 -0.7125
v 0.24148145657226705 -0.05620495185877302 -0.7125
v 0.24786121534345262 -0.029584184885660714 -0.7125
v 0.25 -0.0024999999999999814 -0.65
v 0.24786121534345262 0.024584184885660724 -0.65
v 0.24148145657226705 0.05120495185877308 -0.65
v 0.23096988312782168 0.07690681221575615 -0.65
v 0.21650635094610962 0.10125 -0.65
v 0.1983383350728088 0.12381799651930958 -0.65
v 0.17677669529663687 0.14422465709620863 -0.65
v 0.15219035725218016 0.1621208181104314 -0.65
v 0.12500000000000003 0.17720027128527102 -0.65
v 0.09567085809127243 0.189205002996092 -0.65
v 0.06470476127563018 0.19792960895498174 -0.65
v 0.03263154805501292 0.20322480873506563 -0.65
v 1.5308084989341912e-17 0.20500000000000002 -0.65
v -0.032631548055012845 0.2032248087350657 -0.65
v -0.06470476127563021 0.19792960895498174 -0.65
v -0.0956708580912724 0.189205002996092 -0.65
v -0.12499999999999992 0.1772002712852711 -0.65
v -0.15219035725218016 0.1621208181104314 -0.65
v -0.1767766952966368 0.14422465709620869 -0.65
v -0.1983383350728087 0.12381799651930961 -0.65
v -0.21650635094610962 0.10125 -0.65
v -0.23096988312782168 0.07690681221575615 -0.65
v -0.241481456572267 0.051204951858773134 -0.65
v -0.24786121534345262 0.024584184885660724 -0.65
v -0.25 -0.002499999999999957 -0.65
v -0.24786121534345262 -0.029584184885660728 -0.65
v -0.24148145657226705 -0.056204951858772965 -0.65
v -0.23096988312782168 -0.0819068122157561 -0.65
v -0.21650635094610965 -0.10625000000000001 -0.65
v -0.19833833507280885 -0.12881799651930945 -0.65
v -0.17677669529663692 -0.14922465709620858 -0.65
v -0.15219035725218022 -0.16712081811043125 -0.65
v -0.1250000000000001 -0.18220027128527094 -0.65
v -0.09567085809127257 -0.194205002996092 -0.65
v -0.06470476127563016 -0.20292960895498166 -0.65
v -0.03263154805501291 -0.20822480873506563 -0.65
v -4.592425496802574e-17 -0.21000000000000002 -0.65
v 0.03263154805501282 -0.20822480873506571 -0.65
v 0.06470476127563007 -0.20292960895498174 -0.65
v 0.0956708580912725 -0.194205002996092 -0.65
v 0.12500000000000003 -0.18220027128527103 -0.65
v 0.15219035725218014 -0.1671208181104313 -0.65
v 0.17677669529663687 -0.14922465709620866 -0.65
v 0.19833833507280868 -0.12881799651930959 -0.65
v 0.2165063509461096 -0.1062500000000001 -0.65
v 0.23096988312782163 -0.08190681221575624 -0.65
v 0.24148145657226705 -0.05620495185877302 -0.65
v 0.24786121534345262 -0.029584184885660714 -0.65
v 0.4850000000000001 0.035 -0.525
v 0.480850757766298 0.08721047688802067 -0.525
v 0.46847402575019836 0.13852761804100827 -0.525
v 0.4480815732679741 0.188073372946036 -0.525
v 0.420022320835453 0.235 -0.525
v 0.3847763700412491 0.2785045716034883 -0.525
v 0.3429467888754758 0.31784271247461915 -0.525
v 0.29524929306922953 0.3523413361164939 -0.525
v 0.24250000000000016 0.38141016151377544 -0.525
v 0.18560146469706867 0.40455181300451454 -0.525
v 0.12552723687472256 0.421370330515627 -0.525
v 0.0633052032267251 0.4315779445495241 -0.525
v 2.969768487932332e-17 0.43500000000000005 -0.525
v -0.06330520322672492 0.43157794454952436 -0.525
v -0.12552723687472264 0.421370330515627 -0.525
v -0.1856014646970685 0.40455181300451454 -0.525
v -0.24249999999999997 0.3814101615137757 -0.525
v -0.29524929306922953 0.3523413361164939 -0.525
v -0.34294678887547553 0.31784271247461887 -0.525
v -0.38477637004124915 0.2785045716034883 -0.525
v -0.420022320835453 0.235 -0.525
v -0.4480815732679741 0.18807337294603593 -0.525
v -0.4684740257501981 0.1385276180410084 -0.525
v -0.480850757766298 0.08721047688802067 -0.525
v -0.4850000000000001 0.035000000000000045 -0.525
v -0.480850757766298 -0.017210476888020694 -0.525
v -0.46847402575019836 -0.06852761804100815 -0.525
v -0.4480815732679744 -0.11807337294603587 -0.525
v -0.42002232083545293 -0.16500000000000004 -0.525
v -0.38477637004124926 -0.20850457160348812 -0.525
v -0.3429467888754757 -0.24784271247461903 -0.525
v -0.29524929306922976 -0.2823413361164939 -0.525
v -0.24250000000000022 -0.3114101615137753 -0.525
v -0.18560146469706879 -0.3345518130045145 -0.525
v -0.1255272368747225 -0.3513703305156275 -0.525
v -0.06330520322672506 -0.3615779445495243 -0.525
v -8.909305463796998e-17 -0.365 -0.525
v 0.06330520322672488 -0.36157794454952413 -0.525
v 0.1255272368747224 -0.3513703305156275 -0.525
v 0.18560146469706873 -0.33455181300451475 -0.525
v 0.24250000000000016 -0.3114101615137754 -0.525
v 0.2952492930692295 -0.28234133611649415 -0.525
v 0.3429467888754754 -0.24784271247461911 -0.525
v 0.3847763700412491 -0.2085045716034883 -0.525
v 0.42002232083545255 -0.1650000000000002 -0.525
v 0.4480815732679741 -0.11807337294603612 -0.525
v 0.46847402575019836 -0.06852761804100826 -0.525
v 0.480850757766298 -0.017210476888020666 -0.525
v 0.7300000000000002 0.08000000000000008 -0.4
v 0.7237547488028819 0.15766308437093074 -0.4
v 0.7051258531910201 0.2339973318359999 -0.4
v 0.6744320587332395 0.3076966422572284 -0.4
v 0.6321985447626406 0.37750000000000006 -0.4
v 0.5791479384126019 0.44221305026018876 -0.4
v 0.5161879502661798 0.5007285348059958 -0.4
v 0.4443958431763663 0.5520452374732849 -0.4
v 0.36500000000000016 0.5952851152517412 -0.4
v 0.2793589056265156 0.6297083218442159 -0.4
v 0.18893790292484014 0.6547258666419958 -0.4
v 0.0952841203206378 0.6699096925174174 -0.4
v 4.4699608168878416e-17 0.6750000000000002 -0.4
v -0.09528412032063752 0.6699096925174173 -0.4
v -0.1889379029248402 0.6547258666419958 -0.4
v -0.27935890562651555 0.6297083218442159 -0.4
v -0.365 0.5952851152517411 -0.4
v -0.4443958431763663 0.5520452374732849 -0.4
v -0.5161879502661797 0.500728534805996 -0.4
v -0.5791479384126019 0.44221305026018887 -0.4
v -0.6321985447626406 0.37750000000000006 -0.4
v -0.6744320587332395 0.30769664225722865 -0.4
v -0.70512585319102 0.23399733183600016 -0.4
v -0.7237547488028819 0.15766308437093074 -0.4
v -0.7300000000000002 0.08000000000000014 -0.4
v -0.7237547488028819 0.002336915629069271 -0.4
v -0.7051258531910201 -0.07399733183599949 -0.4
v -0.6744320587332396 -0.14769664225722823 -0.4
v -0.6321985447626405 -0.21749999999999997 -0.4
v -0.579147938412602 -0.2822130502601885 -0.4
v -0.5161879502661798 -0.3407285348059958 -0.4
v -0.44439584317636643 -0.3920452374732848 -0.4
v -0.3650000000000003 -0.43528511525174096 -0.4
v -0.2793589056265161 -0.46970832184421546 -0.4
v -0.18893790292484008 -0.49472586664199547 -0.4
v -0.09528412032063772 -0.509909692517417 -0.4
v -1.340988245066352e-16 -0.5149999999999999 -0.4
v 0.09528412032063742 -0.5099096925174174 -0.4
v 0.18893790292483992 -0.49472586664199575 -0.4
v 0.2793589056265158 -0.4697083218442156 -0.4
v 0.36500000000000016 -0.43528511525174085 -0.4
v 0.44439584317636627 -0.3920452374732849 -0.4
v 0.5161879502661797 -0.3407285348059959 -0.4
v 0.5791479384126018 -0.2822130502601888 -0.4
v 0.6321985447626403 -0.21750000000000025 -0.4
v 0.6744320587332394 -0.14769664225722876 -0.4
v 0.7051258531910201 -0.07399733183599977 -0.4
v 0.7237547488028819 0.002336915629069347 -0.4
v 0.8999999999999999 0.11500000000000017 -0.275
v 0.8923003752364294 0.21485253704833973 -0.275
v 0.8693332436601608 0.3129965695034286 -0.275
v 0.8314915792601578 0.40775282575929395 -0.275
v 0.7794228634059945 0.49750000000000033 -0.275
v 0.7140180062621113 0.5807024931916718 -0.275
v 0.6363961030678926 0.6559366876077091 -0.275
v 0.5478852861078487 0.721915305322795 -0.275
v 0.44999999999999996 0.7775094338950954 -0.275
v 0.34441508912858076 0.821767842371135 -0.275
v 0.23293714059226867 0.8539332571111374 -0.275
v 0.11747357299804652 0.8734553189509657 -0.275
v 5.510910596163087e-17 0.8800000000000008 -0.275
v -0.1174735729980462 0.8734553189509653 -0.275
v -0.23293714059226867 0.8539332571111374 -0.275
v -0.3444150891285807 0.821767842371135 -0.275
v -0.4499999999999997 0.7775094338950961 -0.275
v -0.5478852861078487 0.721915305322795 -0.275
v -0.6363961030678926 0.6559366876077093 -0.275
v -0.7140180062621112 0.5807024931916716 -0.275
v -0.7794228634059945 0.49750000000000033 -0.275
v -0.8314915792601578 0.407752825759294 -0.275
v -0.8693332436601611 0.3129965695034288 -0.275
v -0.8923003752364294 0.21485253704833973 -0.275
v -0.8999999999999999 0.11500000000000023 -0.275
v -0.8923003752364294 0.015147462951660536 -0.275
v -0.8693332436601615 -0.08299656950342801 -0.275
v -0.8314915792601578 -0.17775282575929346 -0.275
v -0.7794228634059945 -0.2675 -0.275
v -0.7140180062621118 -0.35070249319167107 -0.275
v -0.6363961030678927 -0.425936687607709 -0.275
v -0.5478852861078485 -0.49191530532279476 -0.275
v -0.4500000000000004 -0.5475094338950954 -0.275
v -0.3444150891285812 -0.5917678423711341 -0.275
v -0.23293714059226855 -0.6239332571111372 -0.275
v -0.11747357299804644 -0.6434553189509647 -0.275
v -1.6532731788489266e-16 -0.6499999999999999 -0.275
v 0.11747357299804609 -0.6434553189509651 -0.275
v 0.23293714059226817 -0.6239332571111377 -0.275
v 0.344415089128581 -0.5917678423711343 -0.275
v 0.44999999999999996 -0.5475094338950958 -0.275
v 0.5478852861078484 -0.49191530532279504 -0.275
v 0.6363961030678924 -0.4259366876077092 -0.275
v 0.7140180062621113 -0.3507024931916713 -0.275
v 0.7794228634059942 -0.2675000000000003 -0.275
v 0.8314915792601578 -0.17775282575929413 -0.275
v 0.8693332436601608 -0.08299656950342818 -0.275
v 0.8923003752364294 0.015147462951660612 -0.275
v 0.9200000000000003 0.09000000000000002 -0.15
v 0.9121292724639058 0.19246306089274054 -0.15
v 0.888651760185943 0.2931729504054789 -0.15
v 0.849969169910384 0.3904064944065955 -0.15
v 0.796743371481684 0.48250000000000004 -0.15
v 0.7298850730679367 0.5678777217718457 -0.15
v 0.6505382386916239 0.64507882323144 -0.15
v 0.5600605146880232 0.71278237212862 -0.15
v 0.4600000000000002 0.7698299419707842 -0.15
v 0.35206875777588276 0.8152454330213608 -0.15
v 0.23811352149431908 0.8482517736369183 -0.15
v 0.12008409684244761 0.8682842161784409 -0.15
v 5.633375276077827e-17 0.8750000000000001 -0.15
v -0.12008409684244731 0.8682842161784409 -0.15
v -0.2381135214943192 0.8482517736369183 -0.15
v -0.3520687577758827 0.8152454330213608 -0.15
v -0.45999999999999985 0.7698299419707842 -0.15
v -0.5600605146880232 0.71278237212862 -0.15
v -0.6505382386916239 0.6450788232314402 -0.15
v -0.7298850730679364 0.567877721771846 -0.15
v -0.796743371481684 0.48250000000000004 -0.15
v -0.849969169910384 0.3904064944065957 -0.15
v -0.888651760185943 0.2931729504054791 -0.15
v -0.9121292724639058 0.19246306089274054 -0.15
v -0.9200000000000003 0.09000000000000008 -0.15
v -0.9121292724639058 -0.012463060892740616 -0.15
v -0.888651760185943 -0.1131729504054784 -0.15
v -0.8499691699103844 -0.21040649440659542 -0.15
v -0.7967433714816836 -0.3025000000000001 -0.15
v -0.7298850730679369 -0.38787772177184543 -0.15
v -0.6505382386916241 -0.4650788232314399 -0.15
v -0.5600605146880234 -0.5327823721286193 -0.15
v -0.4600000000000004 -0.5898299419707843 -0.15
v -0.3520687577758832 -0.6352454330213602 -0.15
v -0.23811352149431908 -0.6682517736369189 -0.15
v -0.1200840968424475 -0.6882842161784415 -0.15
v -1.6900125828233476e-16 -0.6950000000000003 -0.15
v 0.1200840968424472 -0.6882842161784415 -0.15
v 0.2381135214943188 -0.6682517736369189 -0.15
v 0.35206875777588287 -0.6352454330213599 -0.15
v 0.4600000000000002 -0.5898299419707842 -0.15
v 0.5600605146880229 -0.5327823721286198 -0.15
v 0.6505382386916239 -0.46507882323144 -0.15
v 0.7298850730679362 -0.38787772177184604 -0.15
v 0.7967433714816834 -0.30250000000000055 -0.15
v 0.8499691699103837 -0.21040649440659598 -0.15
v 0.888651760185943 -0.1131729504054787 -0.15
v 0.9121292724639058 -0.01246306089274056 -0.15
v 0.8399999999999999 0.05250000000000003 -0.025
v 0.8328136835540003 0.13962623330688434 -0.025
v 0.811377694082817 0.22526171260593256 -0.025
v 0.7760588073094805 0.3079411911036973 -0.025
v 0.7274613391789281 0.3862500000000001 -0.025
v 0.6664168058446374 0.4588482538633212 -0.025
v 0.5939696961966998 0.5244937764420206 -0.025
v 0.5113596003673252 0.5820633546443992 -0.025
v 0.41999999999999993 0.6305719570261126 -0.025
v 0.3214540831866754 0.6691895879512837 -0.025
v 0.21740799788611742 0.697255489047953 -0.025
v 0.10964200146484337 0.7142894449670188 -0.025
v 5.1435165564188826e-17 0.7199999999999998 -0.025
v -0.1096420014648431 0.7142894449670185 -0.025
v -0.21740799788611748 0.697255489047953 -0.025
v -0.3214540831866753 0.6691895879512837 -0.025
v -0.4199999999999998 0.6305719570261127 -0.025
v -0.5113596003673252 0.5820633546443992 -0.025
v -0.5939696961966997 0.5244937764420203 -0.025
v -0.6664168058446371 0.4588482538633213 -0.025
v -0.7274613391789281 0.3862500000000001 -0.025
v -0.7760588073094805 0.3079411911036977 -0.025
v -0.8113776940828171 0.2252617126059328 -0.025
v -0.8328136835540003 0.13962623330688434 -0.025
v -0.8399999999999999 0.05250000000000015 -0.025
v -0.8328136835540003 -0.03462623330688451 -0.025
v -0.8113776940828176 -0.1202617126059323 -0.025
v -0.776058807309481 -0.2029411911036973 -0.025
v -0.7274613391789281 -0.28124999999999994 -0.025
v -0.6664168058446376 -0.3538482538633208 -0.025
v -0.5939696961966999 -0.4194937764420202 -0.025
v -0.5113596003673254 -0.4770633546443994 -0.025
v -0.4200000000000004 -0.5255719570261125 -0.025
v -0.32145408318667584 -0.5641895879512837 -0.025
v -0.21740799788611725 -0.5922554890479532 -0.025
v -0.10964200146484336 -0.6092894449670185 -0.025
v -1.5430549669256646e-16 -0.6149999999999998 -0.025
v 0.10964200146484306 -0.6092894449670181 -0.025
v 0.21740799788611692 -0.5922554890479528 -0.025
v 0.32145408318667545 -0.5641895879512836 -0.025
v 0.41999999999999993 -0.5255719570261124 -0.025
v 0.5113596003673251 -0.47706335464439953 -0.025
v 0.5939696961966997 -0.4194937764420203 -0.025
v 0.6664168058446371 -0.3538482538633211 -0.025
v 0.7274613391789279 -0.2812500000000001 -0.025
v 0.7760588073094805 -0.20294119110369777 -0.025
v 0.811377694082817 -0.12026171260593246 -0.025
v 0.8328136835540003 -0.03462623330688447 -0.025
v 0.6099999999999999 0.035000000000000045 0.1
v 0.6047813654380241 0.10091572707112612 0.1
v 0.5892147540363315 0.16570361777677295 0.1
v 0.5635665148318848 0.2282551333443703 0.1
v 0.5282754963085076 0.2875 0.1
v 0.48394553757765335 0.34242452164940385 0.1
v 0.431335136523794 0.3920889244992065 0.1
v 0.3713444716953196 0.43564343684707363 0.1
v 0.305 0.4723428289111415 0.1
v 0.23343689374270482 0.5015591639181999 0.1
v 0.15787961751253765 0.5227925422759793 0.1
v 0.0796209772542315 0.5356796549937741 0.1
v 3.7351727373994264e-17 0.54 0.1
v -0.07962097725423131 0.5356796549937745 0.1
v -0.15787961751253768 0.5227925422759793 0.1
v -0.23343689374270465 0.5015591639181999 0.1
v -0.3049999999999998 0.47234282891114165 0.1
v -0.3713444716953196 0.43564343684707363 0.1
v -0.431335136523794 0.39208892449920635 0.1
v -0.48394553757765324 0.34242452164940407 0.1
v -0.5282754963085076 0.2875 0.1
v -0.5635665148318848 0.22825513334437048 0.1
v -0.5892147540363314 0.16570361777677312 0.1
v -0.6047813654380241 0.10091572707112612 0.1
v -0.6099999999999999 0.0350000000000001 0.1
v -0.6047813654380241 -0.03091572707112608 0.1
v -0.5892147540363317 -0.09570361777677272 0.1
v -0.5635665148318848 -0.1582551333443702 0.1
v -0.5282754963085075 -0.21749999999999997 0.1
v -0.48394553757765346 -0.2724245216494037 0.1
v -0.4313351365237941 -0.32208892449920634 0.1
v -0.3713444716953197 -0.36564343684707357 0.1
v -0.30500000000000027 -0.40234282891114137 0.1
v -0.23343689374270504 -0.4315591639181996 0.1
v -0.15787961751253754 -0.4527925422759793 0.1
v -0.07962097725423148 -0.46567965499377423 0.1
v -1.120551821219828e-16 -0.4699999999999998 0.1
v 0.07962097725423126 -0.4656796549937742 0.1
v 0.15787961751253732 -0.4527925422759793 0.1
v 0.23343689374270488 -0.43155916391819954 0.1
v 0.305 -0.40234282891114154 0.1
v 0.3713444716953195 -0.3656434368470737 0.1
v 0.43133513652379374 -0.3220889244992063 0.1
v 0.48394553757765324 -0.2724245216494039 0.1
v 0.5282754963085071 -0.2175000000000001 0.1
v 0.5635665148318847 -0.15825513334437058 0.1
v 0.5892147540363315 -0.09570361777677286 0.1
v 0.6047813654380241 -0.030915727071126057 0.1
v 0.37000000000000005 0.019999999999999962 0.225
v 0.3668345987083099 0.06307364343261697 0.225
v 0.3573925557269553 0.1054102848838318 0.225
v 0.34183542702917613 0.1462855326804796 0.225
v 0.3204293994002424 0.18499999999999994 0.225
v 0.2935407359077571 0.2208912715728778 0.225
v 0.2616295090390226 0.2533452377915607 0.225
v 0.22524172873322668 0.2818066022961076 0.225
v 0.18500000000000005 0.3057883832488647 0.225
v 0.14159286997508327 0.32488024572872454 0.225
v 0.09576304668793267 0.33875552267539255 0.225
v 0.048294691121419146 0.34717680425335745 0.225
v 2.2655965784226033e-17 0.35 0.225
v -0.04829469112141901 0.3471768042533574 0.225
v -0.09576304668793272 0.33875552267539255 0.225
v -0.1415928699750832 0.32488024572872454 0.225
v -0.18499999999999994 0.3057883832488648 0.225
v -0.22524172873322668 0.2818066022961076 0.225
v -0.26162950903902266 0.2533452377915607 0.225
v -0.29354073590775703 0.22089127157287786 0.225
v -0.3204293994002424 0.18499999999999994 0.225
v -0.34183542702917613 0.14628553268047967 0.225
v -0.3573925557269553 0.10541028488383189 0.225
v -0.3668345987083099 0.06307364343261697 0.225
v -0.37000000000000005 0.020000000000000014 0.225
v -0.3668345987083099 -0.023073643432617124 0.225
v -0.35739255572695544 -0.06541028488383176 0.225
v -0.34183542702917613 -0.1062855326804796 0.225
v -0.3204293994002424 -0.14500000000000007 0.225
v -0.29354073590775714 -0.18089127157287777 0.225
v -0.26162950903902266 -0.21334523779156073 0.225
v -0.22524172873322673 -0.2418066022961076 0.225
v -0.18500000000000016 -0.26578838324886467 0.225
v -0.14159286997508347 -0.28488024572872456 0.225
v -0.09576304668793265 -0.2987555226753926 0.225
v -0.0482946911214191 -0.3071768042533575 0.225
v -6.796789735267811e-17 -0.31000000000000005 0.225
v 0.04829469112141899 -0.30717680425335747 0.225
v 0.09576304668793253 -0.2987555226753927 0.225
v 0.14159286997508333 -0.2848802457287247 0.225
v 0.18500000000000005 -0.2657883832488648 0.225
v 0.22524172873322662 -0.24180660229610762 0.225
v 0.26162950903902255 -0.21334523779156078 0.225
v 0.293540735907757 -0.18089127157287793 0.225
v 0.3204293994002422 -0.14500000000000018 0.225
v 0.341835427029176 -0.10628553268047988 0.225
v 0.3573925557269553 -0.06541028488383187 0.225
v 0.3668345987083099 -0.023073643432617096 0.225
v 0.20500000000000002 -0.0024999999999999814 0.35
v 0.20324619658163112 0.018710506235758397 0.35
v 0.19801479438925906 0.03955809482915963 0.35
v 0.18939530416481382 0.059686057759327074 0.35
v 0.17753520777580994 0.07874999999999999 0.35
v 0.16263743475970316 0.09642373221391709 0.35
v 0.1449568901432423 0.11240485194281394 0.35
v 0.12479609294678773 0.12641991779732573 0.35
v 0.10250000000000006 0.1382291281149712 0.35
v 0.07845010363484342 0.14763042403308402 0.35
v 0.05305790424601675 0.15446294677197359 0.35
v 0.026757869405110605 0.1586097899732442 0.35
v 1.255262969126037e-17 0.15999999999999998 0.35
v -0.02675786940511054 0.1586097899732442 0.35
v -0.05305790424601677 0.15446294677197359 0.35
v -0.0784501036348434 0.14763042403308402 0.35
v -0.10249999999999997 0.1382291281149713 0.35
v -0.12479609294678773 0.12641991779732573 0.35
v -0.14495689014324226 0.11240485194281395 0.35
v -0.16263743475970321 0.09642373221391715 0.35
v -0.17753520777580994 0.07874999999999999 0.35
v -0.18939530416481382 0.059686057759327144 0.35
v -0.198014794389259 0.03955809482915967 0.35
v -0.20324619658163112 0.018710506235758397 0.35
v -0.20500000000000002 -0.0024999999999999623 0.35
v -0.20324619658163112 -0.02371050623575839 0.35
v -0.198014794389259 -0.044558094829159525 0.35
v -0.18939530416481387 -0.06468605775932704 0.35
v -0.17753520777580994 -0.08374999999999998 0.35
v -0.16263743475970327 -0.10142373221391704 0.35
v -0.14495689014324226 -0.1174048519428139 0.35
v -0.12479609294678778 -0.13141991779732562 0.35
v -0.10250000000000009 -0.14322912811497124 0.35
v -0.0784501036348435 -0.15263042403308405 0.35
v -0.05305790424601673 -0.15946294677197348 0.35
v -0.02675786940511058 -0.16360978997324413 0.35
v -3.765788907378111e-17 -0.16499999999999998 0.35
v 0.026757869405110518 -0.1636097899732442 0.35
v 0.05305790424601667 -0.15946294677197356 0.35
v 0.07845010363484348 -0.15263042403308402 0.35
v 0.10250000000000006 -0.14322912811497118 0.35
v 0.12479609294678773 -0.1314199177973257 0.35
v 0.1449568901432422 -0.11740485194281397 0.35
v 0.1626374347597032 -0.10142373221391712 0.35
v 0.1775352077758099 -0.08375000000000003 0.35
v 0.18939530416481376 -0.06468605775932715 0.35
v 0.19801479438925906 -0.04455809482915958 0.35
v 0.20324619658163112 -0.023710506235758377 0.35
v 0.20500000000000002 -0.0024999999999999814 0.4125
v 0.20324619658163112 0.018710506235758397 0.4125
v 0.19801479438925906 0.03955809482915963 0.4125
v 0.18939530416481382 0.059686057759327074 0.4125
v 0.17753520777580994 0.07874999999999999 0.4125
v 0.16263743475970316 0.09642373221391709 0.4125
v 0.1449568901432423 0.11240485194281394 0.4125
v 0.12479609294678773 0.12641991779732573 0.4125
v 0.10250000000000006 0.1382291281149712 0.4125
v 0.07845010363484342 0.14763042403308402 0.4125
v 0.05305790424601675 0.15446294677197359 0.4125
v 0.026757869405110605 0.1586097899732442 0.4125
v 1.255262969126037e-17 0.15999999999999998 0.4125
v -0.02675786940511054 0.1586097899732442 0.4125
v -0.05305790424601677 0.15446294677197359 0.4125
v -0.0784501036348434 0.14763042403308402 0.4125
v -0.10249999999999997 0.1382291281149713 0.4125
v -0.12479609294678773 0.12641991779732573 0.4125
v -0.14495689014324226 0.11240485194281395 0.4125
v -0.16263743475970321 0.09642373221391715 0.4125
v -0.17753520777580994 0.07874999999999999 0.4125
v -0.18939530416481382 0.059686057759327144 0.4125
v -0.198014794389259 0.03955809482915967 0.4125
v -0.20324619658163112 0.018710506235758397 0.4125
v -0.20500000000000002 -0.0024999999999999623 0.4125
v -0.20324619658163112 -0.02371050623575839 0.4125
v -0.198014794389259 -0.044558094829159525 0.4125
v -0.18939530416481387 -0.06468605775932704 0.4125
v -0.17753520777580994 -0.08374999999999998 0.4125
v -0.16263743475970327 -0.10142373221391704 0.4125
v -0.14495689014324226 -0.1174048519428139 0.4125
v -0.12479609294678778 -0.13141991779732562 0.4125
v -0.10250000000000009 -0.14322912811497124 0.4125
v -0.0784501036348435 -0.15263042403308405 0.4125
v -0.05305790424601673 -0.15946294677197348 0.4125
v -0.02675786940511058 -0.16360978997324413 0.4125
v -3.765788907378111e-17 -0.16499999999999998 0.4125
v 0.026757869405110518 -0.1636097899732442 0.4125
v 0.05305790424601667 -0.15946294677197356 0.4125
v 0.07845010363484348 -0.15263042403308402 0.4125
v 0.10250000000000006 -0.14322912811497118 0.4125
v 0.12479609294678773 -0.1314199177973257 0.4125
v 0.1449568901432422 -0.11740485194281397 0.4125
v 0.1626374347597032 -0.10142373221391712 0.4125
v 0.1775352077758099 -0.08375000000000003 0.4125
v 0.18939530416481376 -0.06468605775932715 0.4125
v 0.19801479438925906 -0.04455809482915958 0.4125
v 0.20324619658163112 -0.023710506235758377 0.4125
v 0 -0.0024999999999999814 -0.7125
v 0 -0.0024999999999999814 0.4125
f 1 49 50
f 1 50 2
f 2 50 51
f 2 51 3
f 3 51 52
f 3 52 4
f 4 52 53
f 4 53 5
f 5 53 54
f 5 54 6
f 6 54 55
f 6 55 7
f 7 55 56
f 7 56 8
f 8 56 57
f 8 57 9
f 9 57 58
f 9 58 10
f 10 58 59
f 10 59 11
f 11 59 60
f 11 60 12
f 12 60 61
f 12 61 13
f 13 61 62
f 13 62 14
f 14 62 63
f 14 63 15
f 15 63 64
f 15 64 16
f 16 64 65
f 16 65 17
f 17 65 66
f 17 66 18
f 18 66 67
f 18 67 19
f 19 67 68
f 19 68 20
f 20 68 69
f 20 69 21
f 21 69 70
f 21 70 22
f 22 70 71
f 22 71 23
f 23 71 72
f 23 72 24
f 24 72 73
f 24 73 25
f 25 73 74
f 25 74 26
f 26 74 75
f 26 75 27
f 27 75 76
f 27 76 28
f 28 76 77
f 28 77 29
f 29 77 78
f 29 78 30
f 30 78 79
f 30 79 31
f 31 79 80
f 31 80 32
f 32 80 81
f 32 81 33
f 33 81 82
f 33 82 34
f 34 82 83
f 34 83 35
f 35 83 84
f 35 84 36
f 36 84 85
f 36 85 37
f 37 85 86
f 37 86 38
f 38 86 87
f 38 87 39
f 39 87 88
f 39 88 40
f 40 88 89
f 40 89 41
f 41 89 90
f 41 90 42
f 42 90 91
f 42 91 43
f 43 91 92
f 43 92 44
f 44 92 93
f 44 93 45
f 45 93 94
f 45 94 46
f 46 94 95
f 46 95 47
f 47 95 96
f 47 96 48
f 48 96 49
f 48 49 1
f 49 97 98
f 49 98 50
f 50 98 99
f 50 99 51
f 51 99 100
f 51 100 52
f 52 100 101
f 52 101 53
f 53 101 102
f 53 102 54
f 54 102 103
f 54 103 55
f 55 103 104
f 55 104 56
f 56 104 105
f 56 105 57
f 57 105 106
f 57 106 58
f 58 106 107
f 58 107 59
f 59 107 108
f 59 108 60
f 60 108 109
f 60 109 61
f 61 109 110
f 61 110 62
f 62 110 111
f 62 111 63
f 63 111 112
f 63 112 64
f 64 112 113
f 64 113 65
f 65 113 114
f 65 114 66
f 66 114 115
f 66 115 67
f 67 115 116
f 67 116 68
f 68 116 117
f 68 117 69
f 69 117 118
f 69 118 70
f 70 118 119
f 70 119 71
f 71 119 120
f 71 120 72
f 72 120 121
f 72 121 73
f 73 121 122
f 73 122 74
f 74 122 123
f 74 123 75
f 75 123 124
f 75 124 76
f 76 124 125
f 76 125 77
f 77 125 126
f 77 126 78
f 78 126 127
f 78 127 79
f 79 127 128
f 79 128 80
f 80 128 129
f 80 129 81
f 81 129 130
f 81 130 82
f 82 130 131
f 82 131 83
f 83 131 132
f 83 132 84
f 84 132 133
f 84 133 85
f 85 133 134
f 85 134 86
f 86 134 135
f 86 135 87
f 87 135 136
f 87 136 88
f 88 136 137
f 88 137 89
f 89 137 138
f 89 138 90
f 90 138 139
f 90 139 91
f 91 139 140
f 91 140 92
f 92 140 141
f 92 141 93
f 93 141 142
f 93 142 94
f 94 142 143
f 94 143 95
f 95 143 144
f 95 144 96
f 96 144 97
f 96 97 49
f 97 145 146
f 97 146 98
f 98 146 147
f 98 147 99
f 99 147 148
f 99 148 100
f 100 148 149
f 100 149 101
f 101 149 150
f 101 150 102
f 102 150 151
f 102 151 103
f 103 151 152
f 103 152 104
f 104 152 153
f 104 153 105
f 105 153 154
f 105 154 106
f 106 154 155
f 106 155 107
f 107 155 156
f 107 156 108
f 108 156 157
f 108 157 109
f 109 157 158
f 109 158 110
f 110 158 159
f 110 159 111
f 111 159 160
f 111 160 112
f 112 160 161
f 112 161 113
f 113 161 162
f 113 162 114
f 114 162 163
f 114 163 115
f 115 163 164
f 115 164 116
f 116 164 165
f 116 165 117
f 117 165 166
f 117 166 118
f 118 166 167
f 118 167 119
f 119 167 168
f 119 168 120
f 120 168 169
f 120 169 121
f 121 169 170
f 121 170 122
f 122 170 171
f 122 171 123
f 123 171 172
f 123 172 124
f 124 172 173
f 124 173 125
f 125 173 174
f 125 174 126
f 126 174 175
f 126 175 127
f 127 175 176
f 127 176 128
f 128 176 177
f 128 177 129
f 129 177 178
f 129 178 130
f 130 178 179
f 130 179 131
f 131 179 180
f 131 180 132
f 132 180 181
f 132 181 133
f 133 181 182
f 133 182 134
f 134 182 183
f 134 183 135
f 135 183 184
f 135 184 136
f 136 184 185
f 136 185 137
f 137 185 186
f 137 186 138
f 138 186 187
f 138 187 139
f 139 187 188
f 139 188 140
f 140 188 189
f 140 189 141
f 141 189 190
f 141 190 142
f 142 190 191
f 142 191 143
f 143 191 192
f 143 192 144
f 144 192 145
f 144 145 97
f 145 193 194
f 145 194 146
f 146 194 195
f 146 195 147
f 147 195 196
f 147 196 148
f 148 196 197
f 148 197 149
f 149 197 198
f 149 198 150
f 150 198 199
f 150 199 151
f 151 199 200
f 151 200 152
f 152 200 201
f 152 201 153
f 153 201 202
f 153 202 154
f 154 202 203
f 154 203 155
f 155 203 204
f 155 204 156
f 156 204 205
f 156 205 157
f 157 205 206
f 157 206 158
f 158 206 207
f 158 207 159
f 159 207 208
f 159 208 160
f 160 208 209
f 160 209 161
f 161 209 210
f 161 210 162
f 162 210 211
f 162 211 163
f 163 211 212
f 163 212 164
f 164 212 213
f 164 213 165
f 165 213 214
f 165 214 166
f 166 214 215
f 166 215 167
f 167 215 216
f 167 216 168
f 168 216 217
f 168 217 169
f 169 217 218
f 169 218 170
f 170 218 219
f 170 219 171
f 171 219 220
f 171 220 172
f 172 220 221
f 172 221 173
f 173 221 222
f 173 222 174
f 174 222 223
f 174 223 175
f 175 223 224
f 175 224 176
f 176 224 225
f 176 225 177
f 177 225 226
f 177 226 178
f 178 226 227
f 178 227 179
f 179 227 228
f 179 228 180
f 180 228 229
f 180 229 181
f 181 229 230
f 181 230 182
f 182 230 231
f 182 231 183
f 183 231 232
f 183 232 184
f 184 232 233
f 184 233 185
f 185 233 234
f 185 234 186
f 186 234 235
f 186 235 187
f 187 235 236
f 187 236 188
f 188 236 237
f 188 237 189
f 189 237 238
f 189 238 190
f 190 238 239
f 190 239 191
f 191 239 240
f 191 240 192
f 192 240 193
f 192 193 145
f 193 241 242
f 193 242 194
f 194 242 243
f 194 243 195
f 195 243 244
f 195 244 196
f 196 244 245
f 196 245 197
f 197 245 246
f 197 246 198
f 198 246 247
f 198 247 199
f 199 247 248
f 199 248 200
f 200 248 249
f 200 249 201
f 201 249 250
f 201 250 202
f 202 250 251
f 202 251 203
f 203 251 252
f 203 252 204
f 204 252 253
f 204 253 205
f 205 253 254
f 205 254 206
f 206 254 255
f 206 255 207
f 207 255 256
f 207 256 208
f 208 256 257
f 208 257 209
f 209 257 258
f 209 258 210
f 210 258 259
f 210 259 211
f 211 259 260
f 211 260 212
f 212 260 261
f 212 261 213
f 213 261 262
f 213 262 214
f 214 262 263
f 214 263 215
f 215 263 264
f 215 264 216
f 216 264 265
f 216 265 217
f 217 265 266
f 217 266 218
f 218 266 267
f 218 267 219
f 219 267 268
f 219 268 220
f 220 268 269
f 220 269 221
f 221 269 270
f 221 270 222
f 222 270 271
f 222 271 223
f 223 271 272
f 223 272 224
f 224 272 273
f 224 273 225
f 225 273 274
f 225 274 226
f 226 274 275
f 226 275 227
f 227 275 276
f 227 276 228
f 228 276 277
f 228 277 229
f 229 277 278
f 229 278 230
f 230 278 279
f 230 279 231
f 231 279 280
f 231 280 232
f 232 280 281
f 232 281 233
f 233 281 282
f 233 282 234
f 234 282 283
f 234 283 235
f 235 283 284
f 235 284 236
f 236 284 285
f 236 285 237
f 237 285 286
f 237 286 238
f 238 286 287
f 238 287 239
f 239 287 288
f 239 288 240
f 240 288 241
f 240 241 193
f 241 289 290
f 241 290 242
f 242 290 291
f 242 291 243
f 243 291 292
f 243 292 244
f 244 292 293
f 244 293 245
f 245 293 294
f 245 294 246
f 246 294 295
f 246 295 247
f 247 295 296
f 247 296 248
f 248 296 297
f 248 297 249
f 249 297 298
f 249 298 250
f 250 298 299
f 250 299 251
f 251 299 300
f 251 300 252
f 252 300 301
f 252 301 253
f 253 301 302
f 253 302 254
f 254 302 303
f 254 303 255
f 255 303 304
f 255 304 256
f 256 304 305
f 256 305 257
f 257 305 306
f 257 306 258
f 258 306 307
f 258 307 259
f 259 307 308
f 259 308 260
f 260 308 309
f 260 309 261
f 261 309 310
f 261 310 262
f 262 310 311
f 262 311 263
f 263 311 312
f 263 312 264
f 264 312 313
f 264 313 265
f 265 313 314
f 265 314 266
f 266 314 315
f 266 315 267
f 267 315 316
f 267 316 268
f 268 316 317
f 268 317 269
f 269 317 318
f 269 318 270
f 270 318 319
f 270 319 271
f 271 319 320
f 271 320 272
f 272 320 321
f 272 321 273
f 273 321 322
f 273 322 274
f 274 322 323
f 274 323 275
f 275 323 324
f 275 324 276
f 276 324 325
f 276 325 277
f 277 325 326
f 277 326 278
f 278 326 327
f 278 327 279
f 279 327 328
f 279 328 280
f 280 328 329
f 280 329 281
f 281 329 330
f 281 330 282
f 282 330 331
f 282 331 283
f 283 331 332
f 283 332 284
f 284 332 333
f 284 333 285
f 285 333 334
f 285 334 286
f 286 334 335
f 286 335 287
f 287 335 336
f 287 336 288
f 288 336 289
f 288 289 241
f 289 337 338
f 289 338 290
f 290 338 339
f 290 339 291
f 291 339 340
f 291 340 292
f 292 340 341
f 292 341 293
f 293 341 342
f 293 342 294
f 294 342 343
f 294 343 295
f 295 343 344
f 295 344 296
f 296 344 345
f 296 345 297
f 297 345 346
f 297 346 298
f 298 346 347
f 298 347 299
f 299 347 348
f 299 348 300
f 300 348 349
f 300 349 301
f 301 349 350
f 301 350 302
f 302 350 351
f 302 351 303
f 303 351 352
f 303 352 304
f 304 352 353
f 304 353 305
f 305 353 354
f 305 354 306
f 306 354 355
f 306 355 307
f 307 355 356
f 307 356 308
f 308 356 357
f 308 357 309
f 309 357 358
f 309 358 310
f 310 358 359
f 310 359 311
f 311 359 360
f 311 360 312
f 312 360 361
f 312 361 313
f 313 361 362
f 313 362 314
f 314 362 363
f 314 363 315
f 315 363 364
f 315 364 316
f 316 364 365
f 316 365 317
f 317 365 366
f 317 366 318
f 318 366 367
f 318 367 319
f 319 367 368
f 319 368 320
f 320 368 369
f 320 369 321
f 321 369 370
f 321 370 322
f 322 370 371
f 322 371 323
f 323 371 372
f 323 372 324
f 324 372 373
f 324 373 325
f 325 373 374
f 325 374 326
f 326 374 375
f 326 375 327
f 327 375 376
f 327 376 328
f 328 376 377
f 328 377 329
f 329 377 378
f 329 378 330
f 330 378 379
f 330 379 331
f 331 379 380
f 331 380 332
f 332 380 381
f 332 381 333
f 333 381 382
f 333 382 334
f 334 382 383
f 334 383 335
f 335 383 384
f 335 384 336
f 336 384 337
f 336 337 289
f 337 385 386
f 337 386 338
f 338 386 387
f 338 387 339
f 339 387 388
f 339 388 340
f 340 388 389
f 340 389 341
f 341 389 390
f 341 390 342
f 342 390 391
f 342 391 343
f 343 391 392
f 343 392 344
f 344 392 393
f 344 393 345
f 345 393 394
f 345 394 346
f 346 394 395
f 346 395 347
f 347 395 396
f 347 396 348
f 348 396 397
f 348 397 349
f 349 397 398
f 349 398 350
f 350 398 399
f 350 399 351
f 351 399 400
f 351 400 352
f 352 400 401
f 352 401 353
f 353 401 402
f 353 402 354
f 354 402 403
f 354 403 355
f 355 403 404
f 355 404 356
f 356 404 405
f 356 405 357
f 357 405 406
f 357 406 358
f 358 406 407
f 358 407 359
f 359 407 408
f 359 408 360
f 360 408 409
f 360 409 361
f 361 409 410
f 361 410 362
f 362 410 411
f 362 411 363
f 363 411 412
f 363 412 364
f 364 412 413
f 364 413 365
f 365 413 414
f 365 414 366
f 366 414 415
f 366 415 367
f 367 415 416
f 367 416 368
f 368 416 417
f 368 417 369
f 369 417 418
f 369 418 370
f 370 418 419
f 370 419 371
f 371 419 420
f 371 420 372
f 372 420 421
f 372 421 373
f 373 421 422
f 373 422 374
f 374 422 423
f 374 423 375
f 375 423 424
f 375 424 376
f 376 424 425
f 376 425 377
f 377 425 426
f 377 426 378
f 378 426 427
f 378 427 379
f 379 427 428
f 379 428 380
f 380 428 429
f 380 429 381
f 381 429 430
f 381 430 382
f 382 430 431
f 382 431 383
f 383 431 432
f 383 432 384
f 384 432 385
f 384 385 337
f 385 433 434
f 385 434 386
f 386 434 435
f 386 435 387
f 387 435 436
f 387 436 388
f 388 436 437
f 388 437 389
f 389 437 438
f 389 438 390
f 390 438 439
f 390 439 391
f 391 439 440
f 391 440 392
f 392 440 441
f 392 441 393
f 393 441 442
f 393 442 394
f 394 442 443
f 394 443 395
f 395 443 444
f 395 444 396
f 396 444 445
f 396 445 397
f 397 445 446
f 397 446 398
f 398 446 447
f 398 447 399
f 399 447 448
f 399 448 400
f 400 448 449
f 400 449 401
f 401 449 450
f 401 450 402
f 402 450 451
f 402 451 403
f 403 451 452
f 403 452 404
f 404 452 453
f 404 453 405
f 405 453 454
f 405 454 406
f 406 454 455
f 406 455 407
f 407 455 456
f 407 456 408
f 408 456 457
f 408 457 409
f 409 457 458
f 409 458 410
f 410 458 459
f 410 459 411
f 411 459 460
f 411 460 412
f 412 460 461
f 412 461 413
f 413 461 462
f 413 462 414
f 414 462 463
f 414 463 415
f 415 463 464
f 415 464 416
f 416 464 465
f 416 465 417
f 417 465 466
f 417 466 418
f 418 466 467
f 418 467 419
f 419 467 468
f 419 468 420
f 420 468 469
f 420 469 421
f 421 469 470
f 421 470 422
f 422 470 471
f 422 471 423
f 423 471 472
f 423 472 424
f 424 472 473
f 424 473 425
f 425 473 474
f 425 474 426
f 426 474 475
f 426 475 427
f 427 475 476
f 427 476 428
f 428 476 477
f 428 477 429
f 429 477 478
f 429 478 430
f 430 478 479
f 430 479 431
f 431 479 480
f 431 480 432
f 432 480 433
f 432 433 385
f 433 481 482
f 433 482 434
f 434 482 483
f 434 483 435
f 435 483 484
f 435 484 436
f 436 484 485
f 436 485 437
f 437 485 486
f 437 486 438
f 438 486 487
f 438 487 439
f 439 487 488
f 439 488 440
f 440 488 489
f 440 489 441
f 441 489 490
f 441 490 442
f 442 490 491
f 442 491 443
f 443 491 492
f 443 492 444
f 444 492 493
f 444 493 445
f 445 493 494
f 445 494 446
f 446 494 495
f 446 495 447
f 447 495 496
f 447 496 448
f 448 496 497
f 448 497 449
f 449 497 498
f 449 498 450
f 450 498 499
f 450 499 451
f 451 499 500
f 451 500 452
f 452 500 501
f 452 501 453
f 453 501 502
f 453 502 454
f 454 502 503
f 454 503 455
f 455 503 504
f 455 504 456
f 456 504 505
f 456 505 457
f 457 505 506
f 457 506 458
f 458 506 507
f 458 507 459
f 459 507 508
f 459 508 460
f 460 508 509
f 460 509 461
f 461 509 510
f 461 510 462
f 462 510 511
f 462 511 463
f 463 511 512
f 463 512 464
f 464 512 513
f 464 513 465
f 465 513 514
f 465 514 466
f 466 514 515
f 466 515 467
f 467 515 516
f 467 516 468
f 468 516 517
f 468 517 469
f 469 517 518
f 469 518 470
f 470 518 519
f 470 519 471
f 471 519 520
f 471 520 472
f 472 520 521
f 472 521 473
f 473 521 522
f 473 522 474
f 474 522 523
f 474 523 475
f 475 523 524
f 475 524 476
f 476 524 525
f 476 525 477
f 477 525 526
f 477 526 478
f 478 526 527
f 478 527 479
f 479 527 528
f 479 528 480
f 480 528 481
f 480 481 433
f 529 2 1
f 530 481 482
f 529 3 2
f 530 482 483
f 529 4 3
f 530 483 484
f 529 5 4
f 530 484 485
f 529 6 5
f 530 485 486
f 529 7 6
f 530 486 487
f 529 8 7
f 530 487 488
f 529 9 8
f 530 488 489
f 529 10 9
f 530 489 490
f 529 11 10
f 530 490 491
f 529 12 11
f 530 491 492
f 529 13 12
f 530 492 493
f 529 14 13
f 530 493 494
f 529 15 14
f 530 494 495
f 529 16 15
f 530 495 496
f 529 17 16
f 530 496 497
f 529 18 17
f 530 497 498
f 529 19 18
f 530 498 499
f 529 20 19
f 530 499 500
f 529 21 20
f 530 500 501
f 529 22 21
f 530 501 502
f 529 23 22
f 530 502 503
f 529 24 23
f 530 503 504
f 529 25 24
f 530 504 505
f 529 26 25
f 530 505 506
f 529 27 26
f 530 506 507
f 529 28 27
f 530 507 508
f 529 29 28
f 530 508 509
f 529 30 29
f 530 509 510
f 529 31 30
f 530 510 511
f 529 32 31
f 530 511 512
f 529 33 32
f 530 512 513
f 529 34 33
f 530 513 514
f 529 35 34
f 530 514 515
f 529 36 35
f 530 515 516
f 529 37 36
f 530 516 517
f 529 38 37
f 530 517 518
f 529 39 38
f 530 518 519
f 529 40 39
f 530 519 520
f 529 41 40
f 530 520 521
f 529 42 41
f 530 521 522
f 529 43 42
f 530 522 523
f 529 44 43
f 530 523 524
f 529 45 44
f 530 524 525
f 529 46 45
f 530 525 526
f 529 47 46
f 530 526 527
f 529 48 47
f 530 527 528
f 529 1 48
f 530 528 481
