o explicit-shell-causal-null
v 0.2 0.009999999999999995 -0.7125
v 0.19828897227476208 0.03218945267740876 -0.7125
v 0.19318516525781368 0.053999237667428514 -0.7125
v 0.18477590650225736 0.07505618350206525 -0.7125
v 0.17320508075688776 0.09499999999999997 -0.7125
v 0.15867066805824703 0.1134894429314825 -0.7125
v 0.14142135623730953 0.13020815280171305 -0.7125
v 0.12175228580174413 0.14487006784950995 -0.7125
v 0.10000000000000003 0.15722431864335457 -0.7125
v 0.07653668647301798 0.16705952052691875 -0.7125
v 0.05176380902050415 0.17420739046914158 -0.7125
v 0.026105238444010345 0.17854562643354777 -0.7125
v 1.2246467991473533e-17 0.18 -0.7125
v -0.026105238444010276 0.17854562643354777 -0.7125
v -0.051763809020504176 0.17420739046914158 -0.7125
v -0.07653668647301795 0.16705952052691875 -0.7125
v -0.09999999999999996 0.15722431864335457 -0.7125
v -0.12175228580174413 0.14487006784950995 -0.7125
v -0.1414213562373095 0.13020815280171305 -0.7125
v -0.15867066805824703 0.11348944293148254 -0.7125
v -0.17320508075688776 0.09499999999999997 -0.7125
v -0.18477590650225736 0.07505618350206528 -0.7125
v -0.19318516525781365 0.05399923766742856 -0.7125
v -0.19828897227476208 0.03218945267740876 -0.7125
v -0.2 0.010000000000000016 -0.7125
v -0.19828897227476208 -0.012189452677408803 -0.7125
v -0.1931851652578137 -0.03399923766742846 -0.7125
v -0.1847759065022574 -0.05505618350206523 -0.7125
v -0.17320508075688773 -0.07500000000000001 -0.7125
v -0.1586706680582471 -0.09348944293148245 -0.7125
v -0.14142135623730953 -0.11020815280171306 -0.7125
v -0.12175228580174419 -0.12487006784950992 -0.7125
v -0.10000000000000009 -0.13722431864335455 -0.7125
v -0.07653668647301808 -0.14705952052691867 -0.7125
v -0.05176380902050413 -0.15420739046914161 -0.7125
v -0.026105238444010328 -0.15854562643354775 -0.7125
v -3.6739403974420595e-17 -0.15999999999999998 -0.7125
v 0.026105238444010255 -0.15854562643354775 -0.7125
v 0.051763809020504065 -0.15420739046914161 -0.7125
v 0.076536686473018 -0.14705952052691873 -0.7125
v 0.10000000000000003 -0.13722431864335455 -0.7125
v 0.12175228580174412 -0.12487006784950998 -0.7125
v 0.14142135623730948 -0.1102081528017131 -0.7125
v 0.158670668058247 -0.09348944293148255 -0.7125
v 0.17320508075688767 -0.07500000000000007 -0.7125
v 0.1847759065022573 -0.05505618350206537 -0.7125
v 0.19318516525781368 -0.03399923766742852 -0.7125
v 0.19828897227476208 -0.012189452677408789 -0.7125
v 0.2 0.009999999999999995 -0.65
v 0.19828897227476208 0.03218945267740876 -0.65
v 0.19318516525781368 0.053999237667428514 -0.65
v 0.18477590650225736 0.07505618350206525 -0.65
v 0.17320508075688776 0.09499999999999997 -0.65
v 0.15867066805824703 0.1134894429314825 -0.65
v 0.14142135623730953 0.13020815280171305 -0.65
v 0.12175228580174413 0.14487006784950995 -0.65
v 0.10000000000000003 0.15722431864335457 -0.65
v 0.07653668647301798 0.16705952052691875 -0.65
v 0.05176380902050415 0.17420739046914158 -0.65
v 0.026105238444010345 0.17854562643354777 -0.65
v 1.2246467991473533e-17 0.18 -0.65
v -0.026105238444010276 0.17854562643354777 -0.65
v -0.051763809020504176 0.17420739046914158 -0.65
v -0.07653668647301795 0.16705952052691875 -0.65
v -0.09999999999999996 0.15722431864335457 -0.65
v -0.12175228580174413 0.14487006784950995 -0.65
v -0.1414213562373095 0.13020815280171305 -0.65
v -0.15867066805824703 0.11348944293148254 -0.65
v -0.17320508075688776 0.09499999999999997 -0.65
v -0.18477590650225736 0.07505618350206528 -0.65
v -0.19318516525781365 0.05399923766742856 -0.65
v -0.19828897227476208 0.03218945267740876 -0.65
v -0.2 0.010000000000000016 -0.65
v -0.19828897227476208 -0.012189452677408803 -0.65
v -0.1931851652578137 -0.03399923766742846 -0.65
v -0.1847759065022574 -0.05505618350206523 -0.65
v -0.17320508075688773 -0.07500000000000001 -0.65
v -0.1586706680582471 -0.09348944293148245 -0.65
v -0.14142135623730953 -0.11020815280171306 -0.65
v -0.12175228580174419 -0.12487006784950992 -0.65
v -0.10000000000000009 -0.13722431864335455 -0.65
v -0.07653668647301808 -0.14705952052691867 -0.65
v -0.05176380902050413 -0.15420739046914161 -0.65
v -0.026105238444010328 -0.15854562643354775 -0.65
v -3.6739403974420595e-17 -0.15999999999999998 -0.65
v 0.026105238444010255 -0.15854562643354775 -0.65
v 0.051763809020504065 -0.15420739046914161 -0.65
v 0.076536686473018 -0.14705952052691873 -0.65
v 0.10000000000000003 -0.13722431864335455 -0.65
v 0.12175228580174412 -0.12487006784950998 -0.65
v 0.14142135623730948 -0.1102081528017131 -0.65
v 0.158670668058247 -0.09348944293148255 -0.65
v 0.17320508075688767 -0.07500000000000007 -0.65
v 0.1847759065022573 -0.05505618350206537 -0.65
v 0.19318516525781368 -0.03399923766742852 -0.65
v 0.19828897227476208 -0.012189452677408789 -0.65
v 0.36 0.035 -0.525
v 0.35692015009457173 0.07742101247151675 -0.525
v 0.34773329746406456 0.11911618965831923 -0.525
v 0.33259663170406323 0.15937211551865416 -0.525
v 0.3117691453623979 0.19749999999999995 -0.525
v 0.28560720250484467 0.2328474644278342 -0.525
v 0.2545584412271571 0.26480970388562786 -0.525
v 0.21915411444313943 0.29283983559465143 -0.525
v 0.18000000000000002 0.3164582562299425 -0.525
v 0.13776603565143233 0.3352608480661682 -0.525
v 0.09317485623690747 0.3489258935439472 -0.525
v 0.04698942919921861 0.35721957994648834 -0.525
v 2.2043642384652358e-17 0.36 -0.525
v -0.046989429199218495 0.35721957994648834 -0.525
v -0.09317485623690751 0.3489258935439472 -0.525
v -0.1377660356514323 0.3352608480661682 -0.525
v -0.1799999999999999 0.3164582562299425 -0.525
v -0.21915411444313943 0.29283983559465143 -0.525
v -0.2545584412271571 0.26480970388562797 -0.525
v -0.2856072025048446 0.23284746442783427 -0.525
v -0.3117691453623979 0.19749999999999995 -0.525
v -0.33259663170406323 0.1593721155186542 -0.525
v -0.34773329746406456 0.11911618965831933 -0.525
v -0.35692015009457173 0.07742101247151675 -0.525
v -0.36 0.035000000000000045 -0.525
v -0.35692015009457173 -0.007421012471516816 -0.525
v -0.3477332974640646 -0.0491161896583191 -0.525
v -0.33259663170406323 -0.08937211551865411 -0.525
v -0.31176914536239786 -0.1275 -0.525
v -0.2856072025048447 -0.16284746442783407 -0.525
v -0.25455844122715715 -0.19480970388562788 -0.525
v -0.2191541144431395 -0.22283983559465134 -0.525
v -0.18000000000000016 -0.24645825622994247 -0.525
v -0.13776603565143253 -0.2652608480661681 -0.525
v -0.09317485623690742 -0.27892589354394715 -0.525
v -0.046989429199218585 -0.2872195799464883 -0.525
v -6.613092715395706e-17 -0.2899999999999999 -0.525
v 0.04698942919921845 -0.2872195799464884 -0.525
v 0.0931748562369073 -0.27892589354394715 -0.525
v 0.1377660356514324 -0.2652608480661681 -0.525
v 0.18000000000000002 -0.24645825622994252 -0.525
v 0.2191541144431394 -0.2228398355946514 -0.525
v 0.25455844122715704 -0.19480970388562796 -0.525
v 0.28560720250484456 -0.16284746442783427 -0.525
v 0.3117691453623978 -0.1275000000000001 -0.525
v 0.3325966317040631 -0.08937211551865436 -0.525
v 0.34773329746406456 -0.04911618965831921 -0.525
v 0.35692015009457173 -0.0074210124715167886 -0.525
v 0.48 0.05499999999999999 -0.4
v 0.475893533459429 0.11308415553792295 -0.4
v 0.4636443966187528 0.17017447507062172 -0.4
v 0.4434621756054176 0.22529412740246496 -0.4
v 0.41569219381653055 0.27749999999999997 -0.4
v 0.38080960333979286 0.3258988359088807 -0.4
v 0.33941125496954283 0.3696625176280136 -0.4
v 0.2922054859241859 0.40804223642959964 -0.4
v 0.24000000000000005 0.44038130468407516 -0.4
v 0.18368804753524312 0.4661263919675226 -0.4
v 0.12423314164920995 0.4848369926986354 -0.4
v 0.06265257226562482 0.4961929633113456 -0.4
v 2.9391523179536474e-17 0.5 -0.4
v -0.06265257226562466 0.49619296331134566 -0.4
v -0.12423314164921001 0.4848369926986354 -0.4
v -0.18368804753524307 0.4661263919675226 -0.4
v -0.23999999999999988 0.4403813046840752 -0.4
v -0.2922054859241859 0.40804223642959964 -0.4
v -0.3394112549695428 0.36966251762801366 -0.4
v -0.3808096033397928 0.3258988359088808 -0.4
v -0.41569219381653055 0.27749999999999997 -0.4
v -0.4434621756054176 0.225294127402465 -0.4
v -0.46364439661875273 0.17017447507062183 -0.4
v -0.475893533459429 0.11308415553792295 -0.4
v -0.48 0.05500000000000005 -0.4
v -0.475893533459429 -0.0030841555379230445 -0.4
v -0.46364439661875284 -0.06017447507062157 -0.4
v -0.4434621756054177 -0.11529412740246489 -0.4
v -0.4156921938165305 -0.16750000000000007 -0.4
v -0.38080960333979297 -0.21589883590888054 -0.4
v -0.3394112549695429 -0.2596625176280136 -0.4
v -0.292205485924186 -0.29804223642959954 -0.4
v -0.2400000000000002 -0.3303813046840751 -0.4
v -0.18368804753524334 -0.3561263919675225 -0.4
v -0.1242331416492099 -0.3748369926986354 -0.4
v -0.06265257226562478 -0.3861929633113456 -0.4
v -8.817456953860942e-17 -0.39 -0.4
v 0.06265257226562461 -0.38619296331134567 -0.4
v 0.12423314164920973 -0.37483699269863546 -0.4
v 0.1836880475352432 -0.35612639196752255 -0.4
v 0.24000000000000005 -0.33038130468407517 -0.4
v 0.2922054859241858 -0.29804223642959965 -0.4
v 0.3394112549695427 -0.25966251762801373 -0.4
v 0.38080960333979275 -0.21589883590888082 -0.4
v 0.4156921938165304 -0.1675000000000002 -0.4
v 0.4434621756054175 -0.11529412740246522 -0.4
v 0.4636443966187528 -0.06017447507062171 -0.4
v 0.475893533459429 -0.00308415553792301 -0.4
v 0.55 0.06499999999999997 -0.275
v 0.5452946737555957 0.13222098899332652 -0.275
v 0.5312592044589877 0.19829180822779816 -0.275
v 0.5081337428812077 0.2620819676680212 -0.275
v 0.47631397208144133 0.3224999999999999 -0.275
v 0.4363443371601794 0.37851213593949107 -0.275
v 0.3889087296526012 0.42915999231107194 -0.275
v 0.33481878595479636 0.47357697024998613 -0.275
v 0.2750000000000001 0.5110030829489859 -0.275
v 0.21047588780079943 0.5407979592433126 -0.275
v 0.1423504748063864 0.5624518005388701 -0.275
v 0.07178940572102845 0.5755941036075123 -0.275
v 3.367778697655222e-17 0.58 -0.275
v -0.07178940572102827 0.5755941036075124 -0.275
v -0.1423504748063865 0.5624518005388701 -0.275
v -0.21047588780079937 0.5407979592433126 -0.275
v -0.2749999999999999 0.5110030829489859 -0.275
v -0.33481878595479636 0.47357697024998613 -0.275
v -0.38890872965260115 0.42915999231107194 -0.275
v -0.43634433716017934 0.3785121359394913 -0.275
v -0.47631397208144133 0.3224999999999999 -0.275
v -0.5081337428812077 0.2620819676680213 -0.275
v -0.5312592044589876 0.1982918082277983 -0.275
v -0.5452946737555957 0.13222098899332652 -0.275
v -0.55 0.06500000000000004 -0.275
v -0.5452946737555957 -0.002220988993326692 -0.275
v -0.5312592044589877 -0.06829180822779801 -0.275
v -0.5081337428812078 -0.1320819676680212 -0.275
v -0.4763139720814413 -0.1925000000000001 -0.275
v -0.4363443371601795 -0.24851213593949098 -0.275
v -0.38890872965260126 -0.29915999231107193 -0.275
v -0.3348187859547965 -0.343576970249986 -0.275
v -0.27500000000000024 -0.3810030829489859 -0.275
v -0.2104758878007997 -0.41079795924331264 -0.275
v -0.14235047480638635 -0.4324518005388702 -0.275
v -0.0717894057210284 -0.4455941036075124 -0.275
v -1.0103336092965664e-16 -0.45000000000000007 -0.275
v 0.07178940572102821 -0.4455941036075125 -0.275
v 0.14235047480638618 -0.4324518005388702 -0.275
v 0.2104758878007995 -0.41079795924331264 -0.275
v 0.2750000000000001 -0.3810030829489859 -0.275
v 0.3348187859547963 -0.3435769702499861 -0.275
v 0.3889087296526011 -0.29915999231107204 -0.275
v 0.43634433716017923 -0.2485121359394913 -0.275
v 0.47631397208144116 -0.19250000000000025 -0.275
v 0.5081337428812076 -0.13208196766802158 -0.275
v 0.5312592044589877 -0.06829180822779818 -0.275
v 0.5452946737555957 -0.0022209889933266502 -0.275
v 0.57 0.065 -0.15
v 0.5651235709830719 0.1348315128377276 -0.15
v 0.5505777209847689 0.20346818912984857 -0.15
v 0.5266113335314334 0.26973563631532305 -0.15
v 0.49363448015713 0.3324999999999999 -0.15
v 0.452211403966004 0.3906873645196655 -0.15
v 0.4030508652763321 0.44330212793480284 -0.15
v 0.34699401453497075 0.48944403705581074 -0.15
v 0.28500000000000003 0.5283235910246746 -0.15
v 0.2181295564481012 0.5592755498935383 -0.15
v 0.14752685570843682 0.5817703170646515 -0.15
v 0.07439992956542947 0.5954230008349886 -0.15
v 3.490243377569956e-17 0.5999999999999999 -0.15
v -0.07439992956542928 0.5954230008349886 -0.15
v -0.14752685570843688 0.5817703170646515 -0.15
v -0.21812955644810111 0.5592755498935383 -0.15
v -0.28499999999999986 0.5283235910246746 -0.15
v -0.34699401453497075 0.48944403705581074 -0.15
v -0.403050865276332 0.4433021279348029 -0.15
v -0.45221140396600396 0.3906873645196656 -0.15
v -0.49363448015713 0.3324999999999999 -0.15
v -0.5266113335314334 0.26973563631532305 -0.15
v -0.5505777209847689 0.20346818912984874 -0.15
v -0.5651235709830719 0.1348315128377276 -0.15
v -0.57 0.06500000000000007 -0.15
v -0.5651235709830719 -0.004831512837727689 -0.15
v -0.550577720984769 -0.07346818912984837 -0.15
v -0.5266113335314334 -0.1397356363153229 -0.15
v -0.49363448015712996 -0.2025 -0.15
v -0.4522114039660041 -0.26068736451966534 -0.15
v -0.40305086527633216 -0.31330212793480283 -0.15
v -0.34699401453497086 -0.35944403705581063 -0.15
v -0.28500000000000025 -0.3983235910246745 -0.15
v -0.21812955644810147 -0.4292755498935382 -0.15
v -0.14752685570843674 -0.4517703170646515 -0.15
v -0.07439992956542943 -0.4654230008349885 -0.15
v -1.0470730132709869e-16 -0.4699999999999999 -0.15
v 0.07439992956542922 -0.4654230008349885 -0.15
v 0.14752685570843654 -0.4517703170646515 -0.15
v 0.21812955644810128 -0.4292755498935383 -0.15
v 0.28500000000000003 -0.3983235910246746 -0.15
v 0.3469940145349707 -0.35944403705581074 -0.15
v 0.40305086527633194 -0.31330212793480294 -0.15
v 0.4522114039660039 -0.2606873645196656 -0.15
v 0.49363448015712985 -0.20250000000000018 -0.15
v 0.5266113335314333 -0.13973563631532332 -0.15
v 0.5505777209847689 -0.07346818912984854 -0.15
v 0.5651235709830719 -0.004831512837727633 -0.15
v 0.54 0.06499999999999997 -0.025
v 0.5353802251418577 0.13091572707112603 -0.025
v 0.521599946196097 0.19570361777677295 -0.025
v 0.49889494755609487 0.25825513334437034 -0.025
v 0.46765371804359696 0.3174999999999999 -0.025
v 0.42841080375726703 0.3724245216494039 -0.025
v 0.3818376618407357 0.42208892449920643 -0.025
v 0.32873117166470917 0.46564343684707377 -0.025
v 0.2700000000000001 0.5023428289111415 -0.025
v 0.20664905347714851 0.5315591639181998 -0.025
v 0.1397622843553612 0.5527925422759795 -0.025
v 0.07048414379882793 0.5656796549937742 -0.025
v 3.306546357697854e-17 0.57 -0.025
v -0.07048414379882775 0.5656796549937743 -0.025
v -0.13976228435536125 0.5527925422759795 -0.025
v -0.20664905347714846 0.5315591639181998 -0.025
v -0.2699999999999999 0.5023428289111416 -0.025
v -0.32873117166470917 0.46564343684707377 -0.025
v -0.38183766184073564 0.42208892449920654 -0.025
v -0.428410803757267 0.372424521649404 -0.025
v -0.46765371804359696 0.3174999999999999 -0.025
v -0.49889494755609487 0.25825513334437034 -0.025
v -0.5215999461960968 0.1957036177767731 -0.025
v -0.5353802251418577 0.13091572707112603 -0.025
v -0.54 0.06500000000000003 -0.025
v -0.5353802251418577 -0.0009157270711261656 -0.025
v -0.521599946196097 -0.0657036177767728 -0.025
v -0.4988949475560949 -0.12825513334437028 -0.025
v -0.4676537180435969 -0.18750000000000008 -0.025
v -0.42841080375726714 -0.24242452164940378 -0.025
v -0.38183766184073575 -0.29208892449920654 -0.025
v -0.3287311716647093 -0.33564343684707365 -0.025
v -0.27000000000000024 -0.37234282891114145 -0.025
v -0.2066490534771488 -0.4015591639181997 -0.025
v -0.13976228435536114 -0.4227925422759795 -0.025
v -0.07048414379882788 -0.43567965499377426 -0.025
v -9.919639073093561e-17 -0.44000000000000006 -0.025
v 0.07048414379882768 -0.43567965499377437 -0.025
v 0.13976228435536098 -0.4227925422759796 -0.025
v 0.20664905347714863 -0.4015591639181998 -0.025
v 0.2700000000000001 -0.37234282891114157 -0.025
v 0.3287311716647091 -0.33564343684707376 -0.025
v 0.3818376618407356 -0.29208892449920665 -0.025
v 0.4284108037572669 -0.24242452164940406 -0.025
v 0.46765371804359673 -0.18750000000000025 -0.025
v 0.49889494755609476 -0.12825513334437066 -0.025
v 0.521599946196097 -0.06570361777677297 -0.025
v 0.5353802251418577 -0.000915727071126124 -0.025
v 0.46 0.06 0.1
v 0.4560646362319528 0.11612626265462217 0.1
v 0.44432588009297147 0.17129218939408392 0.1
v 0.4249845849551919 0.2245538759169886 0.1
v 0.3983716857408418 0.27499999999999997 0.1
v 0.3649425365339682 0.3217674144737499 0.1
v 0.3252691193458119 0.3640559159102154 0.1
v 0.2800302573440115 0.4011419363252311 0.1
v 0.23000000000000007 0.4323909236273086 0.1
v 0.17603437888794132 0.45726819897985327 0.1
v 0.11905676074715954 0.4753481053042994 0.1
v 0.06004204842122379 0.48632129039073846 0.1
v 2.816687638038912e-17 0.49 0.1
v -0.06004204842122364 0.4863212903907385 0.1
v -0.1190567607471596 0.4753481053042994 0.1
v -0.1760343788879413 0.45726819897985327 0.1
v -0.2299999999999999 0.43239092362730863 0.1
v -0.2800302573440115 0.4011419363252311 0.1
v -0.3252691193458118 0.36405591591021547 0.1
v -0.36494253653396813 0.32176741447374996 0.1
v -0.3983716857408418 0.27499999999999997 0.1
v -0.4249845849551919 0.22455387591698864 0.1
v -0.4443258800929714 0.17129218939408403 0.1
v -0.4560646362319528 0.11612626265462217 0.1
v -0.46 0.06000000000000005 0.1
v -0.4560646362319528 0.0038737373453777355 0.1
v -0.44432588009297147 -0.051292189394083754 0.1
v -0.424984584955192 -0.10455387591698853 0.1
v -0.39837168574084175 -0.15500000000000005 0.1
v -0.3649425365339683 -0.20176741447374974 0.1
v -0.32526911934581193 -0.24405591591021542 0.1
v -0.2800302573440116 -0.28114193632523105 0.1
v -0.2300000000000002 -0.3123909236273085 0.1
v -0.17603437888794157 -0.3372681989798532 0.1
v -0.1190567607471595 -0.3553481053042994 0.1
v -0.06004204842122375 -0.36632129039073846 0.1
v -8.450062914116737e-17 -0.37 0.1
v 0.060042048421223584 -0.3663212903907385 0.1
v 0.11905676074715935 -0.35534810530429944 0.1
v 0.1760343788879414 -0.3372681989798533 0.1
v 0.23000000000000007 -0.3123909236273086 0.1
v 0.28003025734401144 -0.2811419363252311 0.1
v 0.3252691193458118 -0.24405591591021553 0.1
v 0.3649425365339681 -0.20176741447374996 0.1
v 0.3983716857408417 -0.1550000000000002 0.1
v 0.4249845849551918 -0.10455387591698886 0.1
v 0.44432588009297147 -0.05129218939408389 0.1
v 0.4560646362319528 0.003873737345377777 0.1
v 0.32 0.044999999999999984 0.225
v 0.31726235563961935 0.08481048862711571 0.225
v 0.3090962644125019 0.12393980875626881 0.225
v 0.2956414504036118 0.16171844687135237 0.225
v 0.27712812921102037 0.19749999999999995 0.225
v 0.2538730688931953 0.23067223584765978 0.225
v 0.22627416997969524 0.26066756826189696 0.225
v 0.19480365728279062 0.2869727687888267 0.225
v 0.16000000000000003 0.30913774815425377 0.225
v 0.12245869835682875 0.32678325741594244 0.225
v 0.08282209443280664 0.3396073770181658 0.225
v 0.04176838151041655 0.34739068271901213 0.225
v 1.959434878635765e-17 0.35 0.225
v -0.041768381510416445 0.3473906827190122 0.225
v -0.08282209443280668 0.3396073770181658 0.225
v -0.12245869835682871 0.32678325741594244 0.225
v -0.15999999999999992 0.30913774815425377 0.225
v -0.19480365728279062 0.2869727687888267 0.225
v -0.22627416997969518 0.26066756826189696 0.225
v -0.2538730688931952 0.23067223584765983 0.225
v -0.27712812921102037 0.19749999999999995 0.225
v -0.2956414504036118 0.1617184468713524 0.225
v -0.3090962644125018 0.1239398087562689 0.225
v -0.31726235563961935 0.08481048862711571 0.225
v -0.32 0.04500000000000002 0.225
v -0.31726235563961935 0.0051895113728841966 0.225
v -0.3090962644125019 -0.033939808756268716 0.225
v -0.2956414504036118 -0.07171844687135234 0.225
v -0.27712812921102037 -0.10750000000000004 0.225
v -0.25387306889319533 -0.1406722358476597 0.225
v -0.22627416997969527 -0.170667568261897 0.225
v -0.1948036572827907 -0.19697276878882666 0.225
v -0.16000000000000014 -0.21913774815425374 0.225
v -0.1224586983568289 -0.23678325741594242 0.225
v -0.08282209443280661 -0.24960737701816582 0.225
v -0.04176838151041652 -0.25739068271901216 0.225
v -5.878304635907295e-17 -0.26 0.225
v 0.041768381510416404 -0.2573906827190122 0.225
v 0.0828220944328065 -0.24960737701816588 0.225
v 0.12245869835682881 -0.23678325741594242 0.225
v 0.16000000000000003 -0.2191377481542538 0.225
v 0.1948036572827906 -0.19697276878882675 0.225
v 0.22627416997969516 -0.17066756826189705 0.225
v 0.25387306889319516 -0.14067223584765987 0.225
v 0.2771281292110203 -0.10750000000000015 0.225
v 0.29564145040361167 -0.07171844687135258 0.225
v 0.3090962644125019 -0.03393980875626883 0.225
v 0.31726235563961935 0.005189511372884224 0.225
v 0.18 0.009999999999999995 0.35
v 0.17846007504728587 0.029578928833007733 0.35
v 0.17386664873203228 0.04882285676537811 0.35
v 0.16629831585203161 0.06740251485476348 0.35
v 0.15588457268119896 0.08499999999999999 0.35
v 0.14280360125242234 0.10131421435130811 0.35
v 0.12727922061357855 0.11606601717798214 0.35
v 0.10957705722156971 0.12900300104368528 0.35
v 0.09000000000000001 0.13990381056766582 0.35
v 0.06888301782571617 0.14858192987669305 0.35
v 0.04658742811845373 0.15488887394336026 0.35
v 0.023494714599609307 0.15871672920607155 0.35
v 1.1021821192326179e-17 0.16000000000000003 0.35
v -0.023494714599609248 0.1587167292060716 0.35
v -0.046587428118453754 0.15488887394336026 0.35
v -0.06888301782571615 0.14858192987669305 0.35
v -0.08999999999999996 0.13990381056766582 0.35
v -0.10957705722156971 0.12900300104368528 0.35
v -0.12727922061357855 0.11606601717798215 0.35
v -0.1428036012524223 0.10131421435130814 0.35
v -0.15588457268119896 0.08499999999999999 0.35
v -0.16629831585203161 0.06740251485476348 0.35
v -0.17386664873203228 0.048822856765378154 0.35
v -0.17846007504728587 0.029578928833007733 0.35
v -0.18 0.010000000000000014 0.35
v -0.17846007504728587 -0.009578928833007774 0.35
v -0.1738666487320323 -0.02882285676537806 0.35
v -0.16629831585203161 -0.047402514854763454 0.35
v -0.15588457268119893 -0.06500000000000003 0.35
v -0.14280360125242236 -0.08131421435130806 0.35
v -0.12727922061357858 -0.09606601717798215 0.35
v -0.10957705722156975 -0.10900300104368527 0.35
v -0.09000000000000008 -0.11990381056766579 0.35
v -0.06888301782571626 -0.12858192987669298 0.35
v -0.04658742811845371 -0.1348888739433603 0.35
v -0.023494714599609293 -0.1387167292060716 0.35
v -3.306546357697853e-17 -0.14 0.35
v 0.023494714599609227 -0.1387167292060716 0.35
v 0.04658742811845365 -0.1348888739433603 0.35
v 0.0688830178257162 -0.12858192987669304 0.35
v 0.09000000000000001 -0.11990381056766582 0.35
v 0.1095770572215697 -0.1090030010436853 0.35
v 0.12727922061357852 -0.09606601717798217 0.35
v 0.14280360125242228 -0.08131421435130815 0.35
v 0.1558845726811989 -0.06500000000000009 0.35
v 0.16629831585203156 -0.04740251485476357 0.35
v 0.17386664873203228 -0.028822856765378116 0.35
v 0.17846007504728587 -0.00957892883300776 0.35
v 0.18 0.009999999999999995 0.4125
v 0.17846007504728587 0.029578928833007733 0.4125
v 0.17386664873203228 0.04882285676537811 0.4125
v 0.16629831585203161 0.06740251485476348 0.4125
v 0.15588457268119896 0.08499999999999999 0.4125
v 0.14280360125242234 0.10131421435130811 0.4125
v 0.12727922061357855 0.11606601717798214 0.4125
v 0.10957705722156971 0.12900300104368528 0.4125
v 0.09000000000000001 0.13990381056766582 0.4125
v 0.06888301782571617 0.14858192987669305 0.4125
v 0.04658742811845373 0.15488887394336026 0.4125
v 0.023494714599609307 0.15871672920607155 0.4125
v 1.1021821192326179e-17 0.16000000000000003 0.4125
v -0.023494714599609248 0.1587167292060716 0.4125
v -0.046587428118453754 0.15488887394336026 0.4125
v -0.06888301782571615 0.14858192987669305 0.4125
v -0.08999999999999996 0.13990381056766582 0.4125
v -0.10957705722156971 0.12900300104368528 0.4125
v -0.12727922061357855 0.11606601717798215 0.4125
v -0.1428036012524223 0.10131421435130814 0.4125
v -0.15588457268119896 0.08499999999999999 0.4125
v -0.16629831585203161 0.06740251485476348 0.4125
v -0.17386664873203228 0.048822856765378154 0.4125
v -0.17846007504728587 0.029578928833007733 0.4125
v -0.18 0.010000000000000014 0.4125
v -0.17846007504728587 -0.009578928833007774 0.4125
v -0.1738666487320323 -0.02882285676537806 0.4125
v -0.16629831585203161 -0.047402514854763454 0.4125
v -0.15588457268119893 -0.06500000000000003 0.4125
v -0.14280360125242236 -0.08131421435130806 0.4125
v -0.12727922061357858 -0.09606601717798215 0.4125
v -0.10957705722156975 -0.10900300104368527 0.4125
v -0.09000000000000008 -0.11990381056766579 0.4125
v -0.06888301782571626 -0.12858192987669298 0.4125
v -0.04658742811845371 -0.1348888739433603 0.4125
v -0.023494714599609293 -0.1387167292060716 0.4125
v -3.306546357697853e-17 -0.14 0.4125
v 0.023494714599609227 -0.1387167292060716 0.4125
v 0.04658742811845365 -0.1348888739433603 0.4125
v 0.0688830178257162 -0.12858192987669304 0.4125
v 0.09000000000000001 -0.11990381056766582 0.4125
v 0.1095770572215697 -0.1090030010436853 0.4125
v 0.12727922061357852 -0.09606601717798217 0.4125
v 0.14280360125242228 -0.08131421435130815 0.4125
v 0.1558845726811989 -0.06500000000000009 0.4125
v 0.16629831585203156 -0.04740251485476357 0.4125
v 0.17386664873203228 -0.028822856765378116 0.4125
v 0.17846007504728587 -0.00957892883300776 0.4125
v 0 0.009999999999999995 -0.7125
v 0 0.009999999999999995 0.4125
f 1 49 50
f 1 50 2
f 2 50 51
f 2 51 3
f 3 51 52
f 3 52 4
f 4 52 53
f 4 53 5
f 5 53 54
f 5 54 6
f 6 54 55
f 6 55 7
f 7 55 56
f 7 56 8
f 8 56 57
f 8 57 9
f 9 57 58
f 9 58 10
f 10 58 59
f 10 59 11
f 11 59 60
f 11 60 12
f 12 60 61
f 12 61 13
f 13 61 62
f 13 62 14
f 14 62 63
f 14 63 15
f 15 63 64
f 15 64 16
f 16 64 65
f 16 65 17
f 17 65 66
f 17 66 18
f 18 66 67
f 18 67 19
f 19 67 68
f 19 68 20
f 20 68 69
f 20 69 21
f 21 69 70
f 21 70 22
f 22 70 71
f 22 71 23
f 23 71 72
f 23 72 24
f 24 72 73
f 24 73 25
f 25 73 74
f 25 74 26
f 26 74 75
f 26 75 27
f 27 75 76
f 27 76 28
f 28 76 77
f 28 77 29
f 29 77 78
f 29 78 30
f 30 78 79
f 30 79 31
f 31 79 80
f 31 80 32
f 32 80 81
f 32 81 33
f 33 81 82
f 33 82 34
f 34 82 83
f 34 83 35
f 35 83 84
f 35 84 36
f 36 84 85
f 36 85 37
f 37 85 86
f 37 86 38
f 38 86 87
f 38 87 39
f 39 87 88
f 39 88 40
f 40 88 89
f 40 89 41
f 41 89 90
f 41 90 42
f 42 90 91
f 42 91 43
f 43 91 92
f 43 92 44
f 44 92 93
f 44 93 45
f 45 93 94
f 45 94 46
f 46 94 95
f 46 95 47
f 47 95 96
f 47 96 48
f 48 96 49
f 48 49 1
f 49 97 98
f 49 98 50
f 50 98 99
f 50 99 51
f 51 99 100
f 51 100 52
f 52 100 101
f 52 101 53
f 53 101 102
f 53 102 54
f 54 102 103
f 54 103 55
f 55 103 104
f 55 104 56
f 56 104 105
f 56 105 57
f 57 105 106
f 57 106 58
f 58 106 107
f 58 107 59
f 59 107 108
f 59 108 60
f 60 108 109
f 60 109 61
f 61 109 110
f 61 110 62
f 62 110 111
f 62 111 63
f 63 111 112
f 63 112 64
f 64 112 113
f 64 113 65
f 65 113 114
f 65 114 66
f 66 114 115
f 66 115 67
f 67 115 116
f 67 116 68
f 68 116 117
f 68 117 69
f 69 117 118
f 69 118 70
f 70 118 119
f 70 119 71
f 71 119 120
f 71 120 72
f 72 120 121
f 72 121 73
f 73 121 122
f 73 122 74
f 74 122 123
f 74 123 75
f 75 123 124
f 75 124 76
f 76 124 125
f 76 125 77
f 77 125 126
f 77 126 78
f 78 126 127
f 78 127 79
f 79 127 128
f 79 128 80
f 80 128 129
f 80 129 81
f 81 129 130
f 81 130 82
f 82 130 131
f 82 131 83
f 83 131 132
f 83 132 84
f 84 132 133
f 84 133 85
f 85 133 134
f 85 134 86
f 86 134 135
f 86 135 87
f 87 135 136
f 87 136 88
f 88 136 137
f 88 137 89
f 89 137 138
f 89 138 90
f 90 138 139
f 90 139 91
f 91 139 140
f 91 140 92
f 92 140 141
f 92 141 93
f 93 141 142
f 93 142 94
f 94 142 143
f 94 143 95
f 95 143 144
f 95 144 96
f 96 144 97
f 96 97 49
f 97 145 146
f 97 146 98
f 98 146 147
f 98 147 99
f 99 147 148
f 99 148 100
f 100 148 149
f 100 149 101
f 101 149 150
f 101 150 102
f 102 150 151
f 102 151 103
f 103 151 152
f 103 152 104
f 104 152 153
f 104 153 105
f 105 153 154
f 105 154 106
f 106 154 155
f 106 155 107
f 107 155 156
f 107 156 108
f 108 156 157
f 108 157 109
f 109 157 158
f 109 158 110
f 110 158 159
f 110 159 111
f 111 159 160
f 111 160 112
f 112 160 161
f 112 161 113
f 113 161 162
f 113 162 114
f 114 162 163
f 114 163 115
f 115 163 164
f 115 164 116
f 116 164 165
f 116 165 117
f 117 165 166
f 117 166 118
f 118 166 167
f 118 167 119
f 119 167 168
f 119 168 120
f 120 168 169
f 120 169 121
f 121 169 170
f 121 170 122
f 122 170 171
f 122 171 123
f 123 171 172
f 123 172 124
f 124 172 173
f 124 173 125
f 125 173 174
f 125 174 126
f 126 174 175
f 126 175 127
f 127 175 176
f 127 176 128
f 128 176 177
f 128 177 129
f 129 177 178
f 129 178 130
f 130 178 179
f 130 179 131
f 131 179 180
f 131 180 132
f 132 180 181
f 132 181 133
f 133 181 182
f 133 182 134
f 134 182 183
f 134 183 135
f 135 183 184
f 135 184 136
f 136 184 185
f 136 185 137
f 137 185 186
f 137 186 138
f 138 186 187
f 138 187 139
f 139 187 188
f 139 188 140
f 140 188 189
f 140 189 141
f 141 189 190
f 141 190 142
f 142 190 191
f 142 191 143
f 143 191 192
f 143 192 144
f 144 192 145
f 144 145 97
f 145 193 194
f 145 194 146
f 146 194 195
f 146 195 147
f 147 195 196
f 147 196 148
f 148 196 197
f 148 197 149
f 149 197 198
f 149 198 150
f 150 198 199
f 150 199 151
f 151 199 200
f 151 200 152
f 152 200 201
f 152 201 153
f 153 201 202
f 153 202 154
f 154 202 203
f 154 203 155
f 155 203 204
f 155 204 156
f 156 204 205
f 156 205 157
f 157 205 206
f 157 206 158
f 158 206 207
f 158 207 159
f 159 207 208
f 159 208 160
f 160 208 209
f 160 209 161
f 161 209 210
f 161 210 162
f 162 210 211
f 162 211 163
f 163 211 212
f 163 212 164
f 164 212 213
f 164 213 165
f 165 213 214
f 165 214 166
f 166 214 215
f 166 215 167
f 167 215 216
f 167 216 168
f 168 216 217
f 168 217 169
f 169 217 218
f 169 218 170
f 170 218 219
f 170 219 171
f 171 219 220
f 171 220 172
f 172 220 221
f 172 221 173
f 173 221 222
f 173 222 174
f 174 222 223
f 174 223 175
f 175 223 224
f 175 224 176
f 176 224 225
f 176 225 177
f 177 225 226
f 177 226 178
f 178 226 227
f 178 227 179
f 179 227 228
f 179 228 180
f 180 228 229
f 180 229 181
f 181 229 230
f 181 230 182
f 182 230 231
f 182 231 183
f 183 231 232
f 183 232 184
f 184 232 233
f 184 233 185
f 185 233 234
f 185 234 186
f 186 234 235
f 186 235 187
f 187 235 236
f 187 236 188
f 188 236 237
f 188 237 189
f 189 237 238
f 189 238 190
f 190 238 239
f 190 239 191
f 191 239 240
f 191 240 192
f 192 240 193
f 192 193 145
f 193 241 242
f 193 242 194
f 194 242 243
f 194 243 195
f 195 243 244
f 195 244 196
f 196 244 245
f 196 245 197
f 197 245 246
f 197 246 198
f 198 246 247
f 198 247 199
f 199 247 248
f 199 248 200
f 200 248 249
f 200 249 201
f 201 249 250
f 201 250 202
f 202 250 251
f 202 251 203
f 203 251 252
f 203 252 204
f 204 252 253
f 204 253 205
f 205 253 254
f 205 254 206
f 206 254 255
f 206 255 207
f 207 255 256
f 207 256 208
f 208 256 257
f 208 257 209
f 209 257 258
f 209 258 210
f 210 258 259
f 210 259 211
f 211 259 260
f 211 260 212
f 212 260 261
f 212 261 213
f 213 261 262
f 213 262 214
f 214 262 263
f 214 263 215
f 215 263 264
f 215 264 216
f 216 264 265
f 216 265 217
f 217 265 266
f 217 266 218
f 218 266 267
f 218 267 219
f 219 267 268
f 219 268 220
f 220 268 269
f 220 269 221
f 221 269 270
f 221 270 222
f 222 270 271
f 222 271 223
f 223 271 272
f 223 272 224
f 224 272 273
f 224 273 225
f 225 273 274
f 225 274 226
f 226 274 275
f 226 275 227
f 227 275 276
f 227 276 228
f 228 276 277
f 228 277 229
f 229 277 278
f 229 278 230
f 230 278 279
f 230 279 231
f 231 279 280
f 231 280 232
f 232 280 281
f 232 281 233
f 233 281 282
f 233 282 234
f 234 282 283
f 234 283 235
f 235 283 284
f 235 284 236
f 236 284 285
f 236 285 237
f 237 285 286
f 237 286 238
f 238 286 287
f 238 287 239
f 239 287 288
f 239 288 240
f 240 288 241
f 240 241 193
f 241 289 290
f 241 290 242
f 242 290 291
f 242 291 243
f 243 291 292
f 243 292 244
f 244 292 293
f 244 293 245
f 245 293 294
f 245 294 246
f 246 294 295
f 246 295 247
f 247 295 296
f 247 296 248
f 248 296 297
f 248 297 249
f 249 297 298
f 249 298 250
f 250 298 299
f 250 299 251
f 251 299 300
f 251 300 252
f 252 300 301
f 252 301 253
f 253 301 302
f 253 302 254
f 254 302 303
f 254 303 255
f 255 303 304
f 255 304 256
f 256 304 305
f 256 305 257
f 257 305 306
f 257 306 258
f 258 306 307
f 258 307 259
f 259 307 308
f 259 308 260
f 260 308 309
f 260 309 261
f 261 309 310
f 261 310 262
f 262 310 311
f 262 311 263
f 263 311 312
f 263 312 264
f 264 312 313
f 264 313 265
f 265 313 314
f 265 314 266
f 266 314 315
f 266 315 267
f 267 315 316
f 267 316 268
f 268 316 317
f 268 317 269
f 269 317 318
f 269 318 270
f 270 318 319
f 270 319 271
f 271 319 320
f 271 320 272
f 272 320 321
f 272 321 273
f 273 321 322
f 273 322 274
f 274 322 323
f 274 323 275
f 275 323 324
f 275 324 276
f 276 324 325
f 276 325 277
f 277 325 326
f 277 326 278
f 278 326 327
f 278 327 279
f 279 327 328
f 279 328 280
f 280 328 329
f 280 329 281
f 281 329 330
f 281 330 282
f 282 330 331
f 282 331 283
f 283 331 332
f 283 332 284
f 284 332 333
f 284 333 285
f 285 333 334
f 285 334 286
f 286 334 335
f 286 335 287
f 287 335 336
f 287 336 288
f 288 336 289
f 288 289 241
f 289 337 338
f 289 338 290
f 290 338 339
f 290 339 291
f 291 339 340
f 291 340 292
f 292 340 341
f 292 341 293
f 293 341 342
f 293 342 294
f 294 342 343
f 294 343 295
f 295 343 344
f 295 344 296
f 296 344 345
f 296 345 297
f 297 345 346
f 297 346 298
f 298 346 347
f 298 347 299
f 299 347 348
f 299 348 300
f 300 348 349
f 300 349 301
f 301 349 350
f 301 350 302
f 302 350 351
f 302 351 303
f 303 351 352
f 303 352 304
f 304 352 353
f 304 353 305
f 305 353 354
f 305 354 306
f 306 354 355
f 306 355 307
f 307 355 356
f 307 356 308
f 308 356 357
f 308 357 309
f 309 357 358
f 309 358 310
f 310 358 359
f 310 359 311
f 311 359 360
f 311 360 312
f 312 360 361
f 312 361 313
f 313 361 362
f 313 362 314
f 314 362 363
f 314 363 315
f 315 363 364
f 315 364 316
f 316 364 365
f 316 365 317
f 317 365 366
f 317 366 318
f 318 366 367
f 318 367 319
f 319 367 368
f 319 368 320
f 320 368 369
f 320 369 321
f 321 369 370
f 321 370 322
f 322 370 371
f 322 371 323
f 323 371 372
f 323 372 324
f 324 372 373
f 324 373 325
f 325 373 374
f 325 374 326
f 326 374 375
f 326 375 327
f 327 375 376
f 327 376 328
f 328 376 377
f 328 377 329
f 329 377 378
f 329 378 330
f 330 378 379
f 330 379 331
f 331 379 380
f 331 380 332
f 332 380 381
f 332 381 333
f 333 381 382
f 333 382 334
f 334 382 383
f 334 383 335
f 335 383 384
f 335 384 336
f 336 384 337
f 336 337 289
f 337 385 386
f 337 386 338
f 338 386 387
f 338 387 339
f 339 387 388
f 339 388 340
f 340 388 389
f 340 389 341
f 341 389 390
f 341 390 342
f 342 390 391
f 342 391 343
f 343 391 392
f 343 392 344
f 344 392 393
f 344 393 345
f 345 393 394
f 345 394 346
f 346 394 395
f 346 395 347
f 347 395 396
f 347 396 348
f 348 396 397
f 348 397 349
f 349 397 398
f 349 398 350
f 350 398 399
f 350 399 351
f 351 399 400
f 351 400 352
f 352 400 401
f 352 401 353
f 353 401 402
f 353 402 354
f 354 402 403
f 354 403 355
f 355 403 404
f 355 404 356
f 356 404 405
f 356 405 357
f 357 405 406
f 357 406 358
f 358 406 407
f 358 407 359
f 359 407 408
f 359 408 360
f 360 408 409
f 360 409 361
f 361 409 410
f 361 410 362
f 362 410 411
f 362 411 363
f 363 411 412
f 363 412 364
f 364 412 413
f 364 413 365
f 365 413 414
f 365 414 366
f 366 414 415
f 366 415 367
f 367 415 416
f 367 416 368
f 368 416 417
f 368 417 369
f 369 417 418
f 369 418 370
f 370 418 419
f 370 419 371
f 371 419 420
f 371 420 372
f 372 420 421
f 372 421 373
f 373 421 422
f 373 422 374
f 374 422 423
f 374 423 375
f 375 423 424
f 375 424 376
f 376 424 425
f 376 425 377
f 377 425 426
f 377 426 378
f 378 426 427
f 378 427 379
f 379 427 428
f 379 428 380
f 380 428 429
f 380 429 381
f 381 429 430
f 381 430 382
f 382 430 431
f 382 431 383
f 383 431 432
f 383 432 384
f 384 432 385
f 384 385 337
f 385 433 434
f 385 434 386
f 386 434 435
f 386 435 387
f 387 435 436
f 387 436 388
f 388 436 437
f 388 437 389
f 389 437 438
f 389 438 390
f 390 438 439
f 390 439 391
f 391 439 440
f 391 440 392
f 392 440 441
f 392 441 393
f 393 441 442
f 393 442 394
f 394 442 443
f 394 443 395
f 395 443 444
f 395 444 396
f 396 444 445
f 396 445 397
f 397 445 446
f 397 446 398
f 398 446 447
f 398 447 399
f 399 447 448
f 399 448 400
f 400 448 449
f 400 449 401
f 401 449 450
f 401 450 402
f 402 450 451
f 402 451 403
f 403 451 452
f 403 452 404
f 404 452 453
f 404 453 405
f 405 453 454
f 405 454 406
f 406 454 455
f 406 455 407
f 407 455 456
f 407 456 408
f 408 456 457
f 408 457 409
f 409 457 458
f 409 458 410
f 410 458 459
f 410 459 411
f 411 459 460
f 411 460 412
f 412 460 461
f 412 461 413
f 413 461 462
f 413 462 414
f 414 462 463
f 414 463 415
f 415 463 464
f 415 464 416
f 416 464 465
f 416 465 417
f 417 465 466
f 417 466 418
f 418 466 467
f 418 467 419
f 419 467 468
f 419 468 420
f 420 468 469
f 420 469 421
f 421 469 470
f 421 470 422
f 422 470 471
f 422 471 423
f 423 471 472
f 423 472 424
f 424 472 473
f 424 473 425
f 425 473 474
f 425 474 426
f 426 474 475
f 426 475 427
f 427 475 476
f 427 476 428
f 428 476 477
f 428 477 429
f 429 477 478
f 429 478 430
f 430 478 479
f 430 479 431
f 431 479 480
f 431 480 432
f 432 480 433
f 432 433 385
f 433 481 482
f 433 482 434
f 434 482 483
f 434 483 435
f 435 483 484
f 435 484 436
f 436 484 485
f 436 485 437
f 437 485 486
f 437 486 438
f 438 486 487
f 438 487 439
f 439 487 488
f 439 488 440
f 440 488 489
f 440 489 441
f 441 489 490
f 441 490 442
f 442 490 491
f 442 491 443
f 443 491 492
f 443 492 444
f 444 492 493
f 444 493 445
f 445 493 494
f 445 494 446
f 446 494 495
f 446 495 447
f 447 495 496
f 447 496 448
f 448 496 497
f 448 497 449
f 449 497 498
f 449 498 450
f 450 498 499
f 450 499 451
f 451 499 500
f 451 500 452
f 452 500 501
f 452 501 453
f 453 501 502
f 453 502 454
f 454 502 503
f 454 503 455
f 455 503 504
f 455 504 456
f 456 504 505
f 456 505 457
f 457 505 506
f 457 506 458
f 458 506 507
f 458 507 459
f 459 507 508
f 459 508 460
f 460 508 509
f 460 509 461
f 461 509 510
f 461 510 462
f 462 510 511
f 462 511 463
f 463 511 512
f 463 512 464
f 464 512 513
f 464 513 465
f 465 513 514
f 465 514 466
f 466 514 515
f 466 515 467
f 467 515 516
f 467 516 468
f 468 516 517
f 468 517 469
f 469 517 518
f 469 518 470
f 470 518 519
f 470 519 471
f 471 519 520
f 471 520 472
f 472 520 521
f 472 521 473
f 473 521 522
f 473 522 474
f 474 522 523
f 474 523 475
f 475 523 524
f 475 524 476
f 476 524 525
f 476 525 477
f 477 525 526
f 477 526 478
f 478 526 527
f 478 527 479
f 479 527 528
f 479 528 480
f 480 528 481
f 480 481 433
f 529 2 1
f 530 481 482
f 529 3 2
f 530 482 483
f 529 4 3
f 530 483 484
f 529 5 4
f 530 484 485
f 529 6 5
f 530 485 486
f 529 7 6
f 530 486 487
f 529 8 7
f 530 487 488
f 529 9 8
f 530 488 489
f 529 10 9
f 530 489 490
f 529 11 10
f 530 490 491
f 529 12 11
f 530 491 492
f 529 13 12
f 530 492 493
f 529 14 13
f 530 493 494
f 529 15 14
f 530 494 495
f 529 16 15
f 530 495 496
f 529 17 16
f 530 496 497
f 529 18 17
f 530 497 498
f 529 19 18
f 530 498 499
f 529 20 19
f 530 499 500
f 529 21 20
f 530 500 501
f 529 22 21
f 530 501 502
f 529 23 22
f 530 502 503
f 529 24 23
f 530 503 504
f 529 25 24
f 530 504 505
f 529 26 25
f 530 505 506
f 529 27 26
f 530 506 507
f 529 28 27
f 530 507 508
f 529 29 28
f 530 508 509
f 529 30 29
f 530 509 510
f 529 31 30
f 530 510 511
f 529 32 31
f 530 511 512
f 529 33 32
f 530 512 513
f 529 34 33
f 530 513 514
f 529 35 34
f 530 514 515
f 529 36 35
f 530 515 516
f 529 37 36
f 530 516 517
f 529 38 37
f 530 517 518
f 529 39 38
f 530 518 519
f 529 40 39
f 530 519 520
f 529 41 40
f 530 520 521
f 529 42 41
f 530 521 522
f 529 43 42
f 530 522 523
f 529 44 43
f 530 523 524
f 529 45 44
f 530 524 525
f 529 46 45
f 530 525 526
f 529 47 46
f 530 526 527
f 529 48 47
f 530 527 528
f 529 1 48
f 530 528 481
