o reference-combined_0.5
v 0.29999999999999993 -0.014999999999999958 -0.7125
v 0.297433458412143 0.01697891709391268 -0.7125
v 0.28977774788672045 0.04841066605011762 -0.7125
v 0.277163859753386 0.07875744092944703 -0.7125
v 0.25980762113533157 0.10750000000000003 -0.7125
v 0.2380060020873705 0.1341465501071366 -0.7125
v 0.21213203435596423 0.15824116139070415 -0.7125
v 0.18262842870261617 0.17937156837135265 -0.7125
v 0.15 0.1971762239271875 -0.7125
v 0.11480502970952693 0.21135048546526528 -0.7125
v 0.07764571353075621 0.22165182744082176 -0.7125
v 0.039157857666015504 0.22790399103658357 -0.7125
v 1.8369701987210294e-17 0.23000000000000004 -0.7125
v -0.03915785766601541 0.2279039910365836 -0.7125
v -0.07764571353075624 0.22165182744082176 -0.7125
v -0.1148050297095269 0.21135048546526528 -0.7125
v -0.1499999999999999 0.19717622392718753 -0.7125
v -0.18262842870261617 0.17937156837135265 -0.7125
v -0.2121320343559642 0.15824116139070418 -0.7125
v -0.23800600208737047 0.13414655010713666 -0.7125
v -0.25980762113533157 0.10750000000000003 -0.7125
v -0.277163859753386 0.07875744092944706 -0.7125
v -0.2897777478867204 0.04841066605011769 -0.7125
v -0.297433458412143 0.01697891709391268 -0.7125
v -0.29999999999999993 -0.014999999999999928 -0.7125
v -0.297433458412143 -0.046978917093912644 -0.7125
v -0.28977774788672045 -0.07841066605011744 -0.7125
v -0.277163859753386 -0.1087574409294469 -0.7125
v -0.2598076211353315 -0.13749999999999998 -0.7125
v -0.23800600208737055 -0.16414655010713644 -0.7125
v -0.21213203435596426 -0.18824116139070407 -0.7125
v -0.18262842870261622 -0.2093715683713525 -0.7125
v -0.1500000000000001 -0.2271762239271874 -0.7125
v -0.11480502970952708 -0.24135048546526516 -0.7125
v -0.07764571353075617 -0.2516518274408217 -0.7125
v -0.03915785766601548 -0.25790399103658346 -0.7125
v -5.510910596163088e-17 -0.25999999999999995 -0.7125
v 0.03915785766601537 -0.2579039910365835 -0.7125
v 0.07764571353075607 -0.2516518274408217 -0.7125
v 0.11480502970952698 -0.2413504854652652 -0.7125
v 0.15 -0.22717622392718742 -0.7125
v 0.1826284287026161 -0.20937156837135257 -0.7125
v 0.21213203435596417 -0.18824116139070413 -0.7125
v 0.23800600208737044 -0.16414655010713658 -0.7125
v 0.25980762113533146 -0.13750000000000007 -0.7125
v 0.27716385975338587 -0.1087574409294471 -0.7125
v 0.28977774788672045 -0.07841066605011753 -0.7125
v 0.297433458412143 -0.04697891709391262 -0.7125
v 0.29999999999999993 -0.014999999999999958 -0.65
v 0.297433458412143 0.01697891709391268 -0.65
v 0.28977774788672045 0.04841066605011762 -0.65
v 0.277163859753386 0.07875744092944703 -0.65
v 0.25980762113533157 0.10750000000000003 -0.65
v 0.2380060020873705 0.1341465501071366 -0.65
v 0.21213203435596423 0.15824116139070415 -0.65
v 0.18262842870261617 0.17937156837135265 -0.65
v 0.15 0.1971762239271875 -0.65
v 0.11480502970952693 0.21135048546526528 -0.65
v 0.07764571353075621 0.22165182744082176 -0.65
v 0.039157857666015504 0.22790399103658357 -0.65
v 1.8369701987210294e-17 0.23000000000000004 -0.65
v -0.03915785766601541 0.2279039910365836 -0.65
v -0.07764571353075624 0.22165182744082176 -0.65
v -0.1148050297095269 0.21135048546526528 -0.65
v -0.1499999999999999 0.19717622392718753 -0.65
v -0.18262842870261617 0.17937156837135265 -0.65
v -0.2121320343559642 0.15824116139070418 -0.65
v -0.23800600208737047 0.13414655010713666 -0.65
v -0.25980762113533157 0.10750000000000003 -0.65
v -0.277163859753386 0.07875744092944706 -0.65
v -0.2897777478867204 0.04841066605011769 -0.65
v -0.297433458412143 0.01697891709391268 -0.65
v -0.29999999999999993 -0.014999999999999928 -0.65
v -0.297433458412143 -0.046978917093912644 -0.65
v -0.28977774788672045 -0.07841066605011744 -0.65
v -0.277163859753386 -0.1087574409294469 -0.65
v -0.2598076211353315 -0.13749999999999998 -0.65
v -0.23800600208737055 -0.16414655010713644 -0.65
v -0.21213203435596426 -0.18824116139070407 -0.65
v -0.18262842870261622 -0.2093715683713525 -0.65
v -0.1500000000000001 -0.2271762239271874 -0.65
v -0.11480502970952708 -0.24135048546526516 -0.65
v -0.07764571353075617 -0.2516518274408217 -0.65
v -0.03915785766601548 -0.25790399103658346 -0.65
v -5.510910596163088e-17 -0.25999999999999995 -0.65
v 0.03915785766601537 -0.2579039910365835 -0.65
v 0.07764571353075607 -0.2516518274408217 -0.65
v 0.11480502970952698 -0.2413504854652652 -0.65
v 0.15 -0.22717622392718742 -0.65
v 0.1826284287026161 -0.20937156837135257 -0.65
v 0.21213203435596417 -0.18824116139070413 -0.65
v 0.23800600208737044 -0.16414655010713658 -0.65
v 0.25980762113533146 -0.13750000000000007 -0.65
v 0.27716385975338587 -0.1087574409294471 -0.65
v 0.28977774788672045 -0.07841066605011753 -0.65
v 0.297433458412143 -0.04697891709391262 -0.65
v 0.6099999999999999 0.035 -0.525
v 0.6047813654380242 0.09699994130452451 -0.525
v 0.5892147540363315 0.15793904642369738 -0.525
v 0.5635665148318848 0.21677463037341768 -0.525
v 0.5282754963085075 0.2725 -0.525
v 0.48394553757765335 0.32416167877914237 -0.525
v 0.4313351365237939 0.3708757210636101 -0.525
v 0.37134447169531953 0.41184283663833676 -0.525
v 0.305 0.44636206679760837 -0.525
v 0.23343689374270477 0.47384277794286134 -0.525
v 0.15787961751253762 0.49381476748730757 -0.525
v 0.07962097725423153 0.50593630915256 -0.525
v 3.7351727373994264e-17 0.5100000000000001 -0.525
v -0.07962097725423133 0.50593630915256 -0.525
v -0.15787961751253768 0.49381476748730757 -0.525
v -0.23343689374270468 0.47384277794286134 -0.525
v -0.3049999999999998 0.4463620667976085 -0.525
v -0.37134447169531953 0.41184283663833676 -0.525
v -0.43133513652379385 0.3708757210636101 -0.525
v -0.4839455375776533 0.3241616787791425 -0.525
v -0.5282754963085075 0.2725 -0.525
v -0.5635665148318848 0.21677463037341774 -0.525
v -0.5892147540363315 0.1579390464236975 -0.525
v -0.6047813654380242 0.09699994130452451 -0.525
v -0.6099999999999999 0.03500000000000006 -0.525
v -0.6047813654380242 -0.0269999413045246 -0.525
v -0.5892147540363316 -0.08793904642369718 -0.525
v -0.5635665148318849 -0.1467746303734176 -0.525
v -0.5282754963085075 -0.2025000000000001 -0.525
v -0.48394553757765346 -0.2541616787791422 -0.525
v -0.431335136523794 -0.30087572106361016 -0.525
v -0.37134447169531964 -0.3418428366383367 -0.525
v -0.3050000000000002 -0.3763620667976083 -0.525
v -0.23343689374270507 -0.40384277794286116 -0.525
v -0.15787961751253754 -0.4238147674873075 -0.525
v -0.07962097725423148 -0.43593630915256 -0.525
v -1.1205518212198278e-16 -0.44000000000000006 -0.525
v 0.07962097725423126 -0.4359363091525601 -0.525
v 0.15787961751253735 -0.4238147674873076 -0.525
v 0.23343689374270485 -0.4038427779428613 -0.525
v 0.305 -0.3763620667976084 -0.525
v 0.3713444716953195 -0.3418428366383368 -0.525
v 0.4313351365237938 -0.30087572106361016 -0.525
v 0.48394553757765324 -0.2541616787791424 -0.525
v 0.5282754963085073 -0.20250000000000026 -0.525
v 0.5635665148318847 -0.14677463037341798 -0.525
v 0.5892147540363315 -0.08793904642369735 -0.525
v 0.6047813654380242 -0.026999941304524558 -0.525
v 0.9799999999999999 0.10499999999999993 -0.4
v 0.971615964146334 0.20224201320393834 -0.4
v 0.9466073097632868 0.2978201886013778 -0.4
v 0.9054019418610609 0.3900991571119918 -0.4
v 0.8487048957087499 0.4774999999999998 -0.4
v 0.7774862734854103 0.5585272646114967 -0.4
v 0.6929646455628166 0.6317945519839776 -0.4
v 0.5965862004285462 0.69604823851697 -0.4
v 0.49000000000000005 0.7501889258194065 -0.4
v 0.375029763717788 0.7932902517209084 -0.4
v 0.25364266420047027 0.8246147405853557 -0.4
v 0.12791566837565066 0.8436264217234886 -0.4
v 6.00076931582203e-17 0.8499999999999999 -0.4
v -0.12791566837565033 0.8436264217234886 -0.4
v -0.2536426642004704 0.8246147405853557 -0.4
v -0.3750297637177879 0.7932902517209084 -0.4
v -0.4899999999999997 0.7501889258194068 -0.4
v -0.5965862004285462 0.69604823851697 -0.4
v -0.6929646455628165 0.6317945519839778 -0.4
v -0.7774862734854102 0.5585272646114969 -0.4
v -0.8487048957087499 0.4774999999999998 -0.4
v -0.9054019418610609 0.39009915711199183 -0.4
v -0.9466073097632867 0.29782018860137804 -0.4
v -0.971615964146334 0.20224201320393834 -0.4
v -0.9799999999999999 0.10500000000000002 -0.4
v -0.971615964146334 0.007757986796061378 -0.4
v -0.9466073097632869 -0.08782018860137769 -0.4
v -0.905401941861061 -0.18009915711199181 -0.4
v -0.8487048957087497 -0.26750000000000007 -0.4
v -0.7774862734854106 -0.34852726461149663 -0.4
v -0.6929646455628167 -0.4217945519839778 -0.4
v -0.5965862004285464 -0.48604823851697004 -0.4
v -0.4900000000000004 -0.5401889258194066 -0.4
v -0.37502976371778846 -0.5832902517209084 -0.4
v -0.25364266420047016 -0.6146147405853559 -0.4
v -0.12791566837565058 -0.6336264217234886 -0.4
v -1.800230794746609e-16 -0.6399999999999999 -0.4
v 0.12791566837565022 -0.6336264217234888 -0.4
v 0.2536426642004699 -0.6146147405853559 -0.4
v 0.3750297637177882 -0.5832902517209084 -0.4
v 0.49000000000000005 -0.5401889258194068 -0.4
v 0.596586200428546 -0.48604823851697015 -0.4
v 0.6929646455628163 -0.421794551983978 -0.4
v 0.7774862734854101 -0.3485272646114971 -0.4
v 0.8487048957087495 -0.26750000000000035 -0.4
v 0.9054019418610607 -0.18009915711199237 -0.4
v 0.9466073097632868 -0.08782018860137794 -0.4
v 0.971615964146334 0.0077579867960614335 -0.4
v 1.2499999999999996 0.16499999999999992 -0.275
v 1.2393060767172626 0.2974840851033523 -0.275
v 1.207407282861335 0.42770133077905853 -0.275
v 1.154849415639108 0.5534236838505662 -0.275
v 1.082531754730548 0.6724999999999999 -0.275
v 0.9916916753640436 0.7828928504438515 -0.275
v 0.8838834764831841 0.8827133829043456 -0.275
v 0.7609517862609005 0.9702536403956037 -0.275
v 0.6249999999999999 1.0440157848412053 -0.275
v 0.47835429045636213 1.102737725498956 -0.275
v 0.3235238063781508 1.1454147136834045 -0.275
v 0.16315774027506458 1.1713165342944176 -0.275
v 7.654042494670955e-17 1.1800000000000002 -0.275
v -0.16315774027506416 1.1713165342944176 -0.275
v -0.3235238063781509 1.1454147136834045 -0.275
v -0.47835429045636196 1.102737725498956 -0.275
v -0.6249999999999996 1.0440157848412053 -0.275
v -0.7609517862609005 0.9702536403956037 -0.275
v -0.883883476483184 0.8827133829043458 -0.275
v -0.9916916753640435 0.7828928504438517 -0.275
v -1.082531754730548 0.6724999999999999 -0.275
v -1.154849415639108 0.5534236838505662 -0.275
v -1.207407282861335 0.4277013307790588 -0.275
v -1.2393060767172626 0.2974840851033523 -0.275
v -1.2499999999999996 0.16500000000000004 -0.275
v -1.2393060767172626 0.032515914896647374 -0.275
v -1.2074072828613351 -0.09770133077905824 -0.275
v -1.1548494156391083 -0.2234236838505661 -0.275
v -1.082531754730548 -0.34250000000000025 -0.275
v -0.9916916753640439 -0.4528928504438513 -0.275
v -0.8838834764831843 -0.5527133829043458 -0.275
v -0.7609517862609009 -0.6402536403956036 -0.275
v -0.6250000000000003 -0.7140157848412052 -0.275
v -0.47835429045636274 -0.772737725498956 -0.275
v -0.32352380637815065 -0.8154147136834046 -0.275
v -0.16315774027506447 -0.8413165342944177 -0.275
v -2.2962127484012865e-16 -0.8500000000000002 -0.275
v 0.16315774027506402 -0.8413165342944179 -0.275
v 0.32352380637815026 -0.8154147136834047 -0.275
v 0.47835429045636235 -0.7727377254989561 -0.275
v 0.6249999999999999 -0.7140157848412053 -0.275
v 0.7609517862609004 -0.6402536403956038 -0.275
v 0.8838834764831839 -0.552713382904346 -0.275
v 0.9916916753640433 -0.45289285044385186 -0.275
v 1.0825317547305475 -0.3425000000000006 -0.275
v 1.1548494156391078 -0.22342368385056688 -0.275
v 1.207407282861335 -0.09770133077905863 -0.275
v 1.2393060767172626 0.03251591489664746 -0.275
v 1.27 0.11499999999999977 -0.15
v 1.2591349739447393 0.25009460894775315 -0.15
v 1.2267257993871168 0.3828777116811088 -0.15
v 1.1733270062893342 0.5110773524978678 -0.15
v 1.0998522628062373 0.6324999999999997 -0.15
v 1.0075587421698686 0.7450680790240257 -0.15
v 0.8980256121069154 0.8468555185280765 -0.15
v 0.7731270148410753 0.9361207072014283 -0.15
v 0.6350000000000001 1.0113362929168939 -0.15
v 0.4860079591036641 1.0712153161491815 -0.15
v 0.32870018728020134 1.1147332302091857 -0.15
v 0.16576826411946569 1.1411454315218936 -0.15
v 7.776507174585693e-17 1.15 -0.15
v -0.16576826411946524 1.1411454315218938 -0.15
v -0.3287001872802015 1.1147332302091857 -0.15
v -0.48600795910366396 1.0712153161491815 -0.15
v -0.6349999999999997 1.0113362929168939 -0.15
v -0.7731270148410753 0.9361207072014283 -0.15
v -0.8980256121069153 0.8468555185280766 -0.15
v -1.0075587421698686 0.7450680790240259 -0.15
v -1.0998522628062373 0.6324999999999997 -0.15
v -1.1733270062893342 0.5110773524978678 -0.15
v -1.2267257993871166 0.38287771168110907 -0.15
v -1.2591349739447393 0.25009460894775315 -0.15
v -1.27 0.1149999999999999 -0.15
v -1.2591349739447393 -0.020094608947753834 -0.15
v -1.226725799387117 -0.1528777116811088 -0.15
v -1.1733270062893344 -0.281077352497868 -0.15
v -1.099852262806237 -0.4025000000000004 -0.15
v -1.0075587421698688 -0.5150680790240258 -0.15
v -0.8980256121069156 -0.616855518528077 -0.15
v -0.7731270148410755 -0.7061207072014285 -0.15
v -0.6350000000000006 -0.7813362929168942 -0.15
v -0.48600795910366473 -0.8412153161491819 -0.15
v -0.32870018728020123 -0.884733230209186 -0.15
v -0.16576826411946557 -0.9111454315218941 -0.15
v -2.3329521523757077e-16 -0.9200000000000004 -0.15
v 0.1657682641194651 -0.9111454315218943 -0.15
v 0.3287001872802008 -0.8847332302091862 -0.15
v 0.4860079591036643 -0.841215316149182 -0.15
v 0.6350000000000001 -0.7813362929168943 -0.15
v 0.7731270148410752 -0.7061207072014287 -0.15
v 0.8980256121069151 -0.6168555185280772 -0.15
v 1.0075587421698684 -0.5150680790240264 -0.15
v 1.0998522628062368 -0.40250000000000075 -0.15
v 1.173327006289334 -0.28107735249786886 -0.15
v 1.2267257993871168 -0.1528777116811092 -0.15
v 1.2591349739447393 -0.02009460894775375 -0.15
v 1.1400000000000001 0.04000000000000009 -0.025
v 1.130247141966144 0.14833673954264293 -0.025
v 1.101155441969538 0.25481980743509236 -0.025
v 1.053222667062867 0.35762724886302466 -0.025
v 0.9872689603142603 0.45500000000000007 -0.025
v 0.9044228079320081 0.5452719860772384 -0.025
v 0.8061017305526643 0.6268986283848346 -0.025
v 0.6939880290699416 0.6984832724417254 -0.025
v 0.5700000000000002 0.7588010851410842 -0.025
v 0.43625911289620245 0.8068200119843683 -0.025
v 0.2950537114168737 0.8417184358199268 -0.025
v 0.14879985913085897 0.8628992349402629 -0.025
v 6.980486755139914e-17 0.8700000000000001 -0.025
v -0.14879985913085858 0.8628992349402629 -0.025
v -0.2950537114168738 0.8417184358199268 -0.025
v -0.43625911289620234 0.8068200119843683 -0.025
v -0.5699999999999998 0.7588010851410842 -0.025
v -0.6939880290699416 0.6984832724417254 -0.025
v -0.8061017305526642 0.6268986283848346 -0.025
v -0.904422807932008 0.5452719860772384 -0.025
v -0.9872689603142603 0.45500000000000007 -0.025
v -1.053222667062867 0.3576272488630247 -0.025
v -1.101155441969538 0.2548198074350926 -0.025
v -1.130247141966144 0.14833673954264293 -0.025
v -1.1400000000000001 0.040000000000000195 -0.025
v -1.130247141966144 -0.06833673954264288 -0.025
v -1.1011554419695382 -0.17481980743509182 -0.025
v -1.053222667062867 -0.2776272488630243 -0.025
v -0.9872689603142601 -0.37500000000000006 -0.025
v -0.9044228079320085 -0.4652719860772378 -0.025
v -0.8061017305526644 -0.5468986283848343 -0.025
v -0.6939880290699418 -0.6184832724417251 -0.025
v -0.5700000000000006 -0.678801085141084 -0.025
v -0.436259112896203 -0.7268200119843677 -0.025
v -0.29505371141687353 -0.7617184358199267 -0.025
v -0.14879985913085889 -0.7828992349402626 -0.025
v -2.094146026541974e-16 -0.79 -0.025
v 0.14879985913085847 -0.7828992349402626 -0.025
v 0.29505371141687314 -0.7617184358199267 -0.025
v 0.43625911289620267 -0.726820011984368 -0.025
v 0.5700000000000002 -0.678801085141084 -0.025
v 0.6939880290699415 -0.6184832724417251 -0.025
v 0.8061017305526641 -0.5468986283848345 -0.025
v 0.9044228079320079 -0.46527198607723824 -0.025
v 0.9872689603142598 -0.37500000000000033 -0.025
v 1.0532226670628668 -0.277627248863025 -0.025
v 1.101155441969538 -0.1748198074350921 -0.025
v 1.130247141966144 -0.06833673954264281 -0.025
v 0.76 0.01000000000000012 0.1
v 0.7534980946440959 0.08570519148763003 0.1
v 0.734103627979692 0.16011504615946215 0.1
v 0.702148444708578 0.23195639077175217 0.1
v 0.6581793068761734 0.30000000000000004 0.1
v 0.6029485386213387 0.36308162882505807 0.1
v 0.5374011537017762 0.4201219330881976 0.1
v 0.4626586860466277 0.4701449373689165 0.1
v 0.3800000000000001 0.5122947341949745 0.1
v 0.29083940859746826 0.5458501288565464 0.1
v 0.19670247427791576 0.5702369792476597 0.1
v 0.0991999060872393 0.5850380195968101 0.1
v 4.6536578367599424e-17 0.5900000000000001 0.1
v -0.09919990608723905 0.5850380195968101 0.1
v -0.19670247427791585 0.5702369792476597 0.1
v -0.2908394085974682 0.5458501288565464 0.1
v -0.37999999999999984 0.5122947341949745 0.1
v -0.4626586860466277 0.4701449373689165 0.1
v -0.5374011537017761 0.4201219330881977 0.1
v -0.6029485386213387 0.3630816288250582 0.1
v -0.6581793068761734 0.30000000000000004 0.1
v -0.702148444708578 0.23195639077175223 0.1
v -0.7341036279796919 0.1601150461594623 0.1
v -0.7534980946440959 0.08570519148763003 0.1
v -0.76 0.010000000000000191 0.1
v -0.7534980946440959 -0.0657051914876299 0.1
v -0.734103627979692 -0.1401150461594617 0.1
v -0.7021484447085781 -0.21195639077175185 0.1
v -0.6581793068761733 -0.2799999999999999 0.1
v -0.6029485386213389 -0.34308162882505766 0.1
v -0.5374011537017762 -0.4001219330881974 0.1
v -0.46265868604662785 -0.45014493736891614 0.1
v -0.38000000000000034 -0.49229473419497416 0.1
v -0.29083940859746865 -0.525850128856546 0.1
v -0.19670247427791568 -0.5502369792476595 0.1
v -0.09919990608723923 -0.5650380195968099 0.1
v -1.3960973510279825e-16 -0.5699999999999998 0.1
v 0.09919990608723897 -0.5650380195968099 0.1
v 0.19670247427791543 -0.5502369792476596 0.1
v 0.29083940859746843 -0.5258501288565461 0.1
v 0.3800000000000001 -0.49229473419497427 0.1
v 0.46265868604662763 -0.45014493736891625 0.1
v 0.537401153701776 -0.4001219330881975 0.1
v 0.6029485386213386 -0.34308162882505794 0.1
v 0.6581793068761732 -0.28000000000000014 0.1
v 0.7021484447085777 -0.2119563907717523 0.1
v 0.734103627979692 -0.14011504615946185 0.1
v 0.7534980946440959 -0.06570519148762985 0.1
v 0.4200000000000001 -0.00500000000000006 0.225
v 0.41640684177700044 0.041336798238118255 0.225
v 0.4056888470414088 0.08688076101139482 0.225
v 0.38802940365474053 0.13085261848960683 0.225
v 0.3637306695894643 0.17249999999999993 0.225
v 0.33320840292231885 0.2111103072980958 0.225
v 0.2969848480983501 0.24602290732122434 0.225
v 0.2556798001836627 0.27664043580338843 0.225
v 0.2100000000000001 0.3024390183434757 0.225
v 0.16072704159333775 0.32297723404150674 0.225
v 0.10870399894305874 0.3379036683326192 0.225
v 0.05482100073242173 0.34696292578770266 0.225
v 2.5717582782094422e-17 0.35 0.225
v -0.05482100073242159 0.3469629257877027 0.225
v -0.10870399894305878 0.3379036683326192 0.225
v -0.16072704159333773 0.32297723404150674 0.225
v -0.20999999999999996 0.3024390183434757 0.225
v -0.2556798001836627 0.27664043580338843 0.225
v -0.29698484809835 0.24602290732122434 0.225
v -0.3332084029223188 0.21111030729809588 0.225
v -0.3637306695894643 0.17249999999999993 0.225
v -0.38802940365474053 0.13085261848960686 0.225
v -0.40568884704140873 0.08688076101139491 0.225
v -0.41640684177700044 0.041336798238118255 0.225
v -0.4200000000000001 -0.005000000000000017 0.225
v -0.41640684177700044 -0.051336798238118445 0.225
v -0.40568884704140884 -0.0968807610113948 0.225
v -0.3880294036547406 -0.1408526184896069 0.225
v -0.3637306695894643 -0.1825000000000001 0.225
v -0.33320840292231896 -0.2211103072980958 0.225
v -0.2969848480983501 -0.25602290732122446 0.225
v -0.2556798001836628 -0.2866404358033885 0.225
v -0.21000000000000024 -0.31243901834347576 0.225
v -0.16072704159333798 -0.3329772340415068 0.225
v -0.10870399894305868 -0.3479036683326193 0.225
v -0.054821000732421694 -0.3569629257877028 0.225
v -7.715274834628327e-17 -0.3600000000000001 0.225
v 0.05482100073242154 -0.35696292578770283 0.225
v 0.10870399894305854 -0.3479036683326194 0.225
v 0.16072704159333784 -0.33297723404150686 0.225
v 0.2100000000000001 -0.3124390183434758 0.225
v 0.2556798001836627 -0.28664043580338855 0.225
v 0.29698484809834996 -0.2560229073212245 0.225
v 0.33320840292231874 -0.221110307298096 0.225
v 0.3637306695894642 -0.18250000000000025 0.225
v 0.3880294036547404 -0.14085261848960717 0.225
v 0.4056888470414088 -0.09688076101139491 0.225
v 0.41640684177700044 -0.05133679823811841 0.225
v 0.23000000000000004 -0.014999999999999958 0.35
v 0.22803231811597643 0.007842083638509061 0.35
v 0.22216294004648574 0.030293332892941165 0.35
v 0.212492292477596 0.05196960066389074 0.35
v 0.19918584287042093 0.07250000000000001 0.35
v 0.18247126826698412 0.09153325007652613 0.35
v 0.16263455967290597 0.10874368670764582 0.35
v 0.14001512867200577 0.12383683455096617 0.35
v 0.11500000000000005 0.13655444566227676 0.35
v 0.08801718944397068 0.14667891818947518 0.35
v 0.05952838037357978 0.15403701960058697 0.35
v 0.0300210242106119 0.1585028507404168 0.35
v 1.4083438190194565e-17 0.16 0.35
v -0.030021024210611823 0.15850285074041684 0.35
v -0.059528380373579805 0.15403701960058697 0.35
v -0.08801718944397065 0.14667891818947518 0.35
v -0.11499999999999996 0.13655444566227679 0.35
v -0.14001512867200577 0.12383683455096617 0.35
v -0.16263455967290594 0.10874368670764584 0.35
v -0.1824712682669841 0.09153325007652617 0.35
v -0.19918584287042093 0.07250000000000001 0.35
v -0.212492292477596 0.05196960066389075 0.35
v -0.22216294004648574 0.030293332892941213 0.35
v -0.22803231811597643 0.007842083638509061 0.35
v -0.23000000000000004 -0.014999999999999937 0.35
v -0.22803231811597643 -0.03784208363850901 0.35
v -0.22216294004648576 -0.06029333289294101 0.35
v -0.21249229247759602 -0.08196960066389063 0.35
v -0.1991858428704209 -0.10249999999999995 0.35
v -0.18247126826698418 -0.12153325007652599 0.35
v -0.162634559672906 -0.13874368670764575 0.35
v -0.14001512867200583 -0.15383683455096603 0.35
v -0.11500000000000012 -0.16655444566227665 0.35
v -0.08801718944397079 -0.17667891818947506 0.35
v -0.059528380373579756 -0.18403701960058688 0.35
v -0.03002102421061188 -0.18850285074041673 0.35
v -4.225031457058369e-17 -0.18999999999999992 0.35
v 0.030021024210611796 -0.18850285074041676 0.35
v 0.05952838037357968 -0.18403701960058688 0.35
v 0.08801718944397072 -0.1766789181894751 0.35
v 0.11500000000000005 -0.16655444566227667 0.35
v 0.14001512867200575 -0.15383683455096608 0.35
v 0.1626345596729059 -0.13874368670764578 0.35
v 0.18247126826698407 -0.12153325007652609 0.35
v 0.19918584287042085 -0.10250000000000002 0.35
v 0.21249229247759593 -0.08196960066389077 0.35
v 0.22216294004648574 -0.060293332892941066 0.35
v 0.22803231811597643 -0.037842083638508994 0.35
v 0.23000000000000004 -0.014999999999999958 0.4125
v 0.22803231811597643 0.007842083638509061 0.4125
v 0.22216294004648574 0.030293332892941165 0.4125
v 0.212492292477596 0.05196960066389074 0.4125
v 0.19918584287042093 0.07250000000000001 0.4125
v 0.18247126826698412 0.09153325007652613 0.4125
v 0.16263455967290597 0.10874368670764582 0.4125
v 0.14001512867200577 0.12383683455096617 0.4125
v 0.11500000000000005 0.13655444566227676 0.4125
v 0.08801718944397068 0.14667891818947518 0.4125
v 0.05952838037357978 0.15403701960058697 0.4125
v 0.0300210242106119 0.1585028507404168 0.4125
v 1.4083438190194565e-17 0.16 0.4125
v -0.030021024210611823 0.15850285074041684 0.4125
v -0.059528380373579805 0.15403701960058697 0.4125
v -0.08801718944397065 0.14667891818947518 0.4125
v -0.11499999999999996 0.13655444566227679 0.4125
v -0.14001512867200577 0.12383683455096617 0.4125
v -0.16263455967290594 0.10874368670764584 0.4125
v -0.1824712682669841 0.09153325007652617 0.4125
v -0.19918584287042093 0.07250000000000001 0.4125
v -0.212492292477596 0.05196960066389075 0.4125
v -0.22216294004648574 0.030293332892941213 0.4125
v -0.22803231811597643 0.007842083638509061 0.4125
v -0.23000000000000004 -0.014999999999999937 0.4125
v -0.22803231811597643 -0.03784208363850901 0.4125
v -0.22216294004648576 -0.06029333289294101 0.4125
v -0.21249229247759602 -0.08196960066389063 0.4125
v -0.1991858428704209 -0.10249999999999995 0.4125
v -0.18247126826698418 -0.12153325007652599 0.4125
v -0.162634559672906 -0.13874368670764575 0.4125
v -0.14001512867200583 -0.15383683455096603 0.4125
v -0.11500000000000012 -0.16655444566227665 0.4125
v -0.08801718944397079 -0.17667891818947506 0.4125
v -0.059528380373579756 -0.18403701960058688 0.4125
v -0.03002102421061188 -0.18850285074041673 0.4125
v -4.225031457058369e-17 -0.18999999999999992 0.4125
v 0.030021024210611796 -0.18850285074041676 0.4125
v 0.05952838037357968 -0.18403701960058688 0.4125
v 0.08801718944397072 -0.1766789181894751 0.4125
v 0.11500000000000005 -0.16655444566227667 0.4125
v 0.14001512867200575 -0.15383683455096608 0.4125
v 0.1626345596729059 -0.13874368670764578 0.4125
v 0.18247126826698407 -0.12153325007652609 0.4125
v 0.19918584287042085 -0.10250000000000002 0.4125
v 0.21249229247759593 -0.08196960066389077 0.4125
v 0.22216294004648574 -0.060293332892941066 0.4125
v 0.22803231811597643 -0.037842083638508994 0.4125
v 0 -0.014999999999999958 -0.7125
v 0 -0.014999999999999958 0.4125
f 1 49 50
f 1 50 2
f 2 50 51
f 2 51 3
f 3 51 52
f 3 52 4
f 4 52 53
f 4 53 5
f 5 53 54
f 5 54 6
f 6 54 55
f 6 55 7
f 7 55 56
f 7 56 8
f 8 56 57
f 8 57 9
f 9 57 58
f 9 58 10
f 10 58 59
f 10 59 11
f 11 59 60
f 11 60 12
f 12 60 61
f 12 61 13
f 13 61 62
f 13 62 14
f 14 62 63
f 14 63 15
f 15 63 64
f 15 64 16
f 16 64 65
f 16 65 17
f 17 65 66
f 17 66 18
f 18 66 67
f 18 67 19
f 19 67 68
f 19 68 20
f 20 68 69
f 20 69 21
f 21 69 70
f 21 70 22
f 22 70 71
f 22 71 23
f 23 71 72
f 23 72 24
f 24 72 73
f 24 73 25
f 25 73 74
f 25 74 26
f 26 74 75
f 26 75 27
f 27 75 76
f 27 76 28
f 28 76 77
f 28 77 29
f 29 77 78
f 29 78 30
f 30 78 79
f 30 79 31
f 31 79 80
f 31 80 32
f 32 80 81
f 32 81 33
f 33 81 82
f 33 82 34
f 34 82 83
f 34 83 35
f 35 83 84
f 35 84 36
f 36 84 85
f 36 85 37
f 37 85 86
f 37 86 38
f 38 86 87
f 38 87 39
f 39 87 88
f 39 88 40
f 40 88 89
f 40 89 41
f 41 89 90
f 41 90 42
f 42 90 91
f 42 91 43
f 43 91 92
f 43 92 44
f 44 92 93
f 44 93 45
f 45 93 94
f 45 94 46
f 46 94 95
f 46 95 47
f 47 95 96
f 47 96 48
f 48 96 49
f 48 49 1
f 49 97 98
f 49 98 50
f 50 98 99
f 50 99 51
f 51 99 100
f 51 100 52
f 52 100 101
f 52 101 53
f 53 101 102
f 53 102 54
f 54 102 103
f 54 103 55
f 55 103 104
f 55 104 56
f 56 104 105
f 56 105 57
f 57 105 106
f 57 106 58
f 58 106 107
f 58 107 59
f 59 107 108
f 59 108 60
f 60 108 109
f 60 109 61
f 61 109 110
f 61 110 62
f 62 110 111
f 62 111 63
f 63 111 112
f 63 112 64
f 64 112 113
f 64 113 65
f 65 113 114
f 65 114 66
f 66 114 115
f 66 115 67
f 67 115 116
f 67 116 68
f 68 116 117
f 68 117 69
f 69 117 118
f 69 118 70
f 70 118 119
f 70 119 71
f 71 119 120
f 71 120 72
f 72 120 121
f 72 121 73
f 73 121 122
f 73 122 74
f 74 122 123
f 74 123 75
f 75 123 124
f 75 124 76
f 76 124 125
f 76 125 77
f 77 125 126
f 77 126 78
f 78 126 127
f 78 127 79
f 79 127 128
f 79 128 80
f 80 128 129
f 80 129 81
f 81 129 130
f 81 130 82
f 82 130 131
f 82 131 83
f 83 131 132
f 83 132 84
f 84 132 133
f 84 133 85
f 85 133 134
f 85 134 86
f 86 134 135
f 86 135 87
f 87 135 136
f 87 136 88
f 88 136 137
f 88 137 89
f 89 137 138
f 89 138 90
f 90 138 139
f 90 139 91
f 91 139 140
f 91 140 92
f 92 140 141
f 92 141 93
f 93 141 142
f 93 142 94
f 94 142 143
f 94 143 95
f 95 143 144
f 95 144 96
f 96 144 97
f 96 97 49
f 97 145 146
f 97 146 98
f 98 146 147
f 98 147 99
f 99 147 148
f 99 148 100
f 100 148 149
f 100 149 101
f 101 149 150
f 101 150 102
f 102 150 151
f 102 151 103
f 103 151 152
f 103 152 104
f 104 152 153
f 104 153 105
f 105 153 154
f 105 154 106
f 106 154 155
f 106 155 107
f 107 155 156
f 107 156 108
f 108 156 157
f 108 157 109
f 109 157 158
f 109 158 110
f 110 158 159
f 110 159 111
f 111 159 160
f 111 160 112
f 112 160 161
f 112 161 113
f 113 161 162
f 113 162 114
f 114 162 163
f 114 163 115
f 115 163 164
f 115 164 116
f 116 164 165
f 116 165 117
f 117 165 166
f 117 166 118
f 118 166 167
f 118 167 119
f 119 167 168
f 119 168 120
f 120 168 169
f 120 169 121
f 121 169 170
f 121 170 122
f 122 170 171
f 122 171 123
f 123 171 172
f 123 172 124
f 124 172 173
f 124 173 125
f 125 173 174
f 125 174 126
f 126 174 175
f 126 175 127
f 127 175 176
f 127 176 128
f 128 176 177
f 128 177 129
f 129 177 178
f 129 178 130
f 130 178 179
f 130 179 131
f 131 179 180
f 131 180 132
f 132 180 181
f 132 181 133
f 133 181 182
f 133 182 134
f 134 182 183
f 134 183 135
f 135 183 184
f 135 184 136
f 136 184 185
f 136 185 137
f 137 185 186
f 137 186 138
f 138 186 187
f 138 187 139
f 139 187 188
f 139 188 140
f 140 188 189
f 140 189 141
f 141 189 190
f 141 190 142
f 142 190 191
f 142 191 143
f 143 191 192
f 143 192 144
f 144 192 145
f 144 145 97
f 145 193 194
f 145 194 146
f 146 194 195
f 146 195 147
f 147 195 196
f 147 196 148
f 148 196 197
f 148 197 149
f 149 197 198
f 149 198 150
f 150 198 199
f 150 199 151
f 151 199 200
f 151 200 152
f 152 200 201
f 152 201 153
f 153 201 202
f 153 202 154
f 154 202 203
f 154 203 155
f 155 203 204
f 155 204 156
f 156 204 205
f 156 205 157
f 157 205 206
f 157 206 158
f 158 206 207
f 158 207 159
f 159 207 208
f 159 208 160
f 160 208 209
f 160 209 161
f 161 209 210
f 161 210 162
f 162 210 211
f 162 211 163
f 163 211 212
f 163 212 164
f 164 212 213
f 164 213 165
f 165 213 214
f 165 214 166
f 166 214 215
f 166 215 167
f 167 215 216
f 167 216 168
f 168 216 217
f 168 217 169
f 169 217 218
f 169 218 170
f 170 218 219
f 170 219 171
f 171 219 220
f 171 220 172
f 172 220 221
f 172 221 173
f 173 221 222
f 173 222 174
f 174 222 223
f 174 223 175
f 175 223 224
f 175 224 176
f 176 224 225
f 176 225 177
f 177 225 226
f 177 226 178
f 178 226 227
f 178 227 179
f 179 227 228
f 179 228 180
f 180 228 229
f 180 229 181
f 181 229 230
f 181 230 182
f 182 230 231
f 182 231 183
f 183 231 232
f 183 232 184
f 184 232 233
f 184 233 185
f 185 233 234
f 185 234 186
f 186 234 235
f 186 235 187
f 187 235 236
f 187 236 188
f 188 236 237
f 188 237 189
f 189 237 238
f 189 238 190
f 190 238 239
f 190 239 191
f 191 239 240
f 191 240 192
f 192 240 193
f 192 193 145
f 193 241 242
f 193 242 194
f 194 242 243
f 194 243 195
f 195 243 244
f 195 244 196
f 196 244 245
f 196 245 197
f 197 245 246
f 197 246 198
f 198 246 247
f 198 247 199
f 199 247 248
f 199 248 200
f 200 248 249
f 200 249 201
f 201 249 250
f 201 250 202
f 202 250 251
f 202 251 203
f 203 251 252
f 203 252 204
f 204 252 253
f 204 253 205
f 205 253 254
f 205 254 206
f 206 254 255
f 206 255 207
f 207 255 256
f 207 256 208
f 208 256 257
f 208 257 209
f 209 257 258
f 209 258 210
f 210 258 259
f 210 259 211
f 211 259 260
f 211 260 212
f 212 260 261
f 212 261 213
f 213 261 262
f 213 262 214
f 214 262 263
f 214 263 215
f 215 263 264
f 215 264 216
f 216 264 265
f 216 265 217
f 217 265 266
f 217 266 218
f 218 266 267
f 218 267 219
f 219 267 268
f 219 268 220
f 220 268 269
f 220 269 221
f 221 269 270
f 221 270 222
f 222 270 271
f 222 271 223
f 223 271 272
f 223 272 224
f 224 272 273
f 224 273 225
f 225 273 274
f 225 274 226
f 226 274 275
f 226 275 227
f 227 275 276
f 227 276 228
f 228 276 277
f 228 277 229
f 229 277 278
f 229 278 230
f 230 278 279
f 230 279 231
f 231 279 280
f 231 280 232
f 232 280 281
f 232 281 233
f 233 281 282
f 233 282 234
f 234 282 283
f 234 283 235
f 235 283 284
f 235 284 236
f 236 284 285
f 236 285 237
f 237 285 286
f 237 286 238
f 238 286 287
f 238 287 239
f 239 287 288
f 239 288 240
f 240 288 241
f 240 241 193
f 241 289 290
f 241 290 242
f 242 290 291
f 242 291 243
f 243 291 292
f 243 292 244
f 244 292 293
f 244 293 245
f 245 293 294
f 245 294 246
f 246 294 295
f 246 295 247
f 247 295 296
f 247 296 248
f 248 296 297
f 248 297 249
f 249 297 298
f 249 298 250
f 250 298 299
f 250 299 251
f 251 299 300
f 251 300 252
f 252 300 301
f 252 301 253
f 253 301 302
f 253 302 254
f 254 302 303
f 254 303 255
f 255 303 304
f 255 304 256
f 256 304 305
f 256 305 257
f 257 305 306
f 257 306 258
f 258 306 307
f 258 307 259
f 259 307 308
f 259 308 260
f 260 308 309
f 260 309 261
f 261 309 310
f 261 310 262
f 262 310 311
f 262 311 263
f 263 311 312
f 263 312 264
f 264 312 313
f 264 313 265
f 265 313 314
f 265 314 266
f 266 314 315
f 266 315 267
f 267 315 316
f 267 316 268
f 268 316 317
f 268 317 269
f 269 317 318
f 269 318 270
f 270 318 319
f 270 319 271
f 271 319 320
f 271 320 272
f 272 320 321
f 272 321 273
f 273 321 322
f 273 322 274
f 274 322 323
f 274 323 275
f 275 323 324
f 275 324 276
f 276 324 325
f 276 325 277
f 277 325 326
f 277 326 278
f 278 326 327
f 278 327 279
f 279 327 328
f 279 328 280
f 280 328 329
f 280 329 281
f 281 329 330
f 281 330 282
f 282 330 331
f 282 331 283
f 283 331 332
f 283 332 284
f 284 332 333
f 284 333 285
f 285 333 334
f 285 334 286
f 286 334 335
f 286 335 287
f 287 335 336
f 287 336 288
f 288 336 289
f 288 289 241
f 289 337 338
f 289 338 290
f 290 338 339
f 290 339 291
f 291 339 340
f 291 340 292
f 292 340 341
f 292 341 293
f 293 341 342
f 293 342 294
f 294 342 343
f 294 343 295
f 295 343 344
f 295 344 296
f 296 344 345
f 296 345 297
f 297 345 346
f 297 346 298
f 298 346 347
f 298 347 299
f 299 347 348
f 299 348 300
f 300 348 349
f 300 349 301
f 301 349 350
f 301 350 302
f 302 350 351
f 302 351 303
f 303 351 352
f 303 352 304
f 304 352 353
f 304 353 305
f 305 353 354
f 305 354 306
f 306 354 355
f 306 355 307
f 307 355 356
f 307 356 308
f 308 356 357
f 308 357 309
f 309 357 358
f 309 358 310
f 310 358 359
f 310 359 311
f 311 359 360
f 311 360 312
f 312 360 361
f 312 361 313
f 313 361 362
f 313 362 314
f 314 362 363
f 314 363 315
f 315 363 364
f 315 364 316
f 316 364 365
f 316 365 317
f 317 365 366
f 317 366 318
f 318 366 367
f 318 367 319
f 319 367 368
f 319 368 320
f 320 368 369
f 320 369 321
f 321 369 370
f 321 370 322
f 322 370 371
f 322 371 323
f 323 371 372
f 323 372 324
f 324 372 373
f 324 373 325
f 325 373 374
f 325 374 326
f 326 374 375
f 326 375 327
f 327 375 376
f 327 376 328
f 328 376 377
f 328 377 329
f 329 377 378
f 329 378 330
f 330 378 379
f 330 379 331
f 331 379 380
f 331 380 332
f 332 380 381
f 332 381 333
f 333 381 382
f 333 382 334
f 334 382 383
f 334 383 335
f 335 383 384
f 335 384 336
f 336 384 337
f 336 337 289
f 337 385 386
f 337 386 338
f 338 386 387
f 338 387 339
f 339 387 388
f 339 388 340
f 340 388 389
f 340 389 341
f 341 389 390
f 341 390 342
f 342 390 391
f 342 391 343
f 343 391 392
f 343 392 344
f 344 392 393
f 344 393 345
f 345 393 394
f 345 394 346
f 346 394 395
f 346 395 347
f 347 395 396
f 347 396 348
f 348 396 397
f 348 397 349
f 349 397 398
f 349 398 350
f 350 398 399
f 350 399 351
f 351 399 400
f 351 400 352
f 352 400 401
f 352 401 353
f 353 401 402
f 353 402 354
f 354 402 403
f 354 403 355
f 355 403 404
f 355 404 356
f 356 404 405
f 356 405 357
f 357 405 406
f 357 406 358
f 358 406 407
f 358 407 359
f 359 407 408
f 359 408 360
f 360 408 409
f 360 409 361
f 361 409 410
f 361 410 362
f 362 410 411
f 362 411 363
f 363 411 412
f 363 412 364
f 364 412 413
f 364 413 365
f 365 413 414
f 365 414 366
f 366 414 415
f 366 415 367
f 367 415 416
f 367 416 368
f 368 416 417
f 368 417 369
f 369 417 418
f 369 418 370
f 370 418 419
f 370 419 371
f 371 419 420
f 371 420 372
f 372 420 421
f 372 421 373
f 373 421 422
f 373 422 374
f 374 422 423
f 374 423 375
f 375 423 424
f 375 424 376
f 376 424 425
f 376 425 377
f 377 425 426
f 377 426 378
f 378 426 427
f 378 427 379
f 379 427 428
f 379 428 380
f 380 428 429
f 380 429 381
f 381 429 430
f 381 430 382
f 382 430 431
f 382 431 383
f 383 431 432
f 383 432 384
f 384 432 385
f 384 385 337
f 385 433 434
f 385 434 386
f 386 434 435
f 386 435 387
f 387 435 436
f 387 436 388
f 388 436 437
f 388 437 389
f 389 437 438
f 389 438 390
f 390 438 439
f 390 439 391
f 391 439 440
f 391 440 392
f 392 440 441
f 392 441 393
f 393 441 442
f 393 442 394
f 394 442 443
f 394 443 395
f 395 443 444
f 395 444 396
f 396 444 445
f 396 445 397
f 397 445 446
f 397 446 398
f 398 446 447
f 398 447 399
f 399 447 448
f 399 448 400
f 400 448 449
f 400 449 401
f 401 449 450
f 401 450 402
f 402 450 451
f 402 451 403
f 403 451 452
f 403 452 404
f 404 452 453
f 404 453 405
f 405 453 454
f 405 454 406
f 406 454 455
f 406 455 407
f 407 455 456
f 407 456 408
f 408 456 457
f 408 457 409
f 409 457 458
f 409 458 410
f 410 458 459
f 410 459 411
f 411 459 460
f 411 460 412
f 412 460 461
f 412 461 413
f 413 461 462
f 413 462 414
f 414 462 463
f 414 463 415
f 415 463 464
f 415 464 416
f 416 464 465
f 416 465 417
f 417 465 466
f 417 466 418
f 418 466 467
f 418 467 419
f 419 467 468
f 419 468 420
f 420 468 469
f 420 469 421
f 421 469 470
f 421 470 422
f 422 470 471
f 422 471 423
f 423 471 472
f 423 472 424
f 424 472 473
f 424 473 425
f 425 473 474
f 425 474 426
f 426 474 475
f 426 475 427
f 427 475 476
f 427 476 428
f 428 476 477
f 428 477 429
f 429 477 478
f 429 478 430
f 430 478 479
f 430 479 431
f 431 479 480
f 431 480 432
f 432 480 433
f 432 433 385
f 433 481 482
f 433 482 434
f 434 482 483
f 434 483 435
f 435 483 484
f 435 484 436
f 436 484 485
f 436 485 437
f 437 485 486
f 437 486 438
f 438 486 487
f 438 487 439
f 439 487 488
f 439 488 440
f 440 488 489
f 440 489 441
f 441 489 490
f 441 490 442
f 442 490 491
f 442 491 443
f 443 491 492
f 443 492 444
f 444 492 493
f 444 493 445
f 445 493 494
f 445 494 446
f 446 494 495
f 446 495 447
f 447 495 496
f 447 496 448
f 448 496 497
f 448 497 449
f 449 497 498
f 449 498 450
f 450 498 499
f 450 499 451
f 451 499 500
f 451 500 452
f 452 500 501
f 452 501 453
f 453 501 502
f 453 502 454
f 454 502 503
f 454 503 455
f 455 503 504
f 455 504 456
f 456 504 505
f 456 505 457
f 457 505 506
f 457 506 458
f 458 506 507
f 458 507 459
f 459 507 508
f 459 508 460
f 460 508 509
f 460 509 461
f 461 509 510
f 461 510 462
f 462 510 511
f 462 511 463
f 463 511 512
f 463 512 464
f 464 512 513
f 464 513 465
f 465 513 514
f 465 514 466
f 466 514 515
f 466 515 467
f 467 515 516
f 467 516 468
f 468 516 517
f 468 517 469
f 469 517 518
f 469 518 470
f 470 518 519
f 470 519 471
f 471 519 520
f 471 520 472
f 472 520 521
f 472 521 473
f 473 521 522
f 473 522 474
f 474 522 523
f 474 523 475
f 475 523 524
f 475 524 476
f 476 524 525
f 476 525 477
f 477 525 526
f 477 526 478
f 478 526 527
f 478 527 479
f 479 527 528
f 479 528 480
f 480 528 481
f 480 481 433
f 529 2 1
f 530 481 482
f 529 3 2
f 530 482 483
f 529 4 3
f 530 483 484
f 529 5 4
f 530 484 485
f 529 6 5
f 530 485 486
f 529 7 6
f 530 486 487
f 529 8 7
f 530 487 488
f 529 9 8
f 530 488 489
f 529 10 9
f 530 489 490
f 529 11 10
f 530 490 491
f 529 12 11
f 530 491 492
f 529 13 12
f 530 492 493
f 529 14 13
f 530 493 494
f 529 15 14
f 530 494 495
f 529 16 15
f 530 495 496
f 529 17 16
f 530 496 497
f 529 18 17
f 530 497 498
f 529 19 18
f 530 498 499
f 529 20 19
f 530 499 500
f 529 21 20
f 530 500 501
f 529 22 21
f 530 501 502
f 529 23 22
f 530 502 503
f 529 24 23
f 530 503 504
f 529 25 24
f 530 504 505
f 529 26 25
f 530 505 506
f 529 27 26
f 530 506 507
f 529 28 27
f 530 507 508
f 529 29 28
f 530 508 509
f 529 30 29
f 530 509 510
f 529 31 30
f 530 510 511
f 529 32 31
f 530 511 512
f 529 33 32
f 530 512 513
f 529 34 33
f 530 513 514
f 529 35 34
f 530 514 515
f 529 36 35
f 530 515 516
f 529 37 36
f 530 516 517
f 529 38 37
f 530 517 518
f 529 39 38
f 530 518 519
f 529 40 39
f 530 519 520
f 529 41 40
f 530 520 521
f 529 42 41
f 530 521 522
f 529 43 42
f 530 522 523
f 529 44 43
f 530 523 524
f 529 45 44
f 530 524 525
f 529 46 45
f 530 525 526
f 529 47 46
f 530 526 527
f 529 48 47
f 530 527 528
f 529 1 48
f 530 528 481
