o reference-combined_0.25
v 0.25 -0.0024999999999999745 -0.7125
v 0.2478612153434526 0.024584184885660727 -0.7125
v 0.24148145657226708 0.05120495185877308 -0.7125
v 0.23096988312782168 0.07690681221575615 -0.7125
v 0.21650635094610968 0.10125 -0.7125
v 0.1983383350728088 0.12381799651930955 -0.7125
v 0.1767766952966369 0.14422465709620863 -0.7125
v 0.15219035725218016 0.1621208181104313 -0.7125
v 0.12500000000000003 0.17720027128527102 -0.7125
v 0.09567085809127246 0.18920500299609203 -0.7125
v 0.06470476127563018 0.19792960895498168 -0.7125
v 0.03263154805501293 0.20322480873506568 -0.7125
v 1.5308084989341915e-17 0.20500000000000002 -0.7125
v -0.032631548055012845 0.20322480873506568 -0.7125
v -0.06470476127563021 0.19792960895498168 -0.7125
v -0.09567085809127243 0.18920500299609203 -0.7125
v -0.12499999999999994 0.17720027128527105 -0.7125
v -0.15219035725218016 0.1621208181104313 -0.7125
v -0.17677669529663687 0.14422465709620863 -0.7125
v -0.19833833507280876 0.12381799651930961 -0.7125
v -0.21650635094610968 0.10125 -0.7125
v -0.23096988312782168 0.07690681221575617 -0.7125
v -0.24148145657226705 0.051204951858773134 -0.7125
v -0.2478612153434526 0.024584184885660727 -0.7125
v -0.25 -0.002499999999999949 -0.7125
v -0.2478612153434526 -0.029584184885660714 -0.7125
v -0.2414814565722671 -0.056204951858772945 -0.7125
v -0.2309698831278217 -0.08190681221575606 -0.7125
v -0.21650635094610965 -0.10625 -0.7125
v -0.19833833507280885 -0.12881799651930945 -0.7125
v -0.17677669529663692 -0.14922465709620858 -0.7125
v -0.15219035725218022 -0.16712081811043122 -0.7125
v -0.1250000000000001 -0.18220027128527094 -0.7125
v -0.09567085809127258 -0.19420500299609192 -0.7125
v -0.06470476127563016 -0.20292960895498163 -0.7125
v -0.03263154805501291 -0.20822480873506563 -0.7125
v -4.592425496802574e-17 -0.20999999999999996 -0.7125
v 0.03263154805501282 -0.20822480873506563 -0.7125
v 0.06470476127563007 -0.20292960895498166 -0.7125
v 0.0956708580912725 -0.19420500299609195 -0.7125
v 0.12500000000000003 -0.18220027128527097 -0.7125
v 0.15219035725218014 -0.16712081811043125 -0.7125
v 0.17677669529663684 -0.1492246570962086 -0.7125
v 0.19833833507280874 -0.12881799651930956 -0.7125
v 0.2165063509461096 -0.10625000000000007 -0.7125
v 0.23096988312782163 -0.08190681221575623 -0.7125
v 0.24148145657226708 -0.056204951858773014 -0.7125
v 0.2478612153434526 -0.029584184885660697 -0.7125
v 0.25 -0.0024999999999999745 -0.65
v 0.2478612153434526 0.024584184885660727 -0.65
v 0.24148145657226708 0.05120495185877308 -0.65
v 0.23096988312782168 0.07690681221575615 -0.65
v 0.21650635094610968 0.10125 -0.65
v 0.1983383350728088 0.12381799651930955 -0.65
v 0.1767766952966369 0.14422465709620863 -0.65
v 0.15219035725218016 0.1621208181104313 -0.65
v 0.12500000000000003 0.17720027128527102 -0.65
v 0.09567085809127246 0.18920500299609203 -0.65
v 0.06470476127563018 0.19792960895498168 -0.65
v 0.03263154805501293 0.20322480873506568 -0.65
v 1.5308084989341915e-17 0.20500000000000002 -0.65
v -0.032631548055012845 0.20322480873506568 -0.65
v -0.06470476127563021 0.19792960895498168 -0.65
v -0.09567085809127243 0.18920500299609203 -0.65
v -0.12499999999999994 0.17720027128527105 -0.65
v -0.15219035725218016 0.1621208181104313 -0.65
v -0.17677669529663687 0.14422465709620863 -0.65
v -0.19833833507280876 0.12381799651930961 -0.65
v -0.21650635094610968 0.10125 -0.65
v -0.23096988312782168 0.07690681221575617 -0.65
v -0.24148145657226705 0.051204951858773134 -0.65
v -0.2478612153434526 0.024584184885660727 -0.65
v -0.25 -0.002499999999999949 -0.65
v -0.2478612153434526 -0.029584184885660714 -0.65
v -0.2414814565722671 -0.056204951858772945 -0.65
v -0.2309698831278217 -0.08190681221575606 -0.65
v -0.21650635094610965 -0.10625 -0.65
v -0.19833833507280885 -0.12881799651930945 -0.65
v -0.17677669529663692 -0.14922465709620858 -0.65
v -0.15219035725218022 -0.16712081811043122 -0.65
v -0.1250000000000001 -0.18220027128527094 -0.65
v -0.09567085809127258 -0.19420500299609192 -0.65
v -0.06470476127563016 -0.20292960895498163 -0.65
v -0.03263154805501291 -0.20822480873506563 -0.65
v -4.592425496802574e-17 -0.20999999999999996 -0.65
v 0.03263154805501282 -0.20822480873506563 -0.65
v 0.06470476127563007 -0.20292960895498166 -0.65
v 0.0956708580912725 -0.19420500299609195 -0.65
v 0.12500000000000003 -0.18220027128527097 -0.65
v 0.15219035725218014 -0.16712081811043125 -0.65
v 0.17677669529663684 -0.1492246570962086 -0.65
v 0.19833833507280874 -0.12881799651930956 -0.65
v 0.2165063509461096 -0.10625000000000007 -0.65
v 0.23096988312782163 -0.08190681221575623 -0.65
v 0.24148145657226708 -0.056204951858773014 -0.65
v 0.2478612153434526 -0.029584184885660697 -0.65
v 0.485 0.035 -0.525
v 0.48085075776629804 0.08721047688802064 -0.525
v 0.46847402575019814 0.1385276180410083 -0.525
v 0.44808157326797404 0.18807337294603593 -0.525
v 0.42002232083545277 0.235 -0.525
v 0.38477637004124904 0.2785045716034883 -0.525
v 0.3429467888754756 0.31784271247461904 -0.525
v 0.29524929306922953 0.3523413361164941 -0.525
v 0.24250000000000005 0.3814101615137755 -0.525
v 0.18560146469706856 0.4045518130045147 -0.525
v 0.12552723687472256 0.42137033051562733 -0.525
v 0.06330520322672507 0.43157794454952414 -0.525
v 2.969768487932332e-17 0.43500000000000005 -0.525
v -0.06330520322672492 0.43157794454952425 -0.525
v -0.12552723687472261 0.42137033051562733 -0.525
v -0.1856014646970685 0.4045518130045147 -0.525
v -0.24249999999999988 0.3814101615137755 -0.525
v -0.29524929306922953 0.3523413361164941 -0.525
v -0.34294678887547553 0.31784271247461904 -0.525
v -0.384776370041249 0.2785045716034884 -0.525
v -0.42002232083545277 0.235 -0.525
v -0.44808157326797404 0.18807337294603596 -0.525
v -0.4684740257501981 0.1385276180410084 -0.525
v -0.48085075776629804 0.08721047688802064 -0.525
v -0.485 0.03500000000000005 -0.525
v -0.48085075776629804 -0.017210476888020708 -0.525
v -0.4684740257501982 -0.06852761804100814 -0.525
v -0.4480815732679741 -0.11807337294603584 -0.525
v -0.4200223208354527 -0.16500000000000006 -0.525
v -0.38477637004124915 -0.20850457160348815 -0.525
v -0.34294678887547564 -0.247842712474619 -0.525
v -0.2952492930692296 -0.28234133611649403 -0.525
v -0.24250000000000022 -0.31141016151377543 -0.525
v -0.1856014646970688 -0.33455181300451464 -0.525
v -0.1255272368747225 -0.3513703305156274 -0.525
v -0.06330520322672503 -0.3615779445495242 -0.525
v -8.909305463796994e-17 -0.365 -0.525
v 0.06330520322672487 -0.3615779445495242 -0.525
v 0.12552723687472234 -0.3513703305156274 -0.525
v 0.18560146469706865 -0.33455181300451464 -0.525
v 0.24250000000000005 -0.31141016151377543 -0.525
v 0.2952492930692295 -0.28234133611649403 -0.525
v 0.3429467888754755 -0.24784271247461906 -0.525
v 0.3847763700412489 -0.20850457160348837 -0.525
v 0.4200223208354526 -0.16500000000000017 -0.525
v 0.44808157326797393 -0.11807337294603618 -0.525
v 0.46847402575019814 -0.06852761804100828 -0.525
v 0.48085075776629804 -0.017210476888020673 -0.525
v 0.73 0.0799999999999999 -0.4
v 0.7237547488028816 0.15766308437093057 -0.4
v 0.7051258531910198 0.23399733183599974 -0.4
v 0.6744320587332393 0.3076966422572283 -0.4
v 0.6321985447626403 0.37749999999999984 -0.4
v 0.5791479384126017 0.4422130502601887 -0.4
v 0.5161879502661797 0.5007285348059956 -0.4
v 0.44439584317636605 0.5520452374732848 -0.4
v 0.36500000000000005 0.5952851152517409 -0.4
v 0.27935890562651555 0.6297083218442154 -0.4
v 0.18893790292484014 0.6547258666419955 -0.4
v 0.09528412032063775 0.669909692517417 -0.4
v 4.469960816887839e-17 0.6749999999999998 -0.4
v -0.0952841203206375 0.669909692517417 -0.4
v -0.18893790292484022 0.6547258666419955 -0.4
v -0.2793589056265155 0.6297083218442154 -0.4
v -0.3649999999999998 0.5952851152517409 -0.4
v -0.44439584317636605 0.5520452374732848 -0.4
v -0.5161879502661796 0.5007285348059958 -0.4
v -0.5791479384126016 0.4422130502601888 -0.4
v -0.6321985447626403 0.37749999999999984 -0.4
v -0.6744320587332393 0.30769664225722837 -0.4
v -0.7051258531910197 0.2339973318359999 -0.4
v -0.7237547488028816 0.15766308437093057 -0.4
v -0.73 0.07999999999999997 -0.4
v -0.7237547488028816 0.002336915629069111 -0.4
v -0.70512585319102 -0.07399733183599969 -0.4
v -0.6744320587332394 -0.1476966422572284 -0.4
v -0.6321985447626401 -0.21750000000000014 -0.4
v -0.5791479384126018 -0.28221305026018867 -0.4
v -0.5161879502661798 -0.3407285348059958 -0.4
v -0.4443958431763662 -0.39204523747328485 -0.4
v -0.3650000000000003 -0.435285115251741 -0.4
v -0.27935890562651594 -0.46970832184421557 -0.4
v -0.18893790292484006 -0.49472586664199575 -0.4
v -0.09528412032063768 -0.5099096925174174 -0.4
v -1.3409882450663516e-16 -0.5150000000000001 -0.4
v 0.09528412032063742 -0.5099096925174174 -0.4
v 0.1889379029248398 -0.49472586664199575 -0.4
v 0.2793589056265157 -0.46970832184421557 -0.4
v 0.36500000000000005 -0.435285115251741 -0.4
v 0.444395843176366 -0.392045237473285 -0.4
v 0.5161879502661796 -0.34072853480599596 -0.4
v 0.5791479384126015 -0.282213050260189 -0.4
v 0.63219854476264 -0.21750000000000036 -0.4
v 0.6744320587332392 -0.14769664225722887 -0.4
v 0.7051258531910198 -0.07399733183599991 -0.4
v 0.7237547488028816 0.002336915629069153 -0.4
v 0.8999999999999998 0.11499999999999994 -0.275
v 0.8923003752364291 0.21485253704833937 -0.275
v 0.8693332436601613 0.31299656950342825 -0.275
v 0.8314915792601579 0.40775282575929356 -0.275
v 0.7794228634059946 0.49749999999999983 -0.275
v 0.7140180062621115 0.5807024931916711 -0.275
v 0.6363961030678926 0.6559366876077086 -0.275
v 0.5478852861078485 0.7219153053227947 -0.275
v 0.45 0.7775094338950954 -0.275
v 0.34441508912858076 0.8217678423711341 -0.275
v 0.2329371405922686 0.8539332571111371 -0.275
v 0.11747357299804652 0.8734553189509648 -0.275
v 5.5109105961630883e-17 0.8799999999999999 -0.275
v -0.11747357299804621 0.8734553189509648 -0.275
v -0.23293714059226872 0.8539332571111371 -0.275
v -0.34441508912858065 0.8217678423711341 -0.275
v -0.4499999999999997 0.7775094338950954 -0.275
v -0.5478852861078485 0.7219153053227947 -0.275
v -0.6363961030678926 0.6559366876077088 -0.275
v -0.7140180062621114 0.5807024931916713 -0.275
v -0.7794228634059946 0.49749999999999983 -0.275
v -0.8314915792601579 0.40775282575929367 -0.275
v -0.8693332436601612 0.31299656950342847 -0.275
v -0.8923003752364291 0.21485253704833937 -0.275
v -0.8999999999999998 0.11500000000000003 -0.275
v -0.8923003752364291 0.015147462951660348 -0.275
v -0.8693332436601614 -0.0829965695034281 -0.275
v -0.8314915792601579 -0.17775282575929358 -0.275
v -0.7794228634059945 -0.2675000000000001 -0.275
v -0.7140180062621116 -0.35070249319167107 -0.275
v -0.6363961030678927 -0.4259366876077088 -0.275
v -0.5478852861078487 -0.49191530532279476 -0.275
v -0.4500000000000003 -0.5475094338950954 -0.275
v -0.3444150891285812 -0.5917678423711341 -0.275
v -0.23293714059226853 -0.6239332571111371 -0.275
v -0.11747357299804644 -0.6434553189509649 -0.275
v -1.6532731788489264e-16 -0.6499999999999999 -0.275
v 0.11747357299804612 -0.6434553189509651 -0.275
v 0.23293714059226822 -0.6239332571111373 -0.275
v 0.34441508912858093 -0.5917678423711343 -0.275
v 0.45 -0.5475094338950954 -0.275
v 0.5478852861078484 -0.49191530532279487 -0.275
v 0.6363961030678925 -0.4259366876077089 -0.275
v 0.7140180062621113 -0.35070249319167146 -0.275
v 0.7794228634059943 -0.26750000000000035 -0.275
v 0.8314915792601577 -0.1777528257592942 -0.275
v 0.8693332436601613 -0.08299656950342837 -0.275
v 0.8923003752364291 0.015147462951660404 -0.275
v 0.9199999999999999 0.08999999999999991 -0.15
v 0.9121292724639055 0.1924630608927404 -0.15
v 0.8886517601859428 0.29317295040547875 -0.15
v 0.8499691699103837 0.3904064944065955 -0.15
v 0.7967433714816835 0.48249999999999993 -0.15
v 0.7298850730679363 0.5678777217718457 -0.15
v 0.6505382386916237 0.6450788232314397 -0.15
v 0.560060514688023 0.7127823721286197 -0.15
v 0.4600000000000001 0.7698299419707844 -0.15
v 0.35206875777588265 0.8152454330213601 -0.15
v 0.23811352149431905 0.8482517736369186 -0.15
v 0.12008409684244757 0.8682842161784412 -0.15
v 5.633375276077825e-17 0.875 -0.15
v -0.12008409684244727 0.8682842161784412 -0.15
v -0.23811352149431916 0.8482517736369186 -0.15
v -0.35206875777588253 0.8152454330213601 -0.15
v -0.45999999999999974 0.7698299419707844 -0.15
v -0.560060514688023 0.7127823721286197 -0.15
v -0.6505382386916236 0.64507882323144 -0.15
v -0.7298850730679362 0.5678777217718458 -0.15
v -0.7967433714816835 0.48249999999999993 -0.15
v -0.8499691699103837 0.39040649440659553 -0.15
v -0.8886517601859427 0.29317295040547897 -0.15
v -0.9121292724639055 0.1924630608927404 -0.15
v -0.9199999999999999 0.09000000000000001 -0.15
v -0.9121292724639055 -0.01246306089274074 -0.15
v -0.8886517601859428 -0.11317295040547859 -0.15
v -0.8499691699103838 -0.21040649440659548 -0.15
v -0.7967433714816834 -0.30250000000000027 -0.15
v -0.7298850730679365 -0.38787772177184565 -0.15
v -0.6505382386916239 -0.46507882323143995 -0.15
v -0.5600605146880232 -0.5327823721286196 -0.15
v -0.46000000000000035 -0.5898299419707844 -0.15
v -0.3520687577758831 -0.6352454330213602 -0.15
v -0.23811352149431897 -0.6682517736369189 -0.15
v -0.12008409684244749 -0.6882842161784415 -0.15
v -1.6900125828233471e-16 -0.6950000000000003 -0.15
v 0.12008409684244715 -0.6882842161784415 -0.15
v 0.23811352149431866 -0.6682517736369189 -0.15
v 0.35206875777588276 -0.6352454330213602 -0.15
v 0.4600000000000001 -0.5898299419707844 -0.15
v 0.5600605146880229 -0.5327823721286198 -0.15
v 0.6505382386916235 -0.46507882323144006 -0.15
v 0.729885073067936 -0.38787772177184604 -0.15
v 0.7967433714816833 -0.3025000000000005 -0.15
v 0.8499691699103835 -0.2104064944065961 -0.15
v 0.8886517601859428 -0.11317295040547887 -0.15
v 0.9121292724639055 -0.012463060892740671 -0.15
v 0.8400000000000001 0.05250000000000005 -0.025
v 0.8328136835540008 0.13962623330688445 -0.025
v 0.8113776940828175 0.22526171260593264 -0.025
v 0.776058807309481 0.30794119110369744 -0.025
v 0.7274613391789286 0.38625 -0.025
v 0.6664168058446376 0.45884825386332107 -0.025
v 0.5939696961967 0.5244937764420204 -0.025
v 0.5113596003673254 0.5820633546443994 -0.025
v 0.42000000000000015 0.6305719570261128 -0.025
v 0.3214540831866755 0.6691895879512839 -0.025
v 0.21740799788611745 0.6972554890479532 -0.025
v 0.10964200146484344 0.7142894449670185 -0.025
v 5.143516556418884e-17 0.72 -0.025
v -0.10964200146484317 0.7142894449670185 -0.025
v -0.21740799788611753 0.6972554890479532 -0.025
v -0.3214540831866754 0.6691895879512839 -0.025
v -0.4199999999999999 0.6305719570261128 -0.025
v -0.5113596003673254 0.5820633546443994 -0.025
v -0.5939696961966999 0.5244937764420206 -0.025
v -0.6664168058446375 0.45884825386332123 -0.025
v -0.7274613391789286 0.38625 -0.025
v -0.776058807309481 0.30794119110369755 -0.025
v -0.8113776940828173 0.22526171260593283 -0.025
v -0.8328136835540008 0.13962623330688445 -0.025
v -0.8400000000000001 0.05250000000000013 -0.025
v -0.8328136835540008 -0.03462623330688451 -0.025
v -0.8113776940828176 -0.12026171260593227 -0.025
v -0.7760588073094811 -0.20294119110369724 -0.025
v -0.7274613391789285 -0.28125 -0.025
v -0.6664168058446378 -0.35384825386332075 -0.025
v -0.5939696961967001 -0.41949377644202035 -0.025
v -0.5113596003673256 -0.47706335464439925 -0.025
v -0.42000000000000043 -0.5255719570261126 -0.025
v -0.3214540831866759 -0.5641895879512837 -0.025
v -0.21740799788611734 -0.592255489047953 -0.025
v -0.10964200146484337 -0.6092894449670183 -0.025
v -1.543054966925665e-16 -0.615 -0.025
v 0.10964200146484307 -0.6092894449670185 -0.025
v 0.21740799788611706 -0.592255489047953 -0.025
v 0.3214540831866756 -0.5641895879512837 -0.025
v 0.42000000000000015 -0.5255719570261126 -0.025
v 0.5113596003673253 -0.47706335464439936 -0.025
v 0.5939696961966998 -0.4194937764420205 -0.025
v 0.6664168058446374 -0.35384825386332114 -0.025
v 0.7274613391789283 -0.2812500000000002 -0.025
v 0.7760588073094807 -0.2029411911036978 -0.025
v 0.8113776940828175 -0.12026171260593249 -0.025
v 0.8328136835540008 -0.034626233306884455 -0.025
v 0.61 0.03500000000000003 0.1
v 0.6047813654380243 0.10091572707112607 0.1
v 0.5892147540363316 0.165703617776773 0.1
v 0.5635665148318849 0.22825513334437036 0.1
v 0.5282754963085076 0.2875 0.1
v 0.48394553757765346 0.34242452164940396 0.1
v 0.431335136523794 0.3920889244992065 0.1
v 0.3713444716953196 0.4356434368470738 0.1
v 0.30500000000000005 0.47234282891114154 0.1
v 0.2334368937427048 0.5015591639181998 0.1
v 0.15787961751253765 0.5227925422759796 0.1
v 0.07962097725423155 0.5356796549937742 0.1
v 3.735172737399427e-17 0.54 0.1
v -0.07962097725423134 0.5356796549937743 0.1
v -0.1578796175125377 0.5227925422759796 0.1
v -0.23343689374270474 0.5015591639181998 0.1
v -0.3049999999999999 0.4723428289111416 0.1
v -0.3713444716953196 0.4356434368470738 0.1
v -0.43133513652379396 0.39208892449920657 0.1
v -0.48394553757765335 0.34242452164940407 0.1
v -0.5282754963085076 0.2875 0.1
v -0.5635665148318849 0.22825513334437042 0.1
v -0.5892147540363316 0.16570361777677314 0.1
v -0.6047813654380243 0.10091572707112607 0.1
v -0.61 0.035000000000000094 0.1
v -0.6047813654380243 -0.03091572707112611 0.1
v -0.5892147540363317 -0.09570361777677275 0.1
v -0.5635665148318849 -0.15825513334437022 0.1
v -0.5282754963085076 -0.21750000000000003 0.1
v -0.4839455375776536 -0.27242452164940373 0.1
v -0.43133513652379407 -0.32208892449920645 0.1
v -0.3713444716953197 -0.3656434368470736 0.1
v -0.30500000000000027 -0.4023428289111414 0.1
v -0.2334368937427051 -0.43155916391819965 0.1
v -0.15787961751253757 -0.4527925422759795 0.1
v -0.07962097725423149 -0.4656796549937742 0.1
v -1.120551821219828e-16 -0.47 0.1
v 0.07962097725423127 -0.4656796549937743 0.1
v 0.15787961751253737 -0.45279254227597954 0.1
v 0.2334368937427049 -0.4315591639181997 0.1
v 0.30500000000000005 -0.4023428289111415 0.1
v 0.37134447169531953 -0.36564343684707373 0.1
v 0.43133513652379385 -0.32208892449920656 0.1
v 0.4839455375776533 -0.272424521649404 0.1
v 0.5282754963085073 -0.2175000000000002 0.1
v 0.5635665148318848 -0.1582551333443706 0.1
v 0.5892147540363316 -0.09570361777677291 0.1
v 0.6047813654380243 -0.030915727071126067 0.1
v 0.37000000000000005 0.019999999999999962 0.225
v 0.36683459870830987 0.06307364343261698 0.225
v 0.35739255572695533 0.1054102848838318 0.225
v 0.34183542702917613 0.14628553268047959 0.225
v 0.32042939940024234 0.18499999999999994 0.225
v 0.29354073590775703 0.2208912715728778 0.225
v 0.26162950903902266 0.2533452377915606 0.225
v 0.22524172873322668 0.2818066022961076 0.225
v 0.18500000000000005 0.3057883832488647 0.225
v 0.14159286997508325 0.3248802457287246 0.225
v 0.09576304668793269 0.3387555226753925 0.225
v 0.04829469112141914 0.3471768042533574 0.225
v 2.2655965784226037e-17 0.35 0.225
v -0.048294691121419014 0.34717680425335745 0.225
v -0.09576304668793273 0.3387555226753925 0.225
v -0.14159286997508322 0.3248802457287246 0.225
v -0.18499999999999994 0.30578838324886476 0.225
v -0.22524172873322668 0.2818066022961076 0.225
v -0.2616295090390226 0.2533452377915607 0.225
v -0.29354073590775703 0.22089127157287786 0.225
v -0.32042939940024234 0.18499999999999994 0.225
v -0.34183542702917613 0.14628553268047964 0.225
v -0.3573925557269553 0.1054102848838319 0.225
v -0.36683459870830987 0.06307364343261698 0.225
v -0.37000000000000005 0.020000000000000004 0.225
v -0.36683459870830987 -0.02307364343261712 0.225
v -0.3573925557269554 -0.06541028488383176 0.225
v -0.3418354270291762 -0.1062855326804796 0.225
v -0.32042939940024234 -0.14500000000000007 0.225
v -0.29354073590775714 -0.18089127157287777 0.225
v -0.26162950903902266 -0.2133452377915607 0.225
v -0.22524172873322676 -0.24180660229610756 0.225
v -0.1850000000000002 -0.2657883832488648 0.225
v -0.14159286997508344 -0.2848802457287246 0.225
v -0.09576304668793265 -0.29875552267539257 0.225
v -0.04829469112141911 -0.30717680425335747 0.225
v -6.796789735267811e-17 -0.31000000000000005 0.225
v 0.04829469112141897 -0.3071768042533575 0.225
v 0.09576304668793252 -0.2987555226753926 0.225
v 0.14159286997508333 -0.2848802457287246 0.225
v 0.18500000000000005 -0.2657883832488648 0.225
v 0.22524172873322662 -0.24180660229610768 0.225
v 0.26162950903902255 -0.21334523779156078 0.225
v 0.293540735907757 -0.18089127157287793 0.225
v 0.32042939940024223 -0.14500000000000018 0.225
v 0.3418354270291761 -0.10628553268047988 0.225
v 0.35739255572695533 -0.06541028488383187 0.225
v 0.36683459870830987 -0.023073643432617093 0.225
v 0.20500000000000002 -0.0024999999999999883 0.35
v 0.20324619658163115 0.01871050623575839 0.35
v 0.198014794389259 0.039558094829159625 0.35
v 0.1893953041648138 0.059686057759327095 0.35
v 0.17753520777580994 0.07874999999999999 0.35
v 0.16263743475970321 0.0964237322139171 0.35
v 0.14495689014324226 0.11240485194281395 0.35
v 0.12479609294678774 0.1264199177973257 0.35
v 0.10250000000000004 0.1382291281149713 0.35
v 0.07845010363484342 0.14763042403308407 0.35
v 0.05305790424601676 0.15446294677197359 0.35
v 0.0267578694051106 0.15860978997324415 0.35
v 1.2552629691260372e-17 0.15999999999999998 0.35
v -0.026757869405110535 0.1586097899732442 0.35
v -0.05305790424601678 0.15446294677197359 0.35
v -0.0784501036348434 0.14763042403308407 0.35
v -0.10249999999999997 0.1382291281149713 0.35
v -0.12479609294678774 0.1264199177973257 0.35
v -0.14495689014324223 0.11240485194281398 0.35
v -0.1626374347597032 0.09642373221391715 0.35
v -0.17753520777580994 0.07874999999999999 0.35
v -0.1893953041648138 0.05968605775932711 0.35
v -0.198014794389259 0.03955809482915967 0.35
v -0.20324619658163115 0.01871050623575839 0.35
v -0.20500000000000002 -0.0024999999999999684 0.35
v -0.20324619658163115 -0.023710506235758398 0.35
v -0.19801479438925904 -0.04455809482915954 0.35
v -0.18939530416481382 -0.06468605775932704 0.35
v -0.17753520777580992 -0.08374999999999999 0.35
v -0.16263743475970327 -0.10142373221391703 0.35
v -0.14495689014324228 -0.11740485194281393 0.35
v -0.12479609294678778 -0.13141991779732565 0.35
v -0.1025000000000001 -0.14322912811497124 0.35
v -0.07845010363484352 -0.15263042403308402 0.35
v -0.05305790424601673 -0.1594629467719736 0.35
v -0.026757869405110588 -0.16360978997324416 0.35
v -3.7657889073781114e-17 -0.16499999999999998 0.35
v 0.02675786940511051 -0.16360978997324416 0.35
v 0.05305790424601666 -0.1594629467719736 0.35
v 0.07845010363484346 -0.15263042403308402 0.35
v 0.10250000000000004 -0.14322912811497124 0.35
v 0.12479609294678772 -0.1314199177973257 0.35
v 0.14495689014324223 -0.11740485194281397 0.35
v 0.1626374347597032 -0.10142373221391712 0.35
v 0.1775352077758099 -0.08375000000000005 0.35
v 0.18939530416481376 -0.06468605775932718 0.35
v 0.198014794389259 -0.044558094829159595 0.35
v 0.20324619658163115 -0.023710506235758384 0.35
v 0.20500000000000002 -0.0024999999999999883 0.4125
v 0.20324619658163115 0.01871050623575839 0.4125
v 0.198014794389259 0.039558094829159625 0.4125
v 0.1893953041648138 0.059686057759327095 0.4125
v 0.17753520777580994 0.07874999999999999 0.4125
v 0.16263743475970321 0.0964237322139171 0.4125
v 0.14495689014324226 0.11240485194281395 0.4125
v 0.12479609294678774 0.1264199177973257 0.4125
v 0.10250000000000004 0.1382291281149713 0.4125
v 0.07845010363484342 0.14763042403308407 0.4125
v 0.05305790424601676 0.15446294677197359 0.4125
v 0.0267578694051106 0.15860978997324415 0.4125
v 1.2552629691260372e-17 0.15999999999999998 0.4125
v -0.026757869405110535 0.1586097899732442 0.4125
v -0.05305790424601678 0.15446294677197359 0.4125
v -0.0784501036348434 0.14763042403308407 0.4125
v -0.10249999999999997 0.1382291281149713 0.4125
v -0.12479609294678774 0.1264199177973257 0.4125
v -0.14495689014324223 0.11240485194281398 0.4125
v -0.1626374347597032 0.09642373221391715 0.4125
v -0.17753520777580994 0.07874999999999999 0.4125
v -0.1893953041648138 0.05968605775932711 0.4125
v -0.198014794389259 0.03955809482915967 0.4125
v -0.20324619658163115 0.01871050623575839 0.4125
v -0.20500000000000002 -0.0024999999999999684 0.4125
v -0.20324619658163115 -0.023710506235758398 0.4125
v -0.19801479438925904 -0.04455809482915954 0.4125
v -0.18939530416481382 -0.06468605775932704 0.4125
v -0.17753520777580992 -0.08374999999999999 0.4125
v -0.16263743475970327 -0.10142373221391703 0.4125
v -0.14495689014324228 -0.11740485194281393 0.4125
v -0.12479609294678778 -0.13141991779732565 0.4125
v -0.1025000000000001 -0.14322912811497124 0.4125
v -0.07845010363484352 -0.15263042403308402 0.4125
v -0.05305790424601673 -0.1594629467719736 0.4125
v -0.026757869405110588 -0.16360978997324416 0.4125
v -3.7657889073781114e-17 -0.16499999999999998 0.4125
v 0.02675786940511051 -0.16360978997324416 0.4125
v 0.05305790424601666 -0.1594629467719736 0.4125
v 0.07845010363484346 -0.15263042403308402 0.4125
v 0.10250000000000004 -0.14322912811497124 0.4125
v 0.12479609294678772 -0.1314199177973257 0.4125
v 0.14495689014324223 -0.11740485194281397 0.4125
v 0.1626374347597032 -0.10142373221391712 0.4125
v 0.1775352077758099 -0.08375000000000005 0.4125
v 0.18939530416481376 -0.06468605775932718 0.4125
v 0.198014794389259 -0.044558094829159595 0.4125
v 0.20324619658163115 -0.023710506235758384 0.4125
v 0 -0.0024999999999999745 -0.7125
v 0 -0.0024999999999999883 0.4125
f 1 49 50
f 1 50 2
f 2 50 51
f 2 51 3
f 3 51 52
f 3 52 4
f 4 52 53
f 4 53 5
f 5 53 54
f 5 54 6
f 6 54 55
f 6 55 7
f 7 55 56
f 7 56 8
f 8 56 57
f 8 57 9
f 9 57 58
f 9 58 10
f 10 58 59
f 10 59 11
f 11 59 60
f 11 60 12
f 12 60 61
f 12 61 13
f 13 61 62
f 13 62 14
f 14 62 63
f 14 63 15
f 15 63 64
f 15 64 16
f 16 64 65
f 16 65 17
f 17 65 66
f 17 66 18
f 18 66 67
f 18 67 19
f 19 67 68
f 19 68 20
f 20 68 69
f 20 69 21
f 21 69 70
f 21 70 22
f 22 70 71
f 22 71 23
f 23 71 72
f 23 72 24
f 24 72 73
f 24 73 25
f 25 73 74
f 25 74 26
f 26 74 75
f 26 75 27
f 27 75 76
f 27 76 28
f 28 76 77
f 28 77 29
f 29 77 78
f 29 78 30
f 30 78 79
f 30 79 31
f 31 79 80
f 31 80 32
f 32 80 81
f 32 81 33
f 33 81 82
f 33 82 34
f 34 82 83
f 34 83 35
f 35 83 84
f 35 84 36
f 36 84 85
f 36 85 37
f 37 85 86
f 37 86 38
f 38 86 87
f 38 87 39
f 39 87 88
f 39 88 40
f 40 88 89
f 40 89 41
f 41 89 90
f 41 90 42
f 42 90 91
f 42 91 43
f 43 91 92
f 43 92 44
f 44 92 93
f 44 93 45
f 45 93 94
f 45 94 46
f 46 94 95
f 46 95 47
f 47 95 96
f 47 96 48
f 48 96 49
f 48 49 1
f 49 97 98
f 49 98 50
f 50 98 99
f 50 99 51
f 51 99 100
f 51 100 52
f 52 100 101
f 52 101 53
f 53 101 102
f 53 102 54
f 54 102 103
f 54 103 55
f 55 103 104
f 55 104 56
f 56 104 105
f 56 105 57
f 57 105 106
f 57 106 58
f 58 106 107
f 58 107 59
f 59 107 108
f 59 108 60
f 60 108 109
f 60 109 61
f 61 109 110
f 61 110 62
f 62 110 111
f 62 111 63
f 63 111 112
f 63 112 64
f 64 112 113
f 64 113 65
f 65 113 114
f 65 114 66
f 66 114 115
f 66 115 67
f 67 115 116
f 67 116 68
f 68 116 117
f 68 117 69
f 69 117 118
f 69 118 70
f 70 118 119
f 70 119 71
f 71 119 120
f 71 120 72
f 72 120 121
f 72 121 73
f 73 121 122
f 73 122 74
f 74 122 123
f 74 123 75
f 75 123 124
f 75 124 76
f 76 124 125
f 76 125 77
f 77 125 126
f 77 126 78
f 78 126 127
f 78 127 79
f 79 127 128
f 79 128 80
f 80 128 129
f 80 129 81
f 81 129 130
f 81 130 82
f 82 130 131
f 82 131 83
f 83 131 132
f 83 132 84
f 84 132 133
f 84 133 85
f 85 133 134
f 85 134 86
f 86 134 135
f 86 135 87
f 87 135 136
f 87 136 88
f 88 136 137
f 88 137 89
f 89 137 138
f 89 138 90
f 90 138 139
f 90 139 91
f 91 139 140
f 91 140 92
f 92 140 141
f 92 141 93
f 93 141 142
f 93 142 94
f 94 142 143
f 94 143 95
f 95 143 144
f 95 144 96
f 96 144 97
f 96 97 49
f 97 145 146
f 97 146 98
f 98 146 147
f 98 147 99
f 99 147 148
f 99 148 100
f 100 148 149
f 100 149 101
f 101 149 150
f 101 150 102
f 102 150 151
f 102 151 103
f 103 151 152
f 103 152 104
f 104 152 153
f 104 153 105
f 105 153 154
f 105 154 106
f 106 154 155
f 106 155 107
f 107 155 156
f 107 156 108
f 108 156 157
f 108 157 109
f 109 157 158
f 109 158 110
f 110 158 159
f 110 159 111
f 111 159 160
f 111 160 112
f 112 160 161
f 112 161 113
f 113 161 162
f 113 162 114
f 114 162 163
f 114 163 115
f 115 163 164
f 115 164 116
f 116 164 165
f 116 165 117
f 117 165 166
f 117 166 118
f 118 166 167
f 118 167 119
f 119 167 168
f 119 168 120
f 120 168 169
f 120 169 121
f 121 169 170
f 121 170 122
f 122 170 171
f 122 171 123
f 123 171 172
f 123 172 124
f 124 172 173
f 124 173 125
f 125 173 174
f 125 174 126
f 126 174 175
f 126 175 127
f 127 175 176
f 127 176 128
f 128 176 177
f 128 177 129
f 129 177 178
f 129 178 130
f 130 178 179
f 130 179 131
f 131 179 180
f 131 180 132
f 132 180 181
f 132 181 133
f 133 181 182
f 133 182 134
f 134 182 183
f 134 183 135
f 135 183 184
f 135 184 136
f 136 184 185
f 136 185 137
f 137 185 186
f 137 186 138
f 138 186 187
f 138 187 139
f 139 187 188
f 139 188 140
f 140 188 189
f 140 189 141
f 141 189 190
f 141 190 142
f 142 190 191
f 142 191 143
f 143 191 192
f 143 192 144
f 144 192 145
f 144 145 97
f 145 193 194
f 145 194 146
f 146 194 195
f 146 195 147
f 147 195 196
f 147 196 148
f 148 196 197
f 148 197 149
f 149 197 198
f 149 198 150
f 150 198 199
f 150 199 151
f 151 199 200
f 151 200 152
f 152 200 201
f 152 201 153
f 153 201 202
f 153 202 154
f 154 202 203
f 154 203 155
f 155 203 204
f 155 204 156
f 156 204 205
f 156 205 157
f 157 205 206
f 157 206 158
f 158 206 207
f 158 207 159
f 159 207 208
f 159 208 160
f 160 208 209
f 160 209 161
f 161 209 210
f 161 210 162
f 162 210 211
f 162 211 163
f 163 211 212
f 163 212 164
f 164 212 213
f 164 213 165
f 165 213 214
f 165 214 166
f 166 214 215
f 166 215 167
f 167 215 216
f 167 216 168
f 168 216 217
f 168 217 169
f 169 217 218
f 169 218 170
f 170 218 219
f 170 219 171
f 171 219 220
f 171 220 172
f 172 220 221
f 172 221 173
f 173 221 222
f 173 222 174
f 174 222 223
f 174 223 175
f 175 223 224
f 175 224 176
f 176 224 225
f 176 225 177
f 177 225 226
f 177 226 178
f 178 226 227
f 178 227 179
f 179 227 228
f 179 228 180
f 180 228 229
f 180 229 181
f 181 229 230
f 181 230 182
f 182 230 231
f 182 231 183
f 183 231 232
f 183 232 184
f 184 232 233
f 184 233 185
f 185 233 234
f 185 234 186
f 186 234 235
f 186 235 187
f 187 235 236
f 187 236 188
f 188 236 237
f 188 237 189
f 189 237 238
f 189 238 190
f 190 238 239
f 190 239 191
f 191 239 240
f 191 240 192
f 192 240 193
f 192 193 145
f 193 241 242
f 193 242 194
f 194 242 243
f 194 243 195
f 195 243 244
f 195 244 196
f 196 244 245
f 196 245 197
f 197 245 246
f 197 246 198
f 198 246 247
f 198 247 199
f 199 247 248
f 199 248 200
f 200 248 249
f 200 249 201
f 201 249 250
f 201 250 202
f 202 250 251
f 202 251 203
f 203 251 252
f 203 252 204
f 204 252 253
f 204 253 205
f 205 253 254
f 205 254 206
f 206 254 255
f 206 255 207
f 207 255 256
f 207 256 208
f 208 256 257
f 208 257 209
f 209 257 258
f 209 258 210
f 210 258 259
f 210 259 211
f 211 259 260
f 211 260 212
f 212 260 261
f 212 261 213
f 213 261 262
f 213 262 214
f 214 262 263
f 214 263 215
f 215 263 264
f 215 264 216
f 216 264 265
f 216 265 217
f 217 265 266
f 217 266 218
f 218 266 267
f 218 267 219
f 219 267 268
f 219 268 220
f 220 268 269
f 220 269 221
f 221 269 270
f 221 270 222
f 222 270 271
f 222 271 223
f 223 271 272
f 223 272 224
f 224 272 273
f 224 273 225
f 225 273 274
f 225 274 226
f 226 274 275
f 226 275 227
f 227 275 276
f 227 276 228
f 228 276 277
f 228 277 229
f 229 277 278
f 229 278 230
f 230 278 279
f 230 279 231
f 231 279 280
f 231 280 232
f 232 280 281
f 232 281 233
f 233 281 282
f 233 282 234
f 234 282 283
f 234 283 235
f 235 283 284
f 235 284 236
f 236 284 285
f 236 285 237
f 237 285 286
f 237 286 238
f 238 286 287
f 238 287 239
f 239 287 288
f 239 288 240
f 240 288 241
f 240 241 193
f 241 289 290
f 241 290 242
f 242 290 291
f 242 291 243
f 243 291 292
f 243 292 244
f 244 292 293
f 244 293 245
f 245 293 294
f 245 294 246
f 246 294 295
f 246 295 247
f 247 295 296
f 247 296 248
f 248 296 297
f 248 297 249
f 249 297 298
f 249 298 250
f 250 298 299
f 250 299 251
f 251 299 300
f 251 300 252
f 252 300 301
f 252 301 253
f 253 301 302
f 253 302 254
f 254 302 303
f 254 303 255
f 255 303 304
f 255 304 256
f 256 304 305
f 256 305 257
f 257 305 306
f 257 306 258
f 258 306 307
f 258 307 259
f 259 307 308
f 259 308 260
f 260 308 309
f 260 309 261
f 261 309 310
f 261 310 262
f 262 310 311
f 262 311 263
f 263 311 312
f 263 312 264
f 264 312 313
f 264 313 265
f 265 313 314
f 265 314 266
f 266 314 315
f 266 315 267
f 267 315 316
f 267 316 268
f 268 316 317
f 268 317 269
f 269 317 318
f 269 318 270
f 270 318 319
f 270 319 271
f 271 319 320
f 271 320 272
f 272 320 321
f 272 321 273
f 273 321 322
f 273 322 274
f 274 322 323
f 274 323 275
f 275 323 324
f 275 324 276
f 276 324 325
f 276 325 277
f 277 325 326
f 277 326 278
f 278 326 327
f 278 327 279
f 279 327 328
f 279 328 280
f 280 328 329
f 280 329 281
f 281 329 330
f 281 330 282
f 282 330 331
f 282 331 283
f 283 331 332
f 283 332 284
f 284 332 333
f 284 333 285
f 285 333 334
f 285 334 286
f 286 334 335
f 286 335 287
f 287 335 336
f 287 336 288
f 288 336 289
f 288 289 241
f 289 337 338
f 289 338 290
f 290 338 339
f 290 339 291
f 291 339 340
f 291 340 292
f 292 340 341
f 292 341 293
f 293 341 342
f 293 342 294
f 294 342 343
f 294 343 295
f 295 343 344
f 295 344 296
f 296 344 345
f 296 345 297
f 297 345 346
f 297 346 298
f 298 346 347
f 298 347 299
f 299 347 348
f 299 348 300
f 300 348 349
f 300 349 301
f 301 349 350
f 301 350 302
f 302 350 351
f 302 351 303
f 303 351 352
f 303 352 304
f 304 352 353
f 304 353 305
f 305 353 354
f 305 354 306
f 306 354 355
f 306 355 307
f 307 355 356
f 307 356 308
f 308 356 357
f 308 357 309
f 309 357 358
f 309 358 310
f 310 358 359
f 310 359 311
f 311 359 360
f 311 360 312
f 312 360 361
f 312 361 313
f 313 361 362
f 313 362 314
f 314 362 363
f 314 363 315
f 315 363 364
f 315 364 316
f 316 364 365
f 316 365 317
f 317 365 366
f 317 366 318
f 318 366 367
f 318 367 319
f 319 367 368
f 319 368 320
f 320 368 369
f 320 369 321
f 321 369 370
f 321 370 322
f 322 370 371
f 322 371 323
f 323 371 372
f 323 372 324
f 324 372 373
f 324 373 325
f 325 373 374
f 325 374 326
f 326 374 375
f 326 375 327
f 327 375 376
f 327 376 328
f 328 376 377
f 328 377 329
f 329 377 378
f 329 378 330
f 330 378 379
f 330 379 331
f 331 379 380
f 331 380 332
f 332 380 381
f 332 381 333
f 333 381 382
f 333 382 334
f 334 382 383
f 334 383 335
f 335 383 384
f 335 384 336
f 336 384 337
f 336 337 289
f 337 385 386
f 337 386 338
f 338 386 387
f 338 387 339
f 339 387 388
f 339 388 340
f 340 388 389
f 340 389 341
f 341 389 390
f 341 390 342
f 342 390 391
f 342 391 343
f 343 391 392
f 343 392 344
f 344 392 393
f 344 393 345
f 345 393 394
f 345 394 346
f 346 394 395
f 346 395 347
f 347 395 396
f 347 396 348
f 348 396 397
f 348 397 349
f 349 397 398
f 349 398 350
f 350 398 399
f 350 399 351
f 351 399 400
f 351 400 352
f 352 400 401
f 352 401 353
f 353 401 402
f 353 402 354
f 354 402 403
f 354 403 355
f 355 403 404
f 355 404 356
f 356 404 405
f 356 405 357
f 357 405 406
f 357 406 358
f 358 406 407
f 358 407 359
f 359 407 408
f 359 408 360
f 360 408 409
f 360 409 361
f 361 409 410
f 361 410 362
f 362 410 411
f 362 411 363
f 363 411 412
f 363 412 364
f 364 412 413
f 364 413 365
f 365 413 414
f 365 414 366
f 366 414 415
f 366 415 367
f 367 415 416
f 367 416 368
f 368 416 417
f 368 417 369
f 369 417 418
f 369 418 370
f 370 418 419
f 370 419 371
f 371 419 420
f 371 420 372
f 372 420 421
f 372 421 373
f 373 421 422
f 373 422 374
f 374 422 423
f 374 423 375
f 375 423 424
f 375 424 376
f 376 424 425
f 376 425 377
f 377 425 426
f 377 426 378
f 378 426 427
f 378 427 379
f 379 427 428
f 379 428 380
f 380 428 429
f 380 429 381
f 381 429 430
f 381 430 382
f 382 430 431
f 382 431 383
f 383 431 432
f 383 432 384
f 384 432 385
f 384 385 337
f 385 433 434
f 385 434 386
f 386 434 435
f 386 435 387
f 387 435 436
f 387 436 388
f 388 436 437
f 388 437 389
f 389 437 438
f 389 438 390
f 390 438 439
f 390 439 391
f 391 439 440
f 391 440 392
f 392 440 441
f 392 441 393
f 393 441 442
f 393 442 394
f 394 442 443
f 394 443 395
f 395 443 444
f 395 444 396
f 396 444 445
f 396 445 397
f 397 445 446
f 397 446 398
f 398 446 447
f 398 447 399
f 399 447 448
f 399 448 400
f 400 448 449
f 400 449 401
f 401 449 450
f 401 450 402
f 402 450 451
f 402 451 403
f 403 451 452
f 403 452 404
f 404 452 453
f 404 453 405
f 405 453 454
f 405 454 406
f 406 454 455
f 406 455 407
f 407 455 456
f 407 456 408
f 408 456 457
f 408 457 409
f 409 457 458
f 409 458 410
f 410 458 459
f 410 459 411
f 411 459 460
f 411 460 412
f 412 460 461
f 412 461 413
f 413 461 462
f 413 462 414
f 414 462 463
f 414 463 415
f 415 463 464
f 415 464 416
f 416 464 465
f 416 465 417
f 417 465 466
f 417 466 418
f 418 466 467
f 418 467 419
f 419 467 468
f 419 468 420
f 420 468 469
f 420 469 421
f 421 469 470
f 421 470 422
f 422 470 471
f 422 471 423
f 423 471 472
f 423 472 424
f 424 472 473
f 424 473 425
f 425 473 474
f 425 474 426
f 426 474 475
f 426 475 427
f 427 475 476
f 427 476 428
f 428 476 477
f 428 477 429
f 429 477 478
f 429 478 430
f 430 478 479
f 430 479 431
f 431 479 480
f 431 480 432
f 432 480 433
f 432 433 385
f 433 481 482
f 433 482 434
f 434 482 483
f 434 483 435
f 435 483 484
f 435 484 436
f 436 484 485
f 436 485 437
f 437 485 486
f 437 486 438
f 438 486 487
f 438 487 439
f 439 487 488
f 439 488 440
f 440 488 489
f 440 489 441
f 441 489 490
f 441 490 442
f 442 490 491
f 442 491 443
f 443 491 492
f 443 492 444
f 444 492 493
f 444 493 445
f 445 493 494
f 445 494 446
f 446 494 495
f 446 495 447
f 447 495 496
f 447 496 448
f 448 496 497
f 448 497 449
f 449 497 498
f 449 498 450
f 450 498 499
f 450 499 451
f 451 499 500
f 451 500 452
f 452 500 501
f 452 501 453
f 453 501 502
f 453 502 454
f 454 502 503
f 454 503 455
f 455 503 504
f 455 504 456
f 456 504 505
f 456 505 457
f 457 505 506
f 457 506 458
f 458 506 507
f 458 507 459
f 459 507 508
f 459 508 460
f 460 508 509
f 460 509 461
f 461 509 510
f 461 510 462
f 462 510 511
f 462 511 463
f 463 511 512
f 463 512 464
f 464 512 513
f 464 513 465
f 465 513 514
f 465 514 466
f 466 514 515
f 466 515 467
f 467 515 516
f 467 516 468
f 468 516 517
f 468 517 469
f 469 517 518
f 469 518 470
f 470 518 519
f 470 519 471
f 471 519 520
f 471 520 472
f 472 520 521
f 472 521 473
f 473 521 522
f 473 522 474
f 474 522 523
f 474 523 475
f 475 523 524
f 475 524 476
f 476 524 525
f 476 525 477
f 477 525 526
f 477 526 478
f 478 526 527
f 478 527 479
f 479 527 528
f 479 528 480
f 480 528 481
f 480 481 433
f 529 2 1
f 530 481 482
f 529 3 2
f 530 482 483
f 529 4 3
f 530 483 484
f 529 5 4
f 530 484 485
f 529 6 5
f 530 485 486
f 529 7 6
f 530 486 487
f 529 8 7
f 530 487 488
f 529 9 8
f 530 488 489
f 529 10 9
f 530 489 490
f 529 11 10
f 530 490 491
f 529 12 11
f 530 491 492
f 529 13 12
f 530 492 493
f 529 14 13
f 530 493 494
f 529 15 14
f 530 494 495
f 529 16 15
f 530 495 496
f 529 17 16
f 530 496 497
f 529 18 17
f 530 497 498
f 529 19 18
f 530 498 499
f 529 20 19
f 530 499 500
f 529 21 20
f 530 500 501
f 529 22 21
f 530 501 502
f 529 23 22
f 530 502 503
f 529 24 23
f 530 503 504
f 529 25 24
f 530 504 505
f 529 26 25
f 530 505 506
f 529 27 26
f 530 506 507
f 529 28 27
f 530 507 508
f 529 29 28
f 530 508 509
f 529 30 29
f 530 509 510
f 529 31 30
f 530 510 511
f 529 32 31
f 530 511 512
f 529 33 32
f 530 512 513
f 529 34 33
f 530 513 514
f 529 35 34
f 530 514 515
f 529 36 35
f 530 515 516
f 529 37 36
f 530 516 517
f 529 38 37
f 530 517 518
f 529 39 38
f 530 518 519
f 529 40 39
f 530 519 520
f 529 41 40
f 530 520 521
f 529 42 41
f 530 521 522
f 529 43 42
f 530 522 523
f 529 44 43
f 530 523 524
f 529 45 44
f 530 524 525
f 529 46 45
f 530 525 526
f 529 47 46
f 530 526 527
f 529 48 47
f 530 527 528
f 529 1 48
f 530 528 481
